{"glyphs":{"0":{"ha":799,"x_min":0,"x_max":0,"o":"m 400 989 b 746 486 624 989 746 768 b 400 -17 746 206 624 -17 b 53 486 175 -17 53 206 b 400 989 53 768 175 989 m 378 936 b 163 564 247 936 163 796 b 421 36 163 392 218 36 b 638 410 551 36 638 176 b 378 936 638 583 576 936 "},"1":{"ha":451,"x_min":0,"x_max":0,"o":"m 407 19 l 407 0 l 38 0 l 38 19 l 150 49 b 179 88 169 54 179 68 l 179 869 b 38 821 140 839 83 821 l 38 868 b 261 989 96 868 183 917 l 282 989 l 282 88 b 311 49 282 68 292 54 "},"2":{"ha":738,"x_min":0,"x_max":0,"o":"m 653 0 l 39 0 l 39 21 l 247 261 b 524 692 418 457 524 574 b 313 896 524 824 440 896 b 94 760 196 896 135 833 l 74 767 b 358 989 110 883 204 989 b 635 718 521 989 635 885 b 158 97 635 508 408 361 l 572 97 b 615 115 590 97 607 99 l 672 221 l 693 221 "},"3":{"ha":726,"x_min":0,"x_max":0,"o":"m 344 540 b 682 290 506 585 682 472 b 356 -17 682 140 569 -17 b 35 247 192 -17 63 67 l 163 247 b 376 32 160 133 254 32 b 571 263 496 32 571 142 b 271 472 571 431 429 549 l 250 494 b 254 497 251 496 253 497 l 532 875 l 179 875 b 138 853 161 875 149 869 l 79 768 l 58 768 l 94 972 l 656 972 l 656 951 l 344 540 "},"4":{"ha":756,"x_min":0,"x_max":0,"o":"m 549 88 b 578 49 549 68 558 54 l 674 19 l 674 0 l 293 0 l 293 19 l 417 49 b 446 88 436 53 446 68 l 446 269 l 7 269 l 7 304 l 504 989 l 549 989 l 549 317 l 711 317 l 711 269 l 549 269 m 446 317 l 446 826 l 75 317 "},"5":{"ha":715,"x_min":0,"x_max":0,"o":"m 360 617 b 665 321 524 617 665 494 b 343 -17 665 128 547 -17 b 21 238 146 -17 46 85 l 149 238 b 360 32 149 135 228 32 b 567 279 485 32 567 138 b 322 536 567 433 463 536 b 121 467 235 536 167 499 l 94 478 l 165 972 l 547 972 b 589 994 565 972 578 978 l 635 1063 l 656 1063 l 622 875 l 199 875 l 149 536 b 360 617 197 585 274 617 "},"6":{"ha":761,"x_min":0,"x_max":0,"o":"m 432 610 b 708 310 588 610 708 482 b 390 -17 708 124 569 -17 b 44 486 188 -17 44 158 b 417 989 44 890 265 989 b 692 776 518 989 646 943 l 568 776 b 399 939 547 888 472 939 b 157 497 275 939 157 836 l 157 457 b 432 610 197 511 296 610 m 408 32 b 596 288 531 32 596 140 b 378 533 596 440 521 533 b 160 424 285 533 214 494 b 408 32 174 192 256 32 "},"7":{"ha":686,"x_min":0,"x_max":0,"o":"m 656 953 b 285 0 539 774 285 438 l 178 0 b 553 875 178 381 397 674 l 163 875 b 121 853 144 875 132 871 l 65 768 l 44 768 l 81 972 l 656 972 "},"8":{"ha":700,"x_min":0,"x_max":0,"o":"m 349 989 b 618 760 515 989 618 899 b 419 524 618 647 522 554 b 656 253 557 471 656 378 b 349 -17 656 104 563 -17 b 44 242 167 -17 44 85 b 247 499 44 367 119 444 b 82 738 151 543 82 615 b 349 989 82 881 174 989 m 349 939 b 171 774 235 939 171 871 b 401 536 171 671 208 635 b 533 760 506 592 533 667 b 349 939 533 871 461 939 m 276 485 b 139 242 167 428 139 336 b 349 33 139 117 221 33 b 565 224 481 33 565 103 b 276 485 565 338 493 374 "},"9":{"ha":761,"x_min":0,"x_max":0,"o":"m 371 985 b 717 482 574 985 717 810 b 344 -21 717 78 496 -21 b 69 192 243 -21 115 25 l 193 192 b 363 29 214 81 289 29 b 604 471 486 29 604 132 l 604 511 b 329 358 564 457 465 358 b 53 658 174 358 53 486 b 371 985 53 844 192 985 m 383 435 b 601 544 476 435 547 474 b 353 936 588 776 506 936 b 165 681 231 936 165 828 b 383 435 165 528 240 435 "},"A":{"ha":986,"x_min":0,"x_max":0,"o":"m 965 19 l 965 0 l 610 0 l 610 19 l 726 43 b 751 86 749 47 760 63 l 668 306 l 268 306 l 183 85 b 208 43 175 63 185 49 l 319 19 l 319 0 l 21 0 l 21 19 l 93 42 b 128 75 110 47 121 57 l 481 989 l 517 989 l 867 74 b 901 42 874 56 885 47 m 650 353 l 468 832 l 286 353 "},"Á":{"ha":986,"x_min":0,"x_max":0,"o":"m 506 1063 l 461 1063 l 561 1258 l 667 1258 m 965 19 l 965 0 l 610 0 l 610 19 l 726 43 b 751 86 749 47 760 63 l 668 306 l 268 306 l 183 85 b 208 43 175 63 185 49 l 319 19 l 319 0 l 21 0 l 21 19 l 93 42 b 128 75 110 47 121 57 l 481 989 l 517 989 l 867 74 b 901 42 874 56 885 47 m 650 353 l 468 832 l 286 353 "},"Ă":{"ha":986,"x_min":0,"x_max":0,"o":"m 500 1057 b 340 1244 399 1057 342 1125 l 378 1244 b 500 1132 385 1164 440 1132 b 624 1244 560 1132 617 1164 l 660 1244 b 500 1057 658 1125 601 1057 m 965 19 l 965 0 l 610 0 l 610 19 l 726 43 b 751 86 749 47 760 63 l 668 306 l 268 306 l 183 85 b 208 43 175 63 185 49 l 319 19 l 319 0 l 21 0 l 21 19 l 93 42 b 128 75 110 47 121 57 l 481 989 l 517 989 l 867 74 b 901 42 874 56 885 47 m 650 353 l 468 832 l 286 353 "},"Â":{"ha":986,"x_min":0,"x_max":0,"o":"m 376 1063 l 318 1063 l 449 1258 l 551 1258 l 682 1063 l 624 1063 l 500 1201 m 965 19 l 965 0 l 610 0 l 610 19 l 726 43 b 751 86 749 47 760 63 l 668 306 l 268 306 l 183 85 b 208 43 175 63 185 49 l 319 19 l 319 0 l 21 0 l 21 19 l 93 42 b 128 75 110 47 121 57 l 481 989 l 517 989 l 867 74 b 901 42 874 56 885 47 m 650 353 l 468 832 l 286 353 "},"Ä":{"ha":986,"x_min":0,"x_max":0,"o":"m 385 1101 b 308 1178 340 1101 308 1133 b 385 1253 308 1221 340 1253 b 460 1178 428 1253 460 1221 b 385 1101 460 1133 428 1101 m 615 1101 b 539 1178 571 1101 539 1133 b 615 1253 539 1221 571 1253 b 690 1178 658 1253 690 1221 b 615 1101 690 1133 658 1101 m 965 19 l 965 0 l 610 0 l 610 19 l 726 43 b 751 86 749 47 760 63 l 668 306 l 268 306 l 183 85 b 208 43 175 63 185 49 l 319 19 l 319 0 l 21 0 l 21 19 l 93 42 b 128 75 110 47 121 57 l 481 989 l 517 989 l 867 74 b 901 42 874 56 885 47 m 650 353 l 468 832 l 286 353 "},"À":{"ha":986,"x_min":0,"x_max":0,"o":"m 481 1063 l 319 1258 l 425 1258 l 525 1063 m 965 19 l 965 0 l 610 0 l 610 19 l 726 43 b 751 86 749 47 760 63 l 668 306 l 268 306 l 183 85 b 208 43 175 63 185 49 l 319 19 l 319 0 l 21 0 l 21 19 l 93 42 b 128 75 110 47 121 57 l 481 989 l 517 989 l 867 74 b 901 42 874 56 885 47 m 650 353 l 468 832 l 286 353 "},"Ā":{"ha":986,"x_min":0,"x_max":0,"o":"m 669 1092 l 331 1092 l 331 1140 l 669 1140 m 965 19 l 965 0 l 610 0 l 610 19 l 726 43 b 751 86 749 47 760 63 l 668 306 l 268 306 l 183 85 b 208 43 175 63 185 49 l 319 19 l 319 0 l 21 0 l 21 19 l 93 42 b 128 75 110 47 121 57 l 481 989 l 517 989 l 867 74 b 901 42 874 56 885 47 m 650 353 l 468 832 l 286 353 "},"Ą":{"ha":986,"x_min":0,"x_max":0,"o":"m 851 0 b 769 -158 790 -67 769 -101 b 917 -225 769 -232 821 -258 l 924 -243 b 792 -296 882 -281 832 -296 b 663 -199 714 -296 663 -257 b 821 0 663 -112 732 -67 l 610 0 l 610 19 l 726 43 b 751 86 749 47 760 63 l 668 306 l 268 306 l 183 85 b 208 43 175 63 185 49 l 319 19 l 319 0 l 21 0 l 21 19 l 93 42 b 128 75 110 47 121 57 l 481 989 l 517 989 l 867 74 b 901 42 874 56 885 47 l 965 19 l 965 0 m 650 353 l 468 832 l 286 353 "},"Å":{"ha":986,"x_min":0,"x_max":0,"o":"m 500 1051 b 369 1175 425 1051 369 1104 b 500 1299 369 1246 425 1299 b 631 1175 575 1299 631 1246 b 500 1051 631 1104 575 1051 m 500 1260 b 419 1176 454 1260 419 1225 b 500 1090 419 1128 454 1090 b 582 1176 547 1090 582 1128 b 500 1260 582 1225 547 1260 m 965 19 l 965 0 l 610 0 l 610 19 l 726 43 b 751 86 749 47 760 63 l 668 306 l 268 306 l 183 85 b 208 43 175 63 185 49 l 319 19 l 319 0 l 21 0 l 21 19 l 93 42 b 128 75 110 47 121 57 l 481 989 l 517 989 l 867 74 b 901 42 874 56 885 47 m 650 353 l 468 832 l 286 353 "},"Ǻ":{"ha":986,"x_min":0,"x_max":0,"o":"m 500 1051 b 369 1175 425 1051 369 1104 b 467 1294 369 1235 408 1282 l 565 1489 l 671 1489 l 514 1299 b 631 1175 582 1292 631 1242 b 500 1051 631 1104 575 1051 m 500 1260 b 419 1176 454 1260 419 1225 b 500 1090 419 1128 454 1090 b 582 1176 547 1090 582 1128 b 500 1260 582 1225 547 1260 m 965 19 l 965 0 l 610 0 l 610 19 l 726 43 b 751 86 749 47 760 63 l 668 306 l 268 306 l 183 85 b 208 43 175 63 185 49 l 319 19 l 319 0 l 21 0 l 21 19 l 93 42 b 128 75 110 47 121 57 l 481 989 l 517 989 l 867 74 b 901 42 874 56 885 47 m 650 353 l 468 832 l 286 353 "},"Ã":{"ha":986,"x_min":0,"x_max":0,"o":"m 388 1175 b 333 1101 365 1175 346 1151 l 304 1104 b 418 1244 311 1185 360 1244 b 611 1168 481 1244 547 1168 b 665 1242 633 1168 653 1192 l 694 1239 b 581 1099 688 1158 639 1099 b 388 1175 518 1099 451 1175 m 965 19 l 965 0 l 610 0 l 610 19 l 726 43 b 751 86 749 47 760 63 l 668 306 l 268 306 l 183 85 b 208 43 175 63 185 49 l 319 19 l 319 0 l 21 0 l 21 19 l 93 42 b 128 75 110 47 121 57 l 481 989 l 517 989 l 867 74 b 901 42 874 56 885 47 m 650 353 l 468 832 l 286 353 "},"Æ":{"ha":1374,"x_min":0,"x_max":0,"o":"m 1339 221 l 1297 0 l 564 0 l 564 19 l 660 49 b 689 88 679 54 689 68 l 689 306 l 319 306 l 176 85 b 201 43 163 63 178 49 l 313 19 l 313 0 l 0 0 l 0 19 l 72 42 b 114 75 89 47 103 57 l 658 924 l 564 953 l 564 972 l 1267 972 l 1308 751 l 1288 751 l 1185 900 b 1144 925 1174 915 1164 925 l 792 925 l 792 556 l 1021 556 b 1060 585 1040 556 1053 564 l 1099 688 l 1119 688 l 1119 376 l 1099 376 l 1060 479 b 1021 508 1053 500 1040 508 l 792 508 l 792 88 b 839 47 792 60 810 47 l 1175 47 b 1215 72 1194 47 1204 57 l 1318 221 m 689 353 l 689 876 l 350 353 "},"Ǽ":{"ha":1374,"x_min":0,"x_max":0,"o":"m 808 1063 l 764 1063 l 864 1258 l 969 1258 m 1339 221 l 1297 0 l 564 0 l 564 19 l 660 49 b 689 88 679 54 689 68 l 689 306 l 319 306 l 176 85 b 201 43 163 63 178 49 l 313 19 l 313 0 l 0 0 l 0 19 l 72 42 b 114 75 89 47 103 57 l 658 924 l 564 953 l 564 972 l 1267 972 l 1308 751 l 1288 751 l 1185 900 b 1144 925 1174 915 1164 925 l 792 925 l 792 556 l 1021 556 b 1060 585 1040 556 1053 564 l 1099 688 l 1119 688 l 1119 376 l 1099 376 l 1060 479 b 1021 508 1053 500 1040 508 l 792 508 l 792 88 b 839 47 792 60 810 47 l 1175 47 b 1215 72 1194 47 1204 57 l 1318 221 m 689 353 l 689 876 l 350 353 "},"B":{"ha":861,"x_min":0,"x_max":0,"o":"m 432 972 b 753 743 639 972 753 892 b 538 543 753 638 676 567 b 817 260 721 515 817 403 b 482 0 817 103 697 0 l 46 0 l 46 19 l 157 56 b 185 96 176 61 185 76 l 185 876 b 156 917 185 896 175 911 l 44 953 l 44 972 l 432 972 m 288 925 l 288 556 l 408 556 b 638 743 557 556 638 622 b 393 925 638 861 551 925 m 288 508 l 288 96 b 347 47 288 67 311 47 l 474 47 b 700 260 628 47 700 117 b 438 508 700 379 625 508 "},"C":{"ha":925,"x_min":0,"x_max":0,"o":"m 46 488 b 536 989 46 775 264 989 b 842 908 660 989 767 956 l 842 729 l 821 729 b 507 940 789 853 654 940 b 167 501 301 940 167 779 b 511 74 167 239 318 74 b 840 249 682 74 792 157 l 863 236 b 492 -17 811 126 719 -17 b 46 488 238 -17 46 201 "},"Ć":{"ha":925,"x_min":0,"x_max":0,"o":"m 479 1063 l 579 1258 l 685 1258 l 524 1063 m 46 488 b 536 989 46 775 264 989 b 842 908 660 989 767 956 l 842 729 l 821 729 b 507 940 789 853 654 940 b 167 501 301 940 167 779 b 511 74 167 239 318 74 b 840 249 682 74 792 157 l 863 236 b 492 -17 811 126 719 -17 b 46 488 238 -17 46 201 "},"Č":{"ha":925,"x_min":0,"x_max":0,"o":"m 467 1063 l 336 1258 l 394 1258 l 518 1119 l 642 1258 l 700 1258 l 569 1063 m 863 236 b 492 -17 811 126 719 -17 b 46 488 238 -17 46 201 b 536 989 46 775 264 989 b 842 908 660 989 767 956 l 842 729 l 821 729 b 507 940 789 853 654 940 b 167 501 301 940 167 779 b 511 74 167 239 318 74 b 840 249 682 74 792 157 "},"Ç":{"ha":925,"x_min":0,"x_max":0,"o":"m 863 236 b 507 -17 813 129 724 -10 l 471 -78 b 560 -181 519 -89 560 -128 b 357 -285 560 -265 485 -311 l 358 -265 b 486 -201 433 -276 486 -253 b 397 -131 486 -168 457 -140 l 474 -17 b 46 488 229 -7 46 208 b 536 989 46 775 264 989 b 842 908 660 989 767 956 l 842 729 l 821 729 b 507 940 789 853 654 940 b 167 501 301 940 167 779 b 511 74 167 239 318 74 b 840 249 682 74 792 157 l 863 236 "},"Ĉ":{"ha":925,"x_min":0,"x_max":0,"o":"m 394 1063 l 336 1063 l 467 1258 l 569 1258 l 700 1063 l 642 1063 l 518 1201 m 863 236 b 492 -17 811 126 719 -17 b 46 488 238 -17 46 201 b 536 989 46 775 264 989 b 842 908 660 989 767 956 l 842 729 l 821 729 b 507 940 789 853 654 940 b 167 501 301 940 167 779 b 511 74 167 239 318 74 b 840 249 682 74 792 157 "},"Ċ":{"ha":925,"x_min":0,"x_max":0,"o":"m 518 1101 b 442 1178 474 1101 442 1133 b 518 1253 442 1221 474 1253 b 593 1178 561 1253 593 1221 b 518 1101 593 1133 561 1101 m 46 488 b 536 989 46 775 264 989 b 842 908 660 989 767 956 l 842 729 l 821 729 b 507 940 789 853 654 940 b 167 501 301 940 167 779 b 511 74 167 239 318 74 b 840 249 682 74 792 157 l 863 236 b 492 -17 811 126 719 -17 b 46 488 238 -17 46 201 "},"D":{"ha":964,"x_min":0,"x_max":0,"o":"m 431 972 b 919 519 775 972 919 765 b 451 0 919 183 685 0 l 44 0 l 44 19 l 142 57 b 169 97 160 64 169 78 l 169 875 b 142 915 169 894 160 908 l 44 953 l 44 972 l 431 972 m 451 47 b 806 486 669 47 806 204 b 407 925 806 707 672 925 l 272 925 l 272 135 b 451 47 272 60 318 47 "},"Ð":{"ha":964,"x_min":0,"x_max":0,"o":"m 431 972 b 919 519 775 972 919 765 b 451 0 919 183 685 0 l 44 0 l 44 19 l 142 57 b 169 97 160 64 169 78 l 169 465 l 14 465 l 14 507 l 169 507 l 169 875 b 142 915 169 894 160 908 l 44 953 l 44 972 l 431 972 m 451 47 b 806 486 669 47 806 204 b 407 925 806 707 672 925 l 272 925 l 272 507 l 431 507 l 431 465 l 272 465 l 272 135 b 451 47 272 60 318 47 "},"Ď":{"ha":964,"x_min":0,"x_max":0,"o":"m 403 1063 l 272 1258 l 331 1258 l 454 1119 l 578 1258 l 636 1258 l 506 1063 m 431 972 b 919 519 775 972 919 765 b 451 0 919 183 685 0 l 44 0 l 44 19 l 142 57 b 169 97 160 64 169 78 l 169 875 b 142 915 169 894 160 908 l 44 953 l 44 972 l 431 972 m 451 47 b 806 486 669 47 806 204 b 407 925 806 707 672 925 l 272 925 l 272 135 b 451 47 272 60 318 47 "},"Đ":{"ha":964,"x_min":0,"x_max":0,"o":"m 431 972 b 919 519 775 972 919 765 b 451 0 919 183 685 0 l 44 0 l 44 19 l 142 57 b 169 97 160 64 169 78 l 169 465 l 14 465 l 14 507 l 169 507 l 169 875 b 142 915 169 894 160 908 l 44 953 l 44 972 l 431 972 m 451 47 b 806 486 669 47 806 204 b 407 925 806 707 672 925 l 272 925 l 272 507 l 431 507 l 431 465 l 272 465 l 272 135 b 451 47 272 60 318 47 "},"E":{"ha":854,"x_min":0,"x_max":0,"o":"m 819 221 l 778 0 l 44 0 l 44 19 l 140 49 b 169 88 160 54 169 68 l 169 885 b 140 924 169 904 160 918 l 44 953 l 44 972 l 747 972 l 789 751 l 768 751 l 665 900 b 625 925 654 915 644 925 l 272 925 l 272 556 l 501 556 b 540 585 521 556 533 564 l 579 688 l 600 688 l 600 376 l 579 376 l 540 479 b 501 508 533 500 521 508 l 272 508 l 272 88 b 319 47 272 60 290 47 l 656 47 b 696 72 675 47 685 57 l 799 221 "},"É":{"ha":854,"x_min":0,"x_max":0,"o":"m 447 1063 l 403 1063 l 503 1258 l 608 1258 m 819 221 l 778 0 l 44 0 l 44 19 l 140 49 b 169 88 160 54 169 68 l 169 885 b 140 924 169 904 160 918 l 44 953 l 44 972 l 747 972 l 789 751 l 768 751 l 665 900 b 625 925 654 915 644 925 l 272 925 l 272 556 l 501 556 b 540 585 521 556 533 564 l 579 688 l 600 688 l 600 376 l 579 376 l 540 479 b 501 508 533 500 521 508 l 272 508 l 272 88 b 319 47 272 60 290 47 l 656 47 b 696 72 675 47 685 57 l 799 221 "},"Ĕ":{"ha":854,"x_min":0,"x_max":0,"o":"m 442 1057 b 282 1244 340 1057 283 1125 l 319 1244 b 442 1132 326 1164 382 1132 b 565 1244 501 1132 558 1164 l 601 1244 b 442 1057 600 1125 543 1057 m 819 221 l 778 0 l 44 0 l 44 19 l 140 49 b 169 88 160 54 169 68 l 169 885 b 140 924 169 904 160 918 l 44 953 l 44 972 l 747 972 l 789 751 l 768 751 l 665 900 b 625 925 654 915 644 925 l 272 925 l 272 556 l 501 556 b 540 585 521 556 533 564 l 579 688 l 600 688 l 600 376 l 579 376 l 540 479 b 501 508 533 500 521 508 l 272 508 l 272 88 b 319 47 272 60 290 47 l 656 47 b 696 72 675 47 685 57 l 799 221 "},"Ě":{"ha":854,"x_min":0,"x_max":0,"o":"m 390 1063 l 260 1258 l 318 1258 l 442 1119 l 565 1258 l 624 1258 l 493 1063 m 819 221 l 778 0 l 44 0 l 44 19 l 140 49 b 169 88 160 54 169 68 l 169 885 b 140 924 169 904 160 918 l 44 953 l 44 972 l 747 972 l 789 751 l 768 751 l 665 900 b 625 925 654 915 644 925 l 272 925 l 272 556 l 501 556 b 540 585 521 556 533 564 l 579 688 l 600 688 l 600 376 l 579 376 l 540 479 b 501 508 533 500 521 508 l 272 508 l 272 88 b 319 47 272 60 290 47 l 656 47 b 696 72 675 47 685 57 l 799 221 "},"Ê":{"ha":854,"x_min":0,"x_max":0,"o":"m 318 1063 l 260 1063 l 390 1258 l 493 1258 l 624 1063 l 565 1063 l 442 1201 m 819 221 l 778 0 l 44 0 l 44 19 l 140 49 b 169 88 160 54 169 68 l 169 885 b 140 924 169 904 160 918 l 44 953 l 44 972 l 747 972 l 789 751 l 768 751 l 665 900 b 625 925 654 915 644 925 l 272 925 l 272 556 l 501 556 b 540 585 521 556 533 564 l 579 688 l 600 688 l 600 376 l 579 376 l 540 479 b 501 508 533 500 521 508 l 272 508 l 272 88 b 319 47 272 60 290 47 l 656 47 b 696 72 675 47 685 57 l 799 221 "},"Ë":{"ha":854,"x_min":0,"x_max":0,"o":"m 326 1101 b 250 1178 282 1101 250 1133 b 326 1253 250 1221 282 1253 b 401 1178 369 1253 401 1221 b 326 1101 401 1133 369 1101 m 557 1101 b 481 1178 513 1101 481 1133 b 557 1253 481 1221 513 1253 b 632 1178 600 1253 632 1221 b 557 1101 632 1133 600 1101 m 819 221 l 778 0 l 44 0 l 44 19 l 140 49 b 169 88 160 54 169 68 l 169 885 b 140 924 169 904 160 918 l 44 953 l 44 972 l 747 972 l 789 751 l 768 751 l 665 900 b 625 925 654 915 644 925 l 272 925 l 272 556 l 501 556 b 540 585 521 556 533 564 l 579 688 l 600 688 l 600 376 l 579 376 l 540 479 b 501 508 533 500 521 508 l 272 508 l 272 88 b 319 47 272 60 290 47 l 656 47 b 696 72 675 47 685 57 l 799 221 "},"Ė":{"ha":854,"x_min":0,"x_max":0,"o":"m 442 1101 b 365 1178 397 1101 365 1133 b 442 1253 365 1221 397 1253 b 517 1178 485 1253 517 1221 b 442 1101 517 1133 485 1101 m 819 221 l 778 0 l 44 0 l 44 19 l 140 49 b 169 88 160 54 169 68 l 169 885 b 140 924 169 904 160 918 l 44 953 l 44 972 l 747 972 l 789 751 l 768 751 l 665 900 b 625 925 654 915 644 925 l 272 925 l 272 556 l 501 556 b 540 585 521 556 533 564 l 579 688 l 600 688 l 600 376 l 579 376 l 540 479 b 501 508 533 500 521 508 l 272 508 l 272 88 b 319 47 272 60 290 47 l 656 47 b 696 72 675 47 685 57 l 799 221 "},"È":{"ha":854,"x_min":0,"x_max":0,"o":"m 422 1063 l 261 1258 l 367 1258 l 467 1063 m 819 221 l 778 0 l 44 0 l 44 19 l 140 49 b 169 88 160 54 169 68 l 169 885 b 140 924 169 904 160 918 l 44 953 l 44 972 l 747 972 l 789 751 l 768 751 l 665 900 b 625 925 654 915 644 925 l 272 925 l 272 556 l 501 556 b 540 585 521 556 533 564 l 579 688 l 600 688 l 600 376 l 579 376 l 540 479 b 501 508 533 500 521 508 l 272 508 l 272 88 b 319 47 272 60 290 47 l 656 47 b 696 72 675 47 685 57 l 799 221 "},"Ē":{"ha":854,"x_min":0,"x_max":0,"o":"m 611 1092 l 272 1092 l 272 1140 l 611 1140 m 819 221 l 778 0 l 44 0 l 44 19 l 140 49 b 169 88 160 54 169 68 l 169 885 b 140 924 169 904 160 918 l 44 953 l 44 972 l 747 972 l 789 751 l 768 751 l 665 900 b 625 925 654 915 644 925 l 272 925 l 272 556 l 501 556 b 540 585 521 556 533 564 l 579 688 l 600 688 l 600 376 l 579 376 l 540 479 b 501 508 533 500 521 508 l 272 508 l 272 88 b 319 47 272 60 290 47 l 656 47 b 696 72 675 47 685 57 l 799 221 "},"Ę":{"ha":854,"x_min":0,"x_max":0,"o":"m 668 0 b 586 -157 607 -67 586 -100 b 733 -224 586 -231 638 -257 l 740 -242 b 608 -294 699 -279 649 -294 b 479 -197 531 -294 479 -256 b 636 0 479 -112 547 -65 l 44 0 l 44 19 l 140 49 b 169 88 160 54 169 68 l 169 885 b 140 924 169 904 160 918 l 44 953 l 44 972 l 747 972 l 789 751 l 768 751 l 665 900 b 625 925 654 915 644 925 l 272 925 l 272 556 l 501 556 b 540 585 521 556 533 564 l 579 688 l 600 688 l 600 376 l 579 376 l 540 479 b 501 508 533 500 521 508 l 272 508 l 272 88 b 319 47 272 60 290 47 l 656 47 b 696 72 675 47 685 57 l 799 221 l 819 221 l 778 0 "},"F":{"ha":796,"x_min":0,"x_max":0,"o":"m 761 751 l 740 751 l 638 900 b 597 925 626 915 617 925 l 272 925 l 272 556 l 474 556 b 513 585 493 556 506 564 l 551 688 l 572 688 l 572 376 l 551 376 l 513 479 b 474 508 506 500 493 508 l 272 508 l 272 88 b 301 49 272 68 282 53 l 425 19 l 425 0 l 44 0 l 44 19 l 140 49 b 169 88 160 54 169 68 l 169 885 b 140 924 169 904 160 918 l 44 953 l 44 972 l 719 972 "},"G":{"ha":992,"x_min":0,"x_max":0,"o":"m 810 729 b 514 943 761 871 635 943 b 163 504 306 943 163 778 b 522 39 163 257 306 39 b 765 204 657 39 765 94 l 765 396 b 736 435 765 417 756 429 l 629 463 l 629 483 l 953 483 l 953 463 l 888 435 b 858 396 868 426 858 417 l 858 213 b 892 176 858 192 871 176 l 925 176 l 925 156 b 486 -17 796 68 669 -17 b 46 463 231 -17 46 185 b 521 989 46 769 254 989 b 831 908 643 989 751 961 l 831 729 l 810 729 "},"Ğ":{"ha":992,"x_min":0,"x_max":0,"o":"m 510 1057 b 350 1244 408 1057 351 1125 l 388 1244 b 510 1132 394 1164 450 1132 b 633 1244 569 1132 626 1164 l 669 1244 b 510 1057 668 1125 611 1057 m 810 729 b 514 943 761 871 635 943 b 163 504 306 943 163 778 b 522 39 163 257 306 39 b 765 204 657 39 765 94 l 765 396 b 736 435 765 417 756 429 l 629 463 l 629 483 l 953 483 l 953 463 l 888 435 b 858 396 868 426 858 417 l 858 213 b 892 176 858 192 871 176 l 925 176 l 925 156 b 486 -17 796 68 669 -17 b 46 463 231 -17 46 185 b 521 989 46 769 254 989 b 831 908 643 989 751 961 l 831 729 l 810 729 "},"Ĝ":{"ha":992,"x_min":0,"x_max":0,"o":"m 386 1063 l 328 1063 l 458 1258 l 561 1258 l 692 1063 l 633 1063 l 510 1201 m 888 435 b 858 396 868 426 858 417 l 858 213 b 892 176 858 192 871 176 l 925 176 l 925 156 b 486 -17 796 68 669 -17 b 46 463 231 -17 46 185 b 521 989 46 769 254 989 b 831 908 643 989 751 961 l 831 729 l 810 729 b 514 943 761 871 635 943 b 163 504 306 943 163 778 b 522 39 163 257 306 39 b 765 204 657 39 765 94 l 765 396 b 736 435 765 417 756 429 l 629 463 l 629 483 l 953 483 l 953 463 l 888 435 "},"Ģ":{"ha":992,"x_min":0,"x_max":0,"o":"m 810 729 b 514 943 761 871 635 943 b 163 504 306 943 163 778 b 522 39 163 257 306 39 b 765 204 657 39 765 94 l 765 396 b 736 435 765 417 756 429 l 629 463 l 629 483 l 953 483 l 953 463 l 888 435 b 858 396 868 426 858 417 l 858 213 b 892 176 858 192 871 176 l 925 176 l 925 156 b 486 -17 796 68 669 -17 b 46 463 231 -17 46 185 b 521 989 46 769 254 989 b 831 908 643 989 751 961 l 831 729 l 810 729 m 549 -60 b 458 -294 569 -129 536 -217 l 438 -281 b 461 -68 469 -219 482 -132 l 549 -60 "},"Ġ":{"ha":992,"x_min":0,"x_max":0,"o":"m 510 1101 b 433 1178 465 1101 433 1133 b 510 1253 433 1221 465 1253 b 585 1178 553 1253 585 1221 b 510 1101 585 1133 553 1101 m 810 729 b 514 943 761 871 635 943 b 163 504 306 943 163 778 b 522 39 163 257 306 39 b 765 204 657 39 765 94 l 765 396 b 736 435 765 417 756 429 l 629 463 l 629 483 l 953 483 l 953 463 l 888 435 b 858 396 868 426 858 417 l 858 213 b 892 176 858 192 871 176 l 925 176 l 925 156 b 486 -17 796 68 669 -17 b 46 463 231 -17 46 185 b 521 989 46 769 254 989 b 831 908 643 989 751 961 l 831 729 l 810 729 "},"H":{"ha":1050,"x_min":0,"x_max":0,"o":"m 910 924 b 881 885 890 918 881 904 l 881 88 b 910 49 881 68 890 54 l 1006 19 l 1006 0 l 653 0 l 653 19 l 749 49 b 778 88 768 54 778 68 l 778 475 l 272 475 l 272 88 b 301 49 272 68 282 54 l 397 19 l 397 0 l 44 0 l 44 19 l 140 49 b 169 88 160 54 169 68 l 169 885 b 140 924 169 904 160 918 l 44 953 l 44 972 l 397 972 l 397 953 l 301 924 b 272 885 282 918 272 904 l 272 522 l 778 522 l 778 885 b 749 924 778 904 768 918 l 653 953 l 653 972 l 1006 972 l 1006 953 l 910 924 "},"Ħ":{"ha":1050,"x_min":0,"x_max":0,"o":"m 910 924 b 881 885 890 918 881 904 l 881 746 l 976 746 l 976 704 l 881 704 l 881 88 b 910 49 881 68 890 54 l 1006 19 l 1006 0 l 653 0 l 653 19 l 749 49 b 778 88 768 54 778 68 l 778 475 l 272 475 l 272 88 b 301 49 272 68 282 54 l 397 19 l 397 0 l 44 0 l 44 19 l 140 49 b 169 88 160 54 169 68 l 169 704 l 74 704 l 74 746 l 169 746 l 169 885 b 140 924 169 904 160 918 l 44 953 l 44 972 l 397 972 l 397 953 l 301 924 b 272 885 282 918 272 904 l 272 746 l 778 746 l 778 885 b 749 924 778 904 768 918 l 653 953 l 653 972 l 1006 972 l 1006 953 l 910 924 m 778 704 l 272 704 l 272 522 l 778 522 "},"Ĥ":{"ha":1050,"x_min":0,"x_max":0,"o":"m 401 1063 l 343 1063 l 474 1258 l 576 1258 l 707 1063 l 649 1063 l 525 1201 m 910 924 b 881 885 890 918 881 904 l 881 88 b 910 49 881 68 890 54 l 1006 19 l 1006 0 l 653 0 l 653 19 l 749 49 b 778 88 768 54 778 68 l 778 475 l 272 475 l 272 88 b 301 49 272 68 282 54 l 397 19 l 397 0 l 44 0 l 44 19 l 140 49 b 169 88 160 54 169 68 l 169 885 b 140 924 169 904 160 918 l 44 953 l 44 972 l 397 972 l 397 953 l 301 924 b 272 885 282 918 272 904 l 272 522 l 778 522 l 778 885 b 749 924 778 904 768 918 l 653 953 l 653 972 l 1006 972 l 1006 953 l 910 924 "},"I":{"ha":442,"x_min":0,"x_max":0,"o":"m 44 19 l 140 49 b 169 88 160 54 169 68 l 169 885 b 140 924 169 904 160 918 l 44 953 l 44 972 l 397 972 l 397 953 l 301 924 b 272 885 282 918 272 904 l 272 88 b 301 49 272 68 282 54 l 397 19 l 397 0 l 44 0 "},"Ĳ":{"ha":1163,"x_min":0,"x_max":0,"o":"m 44 972 l 397 972 l 397 953 l 301 924 b 272 885 282 918 272 904 l 272 88 b 301 49 272 68 282 54 l 397 19 l 397 0 l 44 0 l 44 19 l 140 49 b 169 88 160 54 169 68 l 169 885 b 140 924 169 904 160 918 l 44 953 m 1118 972 l 1118 953 l 1022 924 b 993 885 1003 918 993 904 l 993 272 b 729 -17 993 76 893 -17 b 463 213 582 -17 483 50 l 589 213 b 738 24 596 115 650 24 b 890 249 826 24 890 92 l 890 885 b 861 924 890 904 881 918 l 765 953 l 765 972 "},"Í":{"ha":442,"x_min":0,"x_max":0,"o":"m 182 1063 l 282 1258 l 388 1258 l 226 1063 m 44 19 l 140 49 b 169 88 160 54 169 68 l 169 885 b 140 924 169 904 160 918 l 44 953 l 44 972 l 397 972 l 397 953 l 301 924 b 272 885 282 918 272 904 l 272 88 b 301 49 272 68 282 54 l 397 19 l 397 0 l 44 0 "},"Ĭ":{"ha":442,"x_min":0,"x_max":0,"o":"m 221 1057 b 61 1244 119 1057 63 1125 l 99 1244 b 221 1132 106 1164 161 1132 b 344 1244 281 1132 338 1164 l 381 1244 b 221 1057 379 1125 322 1057 m 44 19 l 140 49 b 169 88 160 54 169 68 l 169 885 b 140 924 169 904 160 918 l 44 953 l 44 972 l 397 972 l 397 953 l 301 924 b 272 885 282 918 272 904 l 272 88 b 301 49 272 68 282 54 l 397 19 l 397 0 l 44 0 "},"Î":{"ha":442,"x_min":0,"x_max":0,"o":"m 97 1063 l 39 1063 l 169 1258 l 272 1258 l 403 1063 l 344 1063 l 221 1201 m 44 972 l 397 972 l 397 953 l 301 924 b 272 885 282 918 272 904 l 272 88 b 301 49 272 68 282 54 l 397 19 l 397 0 l 44 0 l 44 19 l 140 49 b 169 88 160 54 169 68 l 169 885 b 140 924 169 904 160 918 l 44 953 "},"Ï":{"ha":442,"x_min":0,"x_max":0,"o":"m 106 1101 b 29 1178 61 1101 29 1133 b 106 1253 29 1221 61 1253 b 181 1178 149 1253 181 1221 b 106 1101 181 1133 149 1101 m 336 1101 b 260 1178 292 1101 260 1133 b 336 1253 260 1221 292 1253 b 411 1178 379 1253 411 1221 b 336 1101 411 1133 379 1101 m 44 19 l 140 49 b 169 88 160 54 169 68 l 169 885 b 140 924 169 904 160 918 l 44 953 l 44 972 l 397 972 l 397 953 l 301 924 b 272 885 282 918 272 904 l 272 88 b 301 49 272 68 282 54 l 397 19 l 397 0 l 44 0 "},"İ":{"ha":442,"x_min":0,"x_max":0,"o":"m 221 1101 b 144 1178 176 1101 144 1133 b 221 1253 144 1221 176 1253 b 296 1178 264 1253 296 1221 b 221 1101 296 1133 264 1101 m 44 19 l 140 49 b 169 88 160 54 169 68 l 169 885 b 140 924 169 904 160 918 l 44 953 l 44 972 l 397 972 l 397 953 l 301 924 b 272 885 282 918 272 904 l 272 88 b 301 49 272 68 282 54 l 397 19 l 397 0 l 44 0 "},"Ì":{"ha":442,"x_min":0,"x_max":0,"o":"m 40 1258 l 146 1258 l 246 1063 l 201 1063 m 44 19 l 140 49 b 169 88 160 54 169 68 l 169 885 b 140 924 169 904 160 918 l 44 953 l 44 972 l 397 972 l 397 953 l 301 924 b 272 885 282 918 272 904 l 272 88 b 301 49 272 68 282 54 l 397 19 l 397 0 l 44 0 "},"Ī":{"ha":442,"x_min":0,"x_max":0,"o":"m 51 1140 l 390 1140 l 390 1092 l 51 1092 m 44 19 l 140 49 b 169 88 160 54 169 68 l 169 885 b 140 924 169 904 160 918 l 44 953 l 44 972 l 397 972 l 397 953 l 301 924 b 272 885 282 918 272 904 l 272 88 b 301 49 272 68 282 54 l 397 19 l 397 0 l 44 0 "},"Į":{"ha":442,"x_min":0,"x_max":0,"o":"m 301 924 b 272 885 282 918 272 904 l 272 88 b 301 49 272 68 282 54 l 397 19 l 397 0 l 272 0 b 190 -157 211 -67 190 -100 b 338 -224 190 -231 242 -257 l 344 -242 b 213 -294 303 -279 253 -294 b 83 -197 135 -294 83 -256 b 240 0 83 -112 151 -65 l 44 0 l 44 19 l 140 49 b 169 88 160 54 169 68 l 169 885 b 140 924 169 904 160 918 l 44 953 l 44 972 l 397 972 l 397 953 l 301 924 "},"Ĩ":{"ha":442,"x_min":0,"x_max":0,"o":"m 25 1104 b 139 1244 32 1185 81 1244 b 332 1168 201 1244 268 1168 b 386 1242 354 1168 374 1192 l 415 1239 b 301 1099 408 1158 360 1099 b 108 1175 239 1099 172 1175 b 54 1101 86 1175 67 1151 l 25 1104 m 44 19 l 140 49 b 169 88 160 54 169 68 l 169 885 b 140 924 169 904 160 918 l 44 953 l 44 972 l 397 972 l 397 953 l 301 924 b 272 885 282 918 272 904 l 272 88 b 301 49 272 68 282 54 l 397 19 l 397 0 l 44 0 "},"J":{"ha":721,"x_min":0,"x_max":0,"o":"m 676 972 l 676 953 l 581 924 b 551 885 561 918 551 904 l 551 272 b 288 -17 551 76 451 -17 b 21 213 140 -17 42 50 l 147 213 b 296 24 154 115 208 24 b 449 249 385 24 449 92 l 449 885 b 419 924 449 904 439 918 l 324 953 l 324 972 "},"Ĵ":{"ha":721,"x_min":0,"x_max":0,"o":"m 376 1063 l 318 1063 l 449 1258 l 551 1258 l 682 1063 l 624 1063 l 500 1201 m 324 972 l 676 972 l 676 953 l 581 924 b 551 885 561 918 551 904 l 551 272 b 288 -17 551 76 451 -17 b 21 213 140 -17 42 50 l 147 213 b 296 24 154 115 208 24 b 449 249 385 24 449 92 l 449 885 b 419 924 449 904 439 918 l 324 953 "},"K":{"ha":958,"x_min":0,"x_max":0,"o":"m 938 19 l 938 0 l 583 0 l 583 21 l 656 44 b 669 90 679 53 686 69 l 364 454 b 321 475 353 468 339 475 l 272 475 l 272 88 b 301 49 272 68 282 54 l 397 19 l 397 0 l 44 0 l 44 19 l 140 49 b 169 88 160 54 169 68 l 169 885 b 140 924 169 904 160 918 l 44 953 l 44 972 l 397 972 l 397 953 l 301 924 b 272 885 282 918 272 904 l 272 522 l 311 522 b 354 542 329 522 342 529 l 669 890 b 656 936 688 911 682 931 l 581 953 l 581 972 l 869 972 l 869 953 l 792 932 b 753 910 776 928 764 922 l 422 553 l 824 71 b 860 43 835 57 844 47 "},"Ķ":{"ha":958,"x_min":0,"x_max":0,"o":"m 938 19 l 938 0 l 583 0 l 583 21 l 656 44 b 669 90 679 53 686 69 l 364 454 b 321 475 353 468 339 475 l 272 475 l 272 88 b 301 49 272 68 282 54 l 397 19 l 397 0 l 44 0 l 44 19 l 140 49 b 169 88 160 54 169 68 l 169 885 b 140 924 169 904 160 918 l 44 953 l 44 972 l 397 972 l 397 953 l 301 924 b 272 885 282 918 272 904 l 272 522 l 311 522 b 354 542 329 522 342 529 l 669 890 b 656 936 688 911 682 931 l 581 953 l 581 972 l 869 972 l 869 953 l 792 932 b 753 910 776 928 764 922 l 422 553 l 824 71 b 860 43 835 57 844 47 m 490 -60 b 400 -294 511 -129 478 -217 l 379 -281 b 403 -68 411 -219 424 -132 "},"L":{"ha":799,"x_min":0,"x_max":0,"o":"m 764 221 l 722 0 l 44 0 l 44 19 l 140 49 b 169 88 160 54 169 68 l 169 885 b 140 924 169 904 160 918 l 44 953 l 44 972 l 397 972 l 397 953 l 301 924 b 272 885 282 918 272 904 l 272 88 b 319 47 272 60 290 47 l 600 47 b 640 72 619 47 629 57 l 743 221 "},"Ĺ":{"ha":799,"x_min":0,"x_max":0,"o":"m 218 1063 l 174 1063 l 274 1258 l 379 1258 m 764 221 l 722 0 l 44 0 l 44 19 l 140 49 b 169 88 160 54 169 68 l 169 885 b 140 924 169 904 160 918 l 44 953 l 44 972 l 397 972 l 397 953 l 301 924 b 272 885 282 918 272 904 l 272 88 b 319 47 272 60 290 47 l 600 47 b 640 72 619 47 629 57 l 743 221 "},"Ľ":{"ha":799,"x_min":0,"x_max":0,"o":"m 493 818 l 457 818 l 485 1051 l 572 1051 m 764 221 l 722 0 l 44 0 l 44 19 l 140 49 b 169 88 160 54 169 68 l 169 885 b 140 924 169 904 160 918 l 44 953 l 44 972 l 397 972 l 397 953 l 301 924 b 272 885 282 918 272 904 l 272 88 b 319 47 272 60 290 47 l 600 47 b 640 72 619 47 629 57 l 743 221 "},"Ļ":{"ha":799,"x_min":0,"x_max":0,"o":"m 764 221 l 722 0 l 44 0 l 44 19 l 140 49 b 169 88 160 54 169 68 l 169 885 b 140 924 169 904 160 918 l 44 953 l 44 972 l 397 972 l 397 953 l 301 924 b 272 885 282 918 272 904 l 272 88 b 319 47 272 60 290 47 l 600 47 b 640 72 619 47 629 57 l 743 221 m 422 -60 b 332 -294 443 -129 410 -217 l 311 -281 b 335 -68 343 -219 356 -132 "},"Ŀ":{"ha":799,"x_min":0,"x_max":0,"o":"m 764 221 l 722 0 l 44 0 l 44 19 l 140 49 b 169 88 160 54 169 68 l 169 885 b 140 924 169 904 160 918 l 44 953 l 44 972 l 397 972 l 397 953 l 301 924 b 272 885 282 918 272 904 l 272 88 b 319 47 272 60 290 47 l 600 47 b 640 72 619 47 629 57 l 743 221 m 558 396 b 474 481 511 396 474 432 b 558 565 474 528 511 565 b 643 481 610 565 643 528 b 558 396 643 432 606 396 "},"Ł":{"ha":799,"x_min":0,"x_max":0,"o":"m 764 221 l 722 0 l 44 0 l 44 19 l 140 49 b 169 88 160 54 169 68 l 169 403 l -1 318 l -21 356 l 169 449 l 169 885 b 140 924 169 904 160 918 l 44 953 l 44 972 l 397 972 l 397 953 l 301 924 b 272 885 282 918 272 904 l 272 500 l 588 654 l 606 617 l 272 453 l 272 88 b 319 47 272 60 290 47 l 600 47 b 640 72 619 47 629 57 l 743 221 "},"M":{"ha":1315,"x_min":0,"x_max":0,"o":"m 21 19 l 108 49 b 139 88 126 54 136 67 l 239 889 b 210 928 242 910 229 922 l 126 953 l 126 972 l 349 972 l 654 313 l 975 972 l 1192 972 l 1192 953 l 1092 928 b 1063 888 1072 922 1060 910 l 1161 88 b 1192 50 1164 67 1174 56 l 1294 19 l 1294 0 l 944 0 l 944 19 l 1032 49 b 1058 89 1051 56 1061 68 l 964 840 l 639 167 l 604 167 l 285 840 l 192 89 b 218 49 189 68 199 54 l 317 19 l 317 0 l 21 0 "},"N":{"ha":979,"x_min":0,"x_max":0,"o":"m 935 972 l 935 953 l 856 921 b 829 881 838 914 829 900 l 829 0 l 767 0 l 217 842 l 217 93 b 246 53 217 74 226 58 l 357 19 l 357 0 l 64 0 l 64 19 l 143 51 b 169 92 161 58 169 72 l 169 896 b 83 939 146 915 117 928 l 44 953 l 44 972 l 253 972 l 782 165 l 782 879 b 753 919 782 899 772 914 l 642 953 l 642 972 "},"Ń":{"ha":979,"x_min":0,"x_max":0,"o":"m 497 1063 l 453 1063 l 553 1258 l 658 1258 m 935 972 l 935 953 l 856 921 b 829 881 838 914 829 900 l 829 0 l 767 0 l 217 842 l 217 93 b 246 53 217 74 226 58 l 357 19 l 357 0 l 64 0 l 64 19 l 143 51 b 169 92 161 58 169 72 l 169 896 b 83 939 146 915 117 928 l 44 953 l 44 972 l 253 972 l 782 165 l 782 879 b 753 919 782 899 772 914 l 642 953 l 642 972 "},"Ň":{"ha":979,"x_min":0,"x_max":0,"o":"m 440 1063 l 310 1258 l 368 1258 l 492 1119 l 615 1258 l 674 1258 l 543 1063 m 935 972 l 935 953 l 856 921 b 829 881 838 914 829 900 l 829 0 l 767 0 l 217 842 l 217 93 b 246 53 217 74 226 58 l 357 19 l 357 0 l 64 0 l 64 19 l 143 51 b 169 92 161 58 169 72 l 169 896 b 83 939 146 915 117 928 l 44 953 l 44 972 l 253 972 l 782 165 l 782 879 b 753 919 782 899 772 914 l 642 953 l 642 972 "},"Ņ":{"ha":979,"x_min":0,"x_max":0,"o":"m 935 972 l 935 953 l 856 921 b 829 881 838 914 829 900 l 829 0 l 767 0 l 217 842 l 217 93 b 246 53 217 74 226 58 l 357 19 l 357 0 l 64 0 l 64 19 l 143 51 b 169 92 161 58 169 72 l 169 896 b 83 939 146 915 117 928 l 44 953 l 44 972 l 253 972 l 782 165 l 782 879 b 753 919 782 899 772 914 l 642 953 l 642 972 m 529 -60 b 439 -294 550 -129 517 -217 l 418 -281 b 442 -68 450 -219 463 -132 "},"Ŋ":{"ha":979,"x_min":0,"x_max":0,"o":"m 935 972 l 935 953 l 856 921 b 829 881 838 914 829 900 l 829 -17 b 607 -307 829 -214 757 -307 b 354 -111 458 -307 375 -251 l 467 -111 b 615 -269 474 -194 524 -269 b 767 -78 704 -269 767 -208 b 729 56 767 -25 754 19 l 731 56 l 217 842 l 217 93 b 246 53 217 74 226 58 l 357 19 l 357 0 l 64 0 l 64 19 l 143 51 b 169 92 161 58 169 72 l 169 896 b 83 939 146 915 117 928 l 44 953 l 44 972 l 253 972 l 782 165 l 782 879 b 753 919 782 899 772 914 l 642 953 l 642 972 "},"Ñ":{"ha":979,"x_min":0,"x_max":0,"o":"m 379 1175 b 325 1101 357 1175 338 1151 l 296 1104 b 410 1244 303 1185 351 1244 b 603 1168 472 1244 539 1168 b 657 1242 625 1168 644 1192 l 686 1239 b 572 1099 679 1158 631 1099 b 379 1175 510 1099 443 1175 m 935 972 l 935 953 l 856 921 b 829 881 838 914 829 900 l 829 0 l 767 0 l 217 842 l 217 93 b 246 53 217 74 226 58 l 357 19 l 357 0 l 64 0 l 64 19 l 143 51 b 169 92 161 58 169 72 l 169 896 b 83 939 146 915 117 928 l 44 953 l 44 972 l 253 972 l 782 165 l 782 879 b 753 919 782 899 772 914 l 642 953 l 642 972 "},"O":{"ha":964,"x_min":0,"x_max":0,"o":"m 486 989 b 911 507 757 989 911 769 b 479 -17 911 186 714 -17 b 53 465 207 -17 53 204 b 486 989 53 786 250 989 m 421 936 b 167 457 218 915 140 703 b 542 38 190 242 311 13 b 796 515 746 58 824 269 b 421 936 772 732 653 961 "},"Ó":{"ha":964,"x_min":0,"x_max":0,"o":"m 442 1063 l 542 1258 l 647 1258 l 486 1063 m 486 989 b 911 507 757 989 911 769 b 479 -17 911 186 714 -17 b 53 465 207 -17 53 204 b 486 989 53 786 250 989 m 421 936 b 167 457 218 915 140 703 b 542 38 190 242 311 13 b 796 515 746 58 824 269 b 421 936 772 732 653 961 "},"Ŏ":{"ha":964,"x_min":0,"x_max":0,"o":"m 481 1057 b 321 1244 379 1057 322 1125 l 358 1244 b 481 1132 365 1164 421 1132 b 604 1244 540 1132 597 1164 l 640 1244 b 481 1057 639 1125 582 1057 m 486 989 b 911 507 757 989 911 769 b 479 -17 911 186 714 -17 b 53 465 207 -17 53 204 b 486 989 53 786 250 989 m 421 936 b 167 457 218 915 140 703 b 542 38 190 242 311 13 b 796 515 746 58 824 269 b 421 936 772 732 653 961 "},"Ô":{"ha":964,"x_min":0,"x_max":0,"o":"m 357 1063 l 299 1063 l 429 1258 l 532 1258 l 663 1063 l 604 1063 l 481 1201 m 486 989 b 911 507 757 989 911 769 b 479 -17 911 186 714 -17 b 53 465 207 -17 53 204 b 486 989 53 786 250 989 m 542 38 b 796 515 746 58 824 269 b 421 936 772 732 653 961 b 167 457 218 915 140 703 b 542 38 190 242 311 13 "},"Ö":{"ha":964,"x_min":0,"x_max":0,"o":"m 365 1101 b 289 1178 321 1101 289 1133 b 365 1253 289 1221 321 1253 b 440 1178 408 1253 440 1221 b 365 1101 440 1133 408 1101 m 596 1101 b 519 1178 551 1101 519 1133 b 596 1253 519 1221 551 1253 b 671 1178 639 1253 671 1221 b 596 1101 671 1133 639 1101 m 486 989 b 911 507 757 989 911 769 b 479 -17 911 186 714 -17 b 53 465 207 -17 53 204 b 486 989 53 786 250 989 m 421 936 b 167 457 218 915 140 703 b 542 38 190 242 311 13 b 796 515 746 58 824 269 b 421 936 772 732 653 961 "},"Ò":{"ha":964,"x_min":0,"x_max":0,"o":"m 300 1258 l 406 1258 l 506 1063 l 461 1063 m 486 989 b 911 507 757 989 911 769 b 479 -17 911 186 714 -17 b 53 465 207 -17 53 204 b 486 989 53 786 250 989 m 421 936 b 167 457 218 915 140 703 b 542 38 190 242 311 13 b 796 515 746 58 824 269 b 421 936 772 732 653 961 "},"Ő":{"ha":964,"x_min":0,"x_max":0,"o":"m 363 1063 l 463 1258 l 554 1258 l 407 1063 m 514 1063 l 614 1258 l 706 1258 l 558 1063 m 486 989 b 911 507 757 989 911 769 b 479 -17 911 186 714 -17 b 53 465 207 -17 53 204 b 486 989 53 786 250 989 m 421 936 b 167 457 218 915 140 703 b 542 38 190 242 311 13 b 796 515 746 58 824 269 b 421 936 772 732 653 961 "},"Ō":{"ha":964,"x_min":0,"x_max":0,"o":"m 311 1140 l 650 1140 l 650 1092 l 311 1092 m 486 989 b 911 507 757 989 911 769 b 479 -17 911 186 714 -17 b 53 465 207 -17 53 204 b 486 989 53 786 250 989 m 421 936 b 167 457 218 915 140 703 b 542 38 190 242 311 13 b 796 515 746 58 824 269 b 421 936 772 732 653 961 "},"Ø":{"ha":964,"x_min":0,"x_max":0,"o":"m 754 893 b 911 507 856 806 911 664 b 479 -17 911 186 714 -17 b 244 53 386 -17 308 8 l 182 -50 l 149 -29 l 213 76 b 53 465 108 165 53 308 b 486 989 53 786 250 989 b 724 918 579 989 660 963 l 794 1035 l 828 1015 l 754 893 m 167 457 b 268 168 178 354 211 249 l 672 833 b 421 936 611 904 528 947 b 167 457 218 915 140 703 m 542 38 b 796 515 746 58 824 269 b 697 801 785 617 753 721 l 294 136 b 542 38 356 67 438 26 "},"Õ":{"ha":964,"x_min":0,"x_max":0,"o":"m 285 1104 b 399 1244 292 1185 340 1244 b 592 1168 461 1244 528 1168 b 646 1242 614 1168 633 1192 l 675 1239 b 561 1099 668 1158 619 1099 b 368 1175 499 1099 432 1175 b 314 1101 346 1175 326 1151 l 285 1104 m 486 989 b 911 507 757 989 911 769 b 479 -17 911 186 714 -17 b 53 465 207 -17 53 204 b 486 989 53 786 250 989 m 421 936 b 167 457 218 915 140 703 b 542 38 190 242 311 13 b 796 515 746 58 824 269 b 421 936 772 732 653 961 "},"Œ":{"ha":1329,"x_min":0,"x_max":0,"o":"m 1253 0 l 614 0 b 482 -21 572 -14 528 -21 b 53 465 208 -21 53 201 b 489 993 53 789 251 993 b 628 972 539 993 586 986 l 1222 972 l 1264 751 l 1243 751 l 1140 900 b 1100 925 1129 915 1119 925 l 747 925 l 747 556 l 976 556 b 1015 585 996 556 1008 564 l 1054 688 l 1075 688 l 1075 376 l 1054 376 l 1015 479 b 976 508 1008 500 996 508 l 747 508 l 747 88 b 794 47 747 60 765 47 l 1131 47 b 1171 72 1150 47 1160 57 l 1274 221 l 1294 221 m 167 485 b 507 29 171 265 272 24 b 638 63 557 31 600 43 b 644 88 642 69 644 78 l 644 885 l 644 889 b 464 943 596 924 536 944 b 167 485 258 940 163 733 "},"P":{"ha":792,"x_min":0,"x_max":0,"o":"m 438 972 b 764 708 628 972 764 903 b 438 444 764 531 628 444 l 272 444 l 272 88 b 301 49 272 68 282 53 l 425 19 l 425 0 l 44 0 l 44 19 l 140 49 b 169 88 160 54 169 68 l 169 885 b 140 924 169 904 160 918 l 44 953 l 44 972 l 438 972 m 406 492 b 650 708 571 492 650 572 b 406 925 650 846 571 925 l 272 925 l 272 492 l 406 492 "},"Þ":{"ha":782,"x_min":0,"x_max":0,"o":"m 411 772 b 738 501 601 772 738 690 b 411 231 738 314 601 231 l 272 231 l 272 88 b 301 49 272 68 282 54 l 397 19 l 397 0 l 44 0 l 44 19 l 140 49 b 169 88 160 54 169 68 l 169 885 b 140 924 169 904 160 918 l 44 953 l 44 972 l 397 972 l 397 953 l 301 924 b 272 885 282 918 272 904 l 272 772 l 411 772 m 379 278 b 624 501 544 278 624 369 b 379 725 624 635 544 725 l 272 725 l 272 278 l 379 278 "},"Q":{"ha":964,"x_min":0,"x_max":0,"o":"m 942 -68 b 613 6 796 -160 699 -86 b 479 -17 569 -8 525 -17 b 53 465 207 -17 53 204 b 486 989 53 786 250 989 b 911 507 757 989 911 769 b 690 44 911 290 821 128 b 935 -49 764 -32 839 -90 m 167 457 b 254 189 176 363 206 267 b 660 78 436 332 549 199 b 796 515 775 154 818 325 b 421 936 772 732 653 961 b 167 457 218 915 140 703 m 542 38 b 578 43 554 39 567 40 b 268 168 486 146 400 249 b 542 38 331 81 421 25 "},"R":{"ha":935,"x_min":0,"x_max":0,"o":"m 801 83 b 914 19 826 44 868 19 l 914 0 l 732 0 l 489 379 b 338 458 450 439 401 458 l 272 458 l 272 88 b 301 49 272 68 282 54 l 397 19 l 397 0 l 44 0 l 44 19 l 140 49 b 169 88 160 54 169 68 l 169 885 b 140 924 169 904 160 918 l 44 953 l 44 972 l 424 972 b 750 715 614 972 750 904 b 478 461 750 558 639 475 b 611 385 522 458 571 449 l 801 83 m 392 506 b 636 715 557 506 636 583 b 392 925 636 849 557 925 l 272 925 l 272 506 "},"Ŕ":{"ha":935,"x_min":0,"x_max":0,"o":"m 410 1063 l 365 1063 l 465 1258 l 571 1258 m 801 83 b 914 19 826 44 868 19 l 914 0 l 732 0 l 489 379 b 338 458 450 439 401 458 l 272 458 l 272 88 b 301 49 272 68 282 54 l 397 19 l 397 0 l 44 0 l 44 19 l 140 49 b 169 88 160 54 169 68 l 169 885 b 140 924 169 904 160 918 l 44 953 l 44 972 l 424 972 b 750 715 614 972 750 904 b 478 461 750 558 639 475 b 611 385 522 458 571 449 l 801 83 m 392 506 b 636 715 557 506 636 583 b 392 925 636 849 557 925 l 272 925 l 272 506 "},"Ř":{"ha":935,"x_min":0,"x_max":0,"o":"m 353 1063 l 222 1258 l 281 1258 l 404 1119 l 528 1258 l 586 1258 l 456 1063 m 801 83 b 914 19 826 44 868 19 l 914 0 l 732 0 l 489 379 b 338 458 450 439 401 458 l 272 458 l 272 88 b 301 49 272 68 282 54 l 397 19 l 397 0 l 44 0 l 44 19 l 140 49 b 169 88 160 54 169 68 l 169 885 b 140 924 169 904 160 918 l 44 953 l 44 972 l 424 972 b 750 715 614 972 750 904 b 478 461 750 558 639 475 b 611 385 522 458 571 449 l 801 83 m 392 506 b 636 715 557 506 636 583 b 392 925 636 849 557 925 l 272 925 l 272 506 "},"Ŗ":{"ha":935,"x_min":0,"x_max":0,"o":"m 801 83 b 914 19 826 44 868 19 l 914 0 l 732 0 l 489 379 b 338 458 450 439 401 458 l 272 458 l 272 88 b 301 49 272 68 282 54 l 397 19 l 397 0 l 44 0 l 44 19 l 140 49 b 169 88 160 54 169 68 l 169 885 b 140 924 169 904 160 918 l 44 953 l 44 972 l 424 972 b 750 715 614 972 750 904 b 478 461 750 558 639 475 b 611 385 522 458 571 449 l 801 83 m 392 506 b 636 715 557 506 636 583 b 392 925 636 849 557 925 l 272 925 l 272 506 m 465 -60 b 375 -294 486 -129 453 -217 l 354 -281 b 378 -68 386 -219 399 -132 "},"S":{"ha":682,"x_min":0,"x_max":0,"o":"m 69 221 b 333 31 122 89 233 31 b 538 226 469 31 538 122 b 314 479 538 349 474 421 b 47 764 126 547 47 636 b 343 989 47 892 150 989 b 579 924 432 989 510 968 l 579 778 l 558 778 b 332 943 510 890 435 943 b 136 783 211 943 136 874 b 354 578 136 689 188 632 b 636 269 557 513 636 413 b 329 -17 636 97 497 -17 b 49 58 206 -17 110 18 l 49 221 l 69 221 "},"Ś":{"ha":682,"x_min":0,"x_max":0,"o":"m 279 1063 l 379 1258 l 485 1258 l 324 1063 m 69 221 b 333 31 122 89 233 31 b 538 226 469 31 538 122 b 314 479 538 349 474 421 b 47 764 126 547 47 636 b 343 989 47 892 150 989 b 579 924 432 989 510 968 l 579 778 l 558 778 b 332 943 510 890 435 943 b 136 783 211 943 136 874 b 354 578 136 689 188 632 b 636 269 557 513 636 413 b 329 -17 636 97 497 -17 b 49 58 206 -17 110 18 l 49 221 l 69 221 "},"Š":{"ha":682,"x_min":0,"x_max":0,"o":"m 267 1063 l 136 1258 l 194 1258 l 318 1119 l 442 1258 l 500 1258 l 369 1063 m 354 578 b 636 269 557 513 636 413 b 329 -17 636 97 497 -17 b 49 58 206 -17 110 18 l 49 221 l 69 221 b 333 31 122 89 233 31 b 538 226 469 31 538 122 b 314 479 538 349 474 421 b 47 764 126 547 47 636 b 343 989 47 892 150 989 b 579 924 432 989 510 968 l 579 778 l 558 778 b 332 943 510 890 435 943 b 136 783 211 943 136 874 b 354 578 136 689 188 632 "},"Ş":{"ha":682,"x_min":0,"x_max":0,"o":"m 636 269 b 347 -17 636 104 507 -8 l 311 -78 b 400 -181 360 -89 400 -128 b 197 -285 400 -265 325 -311 l 199 -265 b 326 -201 274 -276 326 -253 b 238 -131 326 -168 297 -140 l 314 -17 b 49 58 197 -14 107 19 l 49 221 l 69 221 b 333 31 122 89 233 31 b 538 226 469 31 538 122 b 314 479 538 349 474 421 b 47 764 126 547 47 636 b 343 989 47 892 150 989 b 579 924 432 989 510 968 l 579 778 l 558 778 b 332 943 510 890 435 943 b 136 783 211 943 136 874 b 354 578 136 689 188 632 b 636 269 557 513 636 413 "},"Ŝ":{"ha":682,"x_min":0,"x_max":0,"o":"m 194 1063 l 136 1063 l 267 1258 l 369 1258 l 500 1063 l 442 1063 l 318 1201 m 354 578 b 636 269 557 513 636 413 b 329 -17 636 97 497 -17 b 49 58 206 -17 110 18 l 49 221 l 69 221 b 333 31 122 89 233 31 b 538 226 469 31 538 122 b 314 479 538 349 474 421 b 47 764 126 547 47 636 b 343 989 47 892 150 989 b 579 924 432 989 510 968 l 579 778 l 558 778 b 332 943 510 890 435 943 b 136 783 211 943 136 874 b 354 578 136 689 188 632 "},"Ș":{"ha":682,"x_min":0,"x_max":0,"o":"m 69 221 b 333 31 122 89 233 31 b 538 226 469 31 538 122 b 314 479 538 349 474 421 b 47 764 126 547 47 636 b 343 989 47 892 150 989 b 579 924 432 989 510 968 l 579 778 l 558 778 b 332 943 510 890 435 943 b 136 783 211 943 136 874 b 354 578 136 689 188 632 b 636 269 557 513 636 413 b 329 -17 636 97 497 -17 b 49 58 206 -17 110 18 l 49 221 l 69 221 m 364 -60 b 274 -294 385 -129 351 -217 l 253 -281 b 276 -68 285 -219 297 -132 l 364 -60 "},"ẞ":{"ha":913,"x_min":0,"x_max":0,"o":"m 504 567 b 868 278 750 583 868 422 b 589 -21 868 99 756 -21 b 342 119 482 -21 404 31 l 365 135 b 579 29 425 69 486 29 b 771 232 694 29 771 110 b 408 493 771 357 663 494 l 408 531 l 704 925 l 258 925 l 258 0 l 44 0 l 44 19 l 126 49 b 156 88 146 56 156 68 l 156 885 b 126 924 156 904 146 917 l 44 953 l 44 972 l 772 972 l 772 921 l 504 567 "},"T":{"ha":928,"x_min":0,"x_max":0,"o":"m 288 19 l 383 49 b 413 88 403 54 413 68 l 413 925 l 192 925 b 151 900 172 925 163 915 l 49 751 l 28 751 l 69 972 l 858 972 l 900 751 l 879 751 l 776 900 b 736 925 765 915 756 925 l 515 925 l 515 88 b 544 49 515 68 525 54 l 640 19 l 640 0 l 288 0 "},"Ŧ":{"ha":928,"x_min":0,"x_max":0,"o":"m 900 751 l 879 751 l 776 900 b 736 925 765 915 756 925 l 515 925 l 515 507 l 672 507 l 672 465 l 515 465 l 515 88 b 544 49 515 68 525 54 l 640 19 l 640 0 l 288 0 l 288 19 l 383 49 b 413 88 403 54 413 68 l 413 465 l 256 465 l 256 507 l 413 507 l 413 925 l 192 925 b 151 900 172 925 163 915 l 49 751 l 28 751 l 69 972 l 858 972 "},"Ť":{"ha":928,"x_min":0,"x_max":0,"o":"m 413 1063 l 282 1258 l 340 1258 l 464 1119 l 588 1258 l 646 1258 l 515 1063 m 900 751 l 879 751 l 776 900 b 736 925 765 915 756 925 l 515 925 l 515 88 b 544 49 515 68 525 54 l 640 19 l 640 0 l 288 0 l 288 19 l 383 49 b 413 88 403 54 413 68 l 413 925 l 192 925 b 151 900 172 925 163 915 l 49 751 l 28 751 l 69 972 l 858 972 "},"Ţ":{"ha":928,"x_min":0,"x_max":0,"o":"m 900 751 l 879 751 l 776 900 b 736 925 765 915 756 925 l 515 925 l 515 88 b 544 49 515 68 525 54 l 640 19 l 640 0 l 482 0 l 436 -78 b 525 -181 485 -89 525 -128 b 322 -285 525 -265 450 -311 l 324 -265 b 451 -201 399 -276 451 -253 b 363 -131 451 -168 422 -140 l 450 0 l 288 0 l 288 19 l 383 49 b 413 88 403 54 413 68 l 413 925 l 192 925 b 151 900 172 925 163 915 l 49 751 l 28 751 l 69 972 l 858 972 "},"Ț":{"ha":928,"x_min":0,"x_max":0,"o":"m 288 19 l 383 49 b 413 88 403 54 413 68 l 413 925 l 192 925 b 151 900 172 925 163 915 l 49 751 l 28 751 l 69 972 l 858 972 l 900 751 l 879 751 l 776 900 b 736 925 765 915 756 925 l 515 925 l 515 88 b 544 49 515 68 525 54 l 640 19 l 640 0 l 288 0 m 489 -60 b 399 -294 510 -129 476 -217 l 378 -281 b 401 -68 410 -219 422 -132 l 489 -60 "},"U":{"ha":1032,"x_min":0,"x_max":0,"o":"m 988 972 l 988 953 l 889 921 b 863 881 871 915 863 900 l 863 349 b 528 -17 863 121 740 -17 b 169 339 310 -17 169 106 l 169 885 b 140 924 169 904 160 918 l 44 953 l 44 972 l 397 972 l 397 953 l 301 924 b 272 885 282 918 272 904 l 272 361 b 558 38 272 179 378 38 b 815 367 725 38 815 157 l 815 881 b 786 921 815 899 806 913 l 690 953 l 690 972 "},"Ú":{"ha":1032,"x_min":0,"x_max":0,"o":"m 551 1063 l 507 1063 l 607 1258 l 713 1258 m 988 972 l 988 953 l 889 921 b 863 881 871 915 863 900 l 863 349 b 528 -17 863 121 740 -17 b 169 339 310 -17 169 106 l 169 885 b 140 924 169 904 160 918 l 44 953 l 44 972 l 397 972 l 397 953 l 301 924 b 272 885 282 918 272 904 l 272 361 b 558 38 272 179 378 38 b 815 367 725 38 815 157 l 815 881 b 786 921 815 899 806 913 l 690 953 l 690 972 "},"Ŭ":{"ha":1032,"x_min":0,"x_max":0,"o":"m 546 1057 b 386 1244 444 1057 388 1125 l 424 1244 b 546 1132 431 1164 486 1132 b 669 1244 606 1132 663 1164 l 706 1244 b 546 1057 704 1125 647 1057 m 988 972 l 988 953 l 889 921 b 863 881 871 915 863 900 l 863 349 b 528 -17 863 121 740 -17 b 169 339 310 -17 169 106 l 169 885 b 140 924 169 904 160 918 l 44 953 l 44 972 l 397 972 l 397 953 l 301 924 b 272 885 282 918 272 904 l 272 361 b 558 38 272 179 378 38 b 815 367 725 38 815 157 l 815 881 b 786 921 815 899 806 913 l 690 953 l 690 972 "},"Û":{"ha":1032,"x_min":0,"x_max":0,"o":"m 422 1063 l 364 1063 l 494 1258 l 597 1258 l 728 1063 l 669 1063 l 546 1201 m 988 972 l 988 953 l 889 921 b 863 881 871 915 863 900 l 863 349 b 528 -17 863 121 740 -17 b 169 339 310 -17 169 106 l 169 885 b 140 924 169 904 160 918 l 44 953 l 44 972 l 397 972 l 397 953 l 301 924 b 272 885 282 918 272 904 l 272 361 b 558 38 272 179 378 38 b 815 367 725 38 815 157 l 815 881 b 786 921 815 899 806 913 l 690 953 l 690 972 "},"Ü":{"ha":1032,"x_min":0,"x_max":0,"o":"m 431 1101 b 354 1178 386 1101 354 1133 b 431 1253 354 1221 386 1253 b 506 1178 474 1253 506 1221 b 431 1101 506 1133 474 1101 m 661 1101 b 585 1178 617 1101 585 1133 b 661 1253 585 1221 617 1253 b 736 1178 704 1253 736 1221 b 661 1101 736 1133 704 1101 m 988 972 l 988 953 l 889 921 b 863 881 871 915 863 900 l 863 349 b 528 -17 863 121 740 -17 b 169 339 310 -17 169 106 l 169 885 b 140 924 169 904 160 918 l 44 953 l 44 972 l 397 972 l 397 953 l 301 924 b 272 885 282 918 272 904 l 272 361 b 558 38 272 179 378 38 b 815 367 725 38 815 157 l 815 881 b 786 921 815 899 806 913 l 690 953 l 690 972 "},"Ù":{"ha":1032,"x_min":0,"x_max":0,"o":"m 526 1063 l 365 1258 l 471 1258 l 571 1063 m 988 972 l 988 953 l 889 921 b 863 881 871 915 863 900 l 863 349 b 528 -17 863 121 740 -17 b 169 339 310 -17 169 106 l 169 885 b 140 924 169 904 160 918 l 44 953 l 44 972 l 397 972 l 397 953 l 301 924 b 272 885 282 918 272 904 l 272 361 b 558 38 272 179 378 38 b 815 367 725 38 815 157 l 815 881 b 786 921 815 899 806 913 l 690 953 l 690 972 "},"Ű":{"ha":1032,"x_min":0,"x_max":0,"o":"m 472 1063 l 428 1063 l 528 1258 l 619 1258 m 579 1063 l 679 1258 l 771 1258 l 624 1063 m 988 972 l 988 953 l 889 921 b 863 881 871 915 863 900 l 863 349 b 528 -17 863 121 740 -17 b 169 339 310 -17 169 106 l 169 885 b 140 924 169 904 160 918 l 44 953 l 44 972 l 397 972 l 397 953 l 301 924 b 272 885 282 918 272 904 l 272 361 b 558 38 272 179 378 38 b 815 367 725 38 815 157 l 815 881 b 786 921 815 899 806 913 l 690 953 l 690 972 "},"Ū":{"ha":1032,"x_min":0,"x_max":0,"o":"m 715 1092 l 376 1092 l 376 1140 l 715 1140 m 988 972 l 988 953 l 889 921 b 863 881 871 915 863 900 l 863 349 b 528 -17 863 121 740 -17 b 169 339 310 -17 169 106 l 169 885 b 140 924 169 904 160 918 l 44 953 l 44 972 l 397 972 l 397 953 l 301 924 b 272 885 282 918 272 904 l 272 361 b 558 38 272 179 378 38 b 815 367 725 38 815 157 l 815 881 b 786 921 815 899 806 913 l 690 953 l 690 972 "},"Ų":{"ha":1032,"x_min":0,"x_max":0,"o":"m 988 972 l 988 953 l 889 921 b 863 881 871 915 863 900 l 863 349 b 603 -10 863 149 769 19 b 535 -153 553 -67 535 -100 b 682 -219 535 -226 586 -253 l 689 -237 b 557 -290 647 -275 597 -290 b 428 -193 479 -290 428 -251 b 557 -15 428 -117 482 -71 b 528 -17 547 -17 538 -17 b 169 339 310 -17 169 106 l 169 885 b 140 924 169 904 160 918 l 44 953 l 44 972 l 397 972 l 397 953 l 301 924 b 272 885 282 918 272 904 l 272 361 b 558 38 272 179 378 38 b 815 367 725 38 815 157 l 815 881 b 786 921 815 899 806 913 l 690 953 l 690 972 "},"Ů":{"ha":1032,"x_min":0,"x_max":0,"o":"m 546 1051 b 415 1175 471 1051 415 1104 b 546 1299 415 1246 471 1299 b 676 1175 621 1299 676 1246 b 546 1051 676 1104 621 1051 m 546 1260 b 465 1176 500 1260 465 1225 b 546 1090 465 1128 500 1090 b 628 1176 593 1090 628 1128 b 546 1260 628 1225 593 1260 m 988 972 l 988 953 l 889 921 b 863 881 871 915 863 900 l 863 349 b 528 -17 863 121 740 -17 b 169 339 310 -17 169 106 l 169 885 b 140 924 169 904 160 918 l 44 953 l 44 972 l 397 972 l 397 953 l 301 924 b 272 885 282 918 272 904 l 272 361 b 558 38 272 179 378 38 b 815 367 725 38 815 157 l 815 881 b 786 921 815 899 806 913 l 690 953 l 690 972 "},"Ũ":{"ha":1032,"x_min":0,"x_max":0,"o":"m 433 1175 b 379 1101 411 1175 392 1151 l 350 1104 b 464 1244 357 1185 406 1244 b 657 1168 526 1244 593 1168 b 711 1242 679 1168 699 1192 l 740 1239 b 626 1099 733 1158 685 1099 b 433 1175 564 1099 497 1175 m 988 972 l 988 953 l 889 921 b 863 881 871 915 863 900 l 863 349 b 528 -17 863 121 740 -17 b 169 339 310 -17 169 106 l 169 885 b 140 924 169 904 160 918 l 44 953 l 44 972 l 397 972 l 397 953 l 301 924 b 272 885 282 918 272 904 l 272 361 b 558 38 272 179 378 38 b 815 367 725 38 815 157 l 815 881 b 786 921 815 899 806 913 l 690 953 l 690 972 "},"V":{"ha":986,"x_min":0,"x_max":0,"o":"m 119 899 b 85 931 113 917 101 925 l 21 953 l 21 972 l 376 972 l 376 953 l 260 929 b 235 886 238 925 226 910 l 518 140 l 803 888 b 778 929 811 910 801 924 l 667 953 l 667 972 l 965 972 l 965 953 l 893 931 b 858 897 876 925 865 915 l 506 -17 l 469 -17 "},"W":{"ha":1383,"x_min":0,"x_max":0,"o":"m 971 149 l 1211 878 b 1188 922 1218 899 1210 917 l 1076 953 l 1076 972 l 1363 972 l 1363 953 l 1296 925 b 1265 888 1279 918 1271 906 l 963 -17 l 926 -17 l 692 697 l 447 -17 l 408 -17 l 110 888 b 81 928 104 906 96 921 l 21 953 l 21 972 l 363 972 l 363 953 l 254 922 b 231 879 232 915 224 900 l 453 147 l 704 893 l 742 893 "},"Ẃ":{"ha":1383,"x_min":0,"x_max":0,"o":"m 667 1063 l 767 1258 l 872 1258 l 711 1063 m 971 149 l 1211 878 b 1188 922 1218 899 1210 917 l 1076 953 l 1076 972 l 1363 972 l 1363 953 l 1296 925 b 1265 888 1279 918 1271 906 l 963 -17 l 926 -17 l 692 697 l 447 -17 l 408 -17 l 110 888 b 81 928 104 906 96 921 l 21 953 l 21 972 l 363 972 l 363 953 l 254 922 b 231 879 232 915 224 900 l 453 147 l 704 893 l 742 893 "},"Ŵ":{"ha":1383,"x_min":0,"x_max":0,"o":"m 582 1063 l 524 1063 l 654 1258 l 757 1258 l 888 1063 l 829 1063 l 706 1201 m 1363 972 l 1363 953 l 1296 925 b 1265 888 1279 918 1271 906 l 963 -17 l 926 -17 l 692 697 l 447 -17 l 408 -17 l 110 888 b 81 928 104 906 96 921 l 21 953 l 21 972 l 363 972 l 363 953 l 254 922 b 231 879 232 915 224 900 l 453 147 l 704 893 l 742 893 l 971 149 l 1211 878 b 1188 922 1218 899 1210 917 l 1076 953 l 1076 972 "},"Ẅ":{"ha":1383,"x_min":0,"x_max":0,"o":"m 590 1101 b 514 1178 546 1101 514 1133 b 590 1253 514 1221 546 1253 b 665 1178 633 1253 665 1221 b 590 1101 665 1133 633 1101 m 821 1101 b 744 1178 776 1101 744 1133 b 821 1253 744 1221 776 1253 b 896 1178 864 1253 896 1221 b 821 1101 896 1133 864 1101 m 971 149 l 1211 878 b 1188 922 1218 899 1210 917 l 1076 953 l 1076 972 l 1363 972 l 1363 953 l 1296 925 b 1265 888 1279 918 1271 906 l 963 -17 l 926 -17 l 692 697 l 447 -17 l 408 -17 l 110 888 b 81 928 104 906 96 921 l 21 953 l 21 972 l 363 972 l 363 953 l 254 922 b 231 879 232 915 224 900 l 453 147 l 704 893 l 742 893 "},"Ẁ":{"ha":1383,"x_min":0,"x_max":0,"o":"m 525 1258 l 631 1258 l 731 1063 l 686 1063 m 971 149 l 1211 878 b 1188 922 1218 899 1210 917 l 1076 953 l 1076 972 l 1363 972 l 1363 953 l 1296 925 b 1265 888 1279 918 1271 906 l 963 -17 l 926 -17 l 692 697 l 447 -17 l 408 -17 l 110 888 b 81 928 104 906 96 921 l 21 953 l 21 972 l 363 972 l 363 953 l 254 922 b 231 879 232 915 224 900 l 453 147 l 704 893 l 742 893 "},"X":{"ha":925,"x_min":0,"x_max":0,"o":"m 911 19 l 911 0 l 601 0 l 601 19 l 657 43 b 671 90 679 53 683 71 l 433 451 l 197 92 b 213 44 185 72 190 53 l 279 19 l 279 0 l 14 0 l 14 19 l 97 50 b 132 78 113 56 122 63 l 406 493 l 140 894 b 106 922 131 910 121 915 l 32 953 l 32 972 l 342 972 l 342 953 l 288 929 b 274 882 267 919 261 901 l 478 569 l 679 881 b 663 926 693 901 686 918 l 581 953 l 581 972 l 860 972 l 860 953 l 786 922 b 751 894 771 915 761 910 l 506 528 l 800 78 b 835 50 810 63 819 57 "},"Y":{"ha":881,"x_min":0,"x_max":0,"o":"m 860 953 l 801 921 b 769 890 788 913 778 906 l 488 403 l 488 89 b 517 50 488 69 497 56 l 613 19 l 613 0 l 260 0 l 260 19 l 356 50 b 385 89 375 56 385 69 l 385 399 l 110 893 b 78 925 101 907 93 917 l 21 953 l 21 972 l 329 972 l 329 953 l 246 924 b 226 879 221 915 215 900 l 461 451 l 703 875 b 683 921 715 897 707 911 l 608 953 l 608 972 l 860 972 "},"Ý":{"ha":881,"x_min":0,"x_max":0,"o":"m 429 1063 l 529 1258 l 635 1258 l 474 1063 m 860 953 l 801 921 b 769 890 788 913 778 906 l 488 403 l 488 89 b 517 50 488 69 497 56 l 613 19 l 613 0 l 260 0 l 260 19 l 356 50 b 385 89 375 56 385 69 l 385 399 l 110 893 b 78 925 101 907 93 917 l 21 953 l 21 972 l 329 972 l 329 953 l 246 924 b 226 879 221 915 215 900 l 461 451 l 703 875 b 683 921 715 897 707 911 l 608 953 l 608 972 l 860 972 "},"Ŷ":{"ha":881,"x_min":0,"x_max":0,"o":"m 344 1063 l 286 1063 l 417 1258 l 519 1258 l 650 1063 l 592 1063 l 468 1201 m 860 972 l 860 953 l 801 921 b 769 890 788 913 778 906 l 488 403 l 488 89 b 517 50 488 69 497 56 l 613 19 l 613 0 l 260 0 l 260 19 l 356 50 b 385 89 375 56 385 69 l 385 399 l 110 893 b 78 925 101 907 93 917 l 21 953 l 21 972 l 329 972 l 329 953 l 246 924 b 226 879 221 915 215 900 l 461 451 l 703 875 b 683 921 715 897 707 911 l 608 953 l 608 972 "},"Ÿ":{"ha":881,"x_min":0,"x_max":0,"o":"m 353 1101 b 276 1178 308 1101 276 1133 b 353 1253 276 1221 308 1253 b 428 1178 396 1253 428 1221 b 353 1101 428 1133 396 1101 m 583 1101 b 507 1178 539 1101 507 1133 b 583 1253 507 1221 539 1253 b 658 1178 626 1253 658 1221 b 583 1101 658 1133 626 1101 m 860 953 l 801 921 b 769 890 788 913 778 906 l 488 403 l 488 89 b 517 50 488 69 497 56 l 613 19 l 613 0 l 260 0 l 260 19 l 356 50 b 385 89 375 56 385 69 l 385 399 l 110 893 b 78 925 101 907 93 917 l 21 953 l 21 972 l 329 972 l 329 953 l 246 924 b 226 879 221 915 215 900 l 461 451 l 703 875 b 683 921 715 897 707 911 l 608 953 l 608 972 l 860 972 "},"Ỳ":{"ha":881,"x_min":0,"x_max":0,"o":"m 288 1258 l 393 1258 l 493 1063 l 449 1063 m 860 953 l 801 921 b 769 890 788 913 778 906 l 488 403 l 488 89 b 517 50 488 69 497 56 l 613 19 l 613 0 l 260 0 l 260 19 l 356 50 b 385 89 375 56 385 69 l 385 399 l 110 893 b 78 925 101 907 93 917 l 21 953 l 21 972 l 329 972 l 329 953 l 246 924 b 226 879 221 915 215 900 l 461 451 l 703 875 b 683 921 715 897 707 911 l 608 953 l 608 972 l 860 972 "},"Z":{"ha":804,"x_min":0,"x_max":0,"o":"m 776 221 l 735 0 l 42 0 l 42 19 l 628 925 l 204 925 b 164 900 185 925 172 917 l 89 751 l 68 751 l 110 972 l 763 972 l 763 953 l 176 47 l 640 47 b 681 72 660 47 672 56 l 756 221 "},"Ź":{"ha":804,"x_min":0,"x_max":0,"o":"m 404 1063 l 360 1063 l 460 1258 l 565 1258 m 776 221 l 735 0 l 42 0 l 42 19 l 628 925 l 204 925 b 164 900 185 925 172 917 l 89 751 l 68 751 l 110 972 l 763 972 l 763 953 l 176 47 l 640 47 b 681 72 660 47 672 56 l 756 221 "},"Ž":{"ha":804,"x_min":0,"x_max":0,"o":"m 347 1063 l 217 1258 l 275 1258 l 399 1119 l 522 1258 l 581 1258 l 450 1063 m 776 221 l 735 0 l 42 0 l 42 19 l 628 925 l 204 925 b 164 900 185 925 172 917 l 89 751 l 68 751 l 110 972 l 763 972 l 763 953 l 176 47 l 640 47 b 681 72 660 47 672 56 l 756 221 "},"Ż":{"ha":804,"x_min":0,"x_max":0,"o":"m 399 1101 b 322 1178 354 1101 322 1133 b 399 1253 322 1221 354 1253 b 474 1178 442 1253 474 1221 b 399 1101 474 1133 442 1101 m 776 221 l 735 0 l 42 0 l 42 19 l 628 925 l 204 925 b 164 900 185 925 172 917 l 89 751 l 68 751 l 110 972 l 763 972 l 763 953 l 176 47 l 640 47 b 681 72 660 47 672 56 l 756 221 "},"a":{"ha":678,"x_min":0,"x_max":0,"o":"m 643 58 l 643 39 l 468 -17 l 447 -17 l 447 108 b 240 -17 415 51 349 -17 b 49 169 138 -17 49 63 b 326 396 49 281 118 374 l 447 410 l 447 454 b 296 669 447 581 401 669 b 153 506 206 669 150 615 l 54 506 b 328 711 76 653 199 711 b 542 454 475 711 542 610 l 542 110 b 572 72 542 89 551 76 m 288 63 b 447 169 368 63 418 107 l 447 369 l 332 351 b 149 190 186 328 149 265 b 288 63 149 115 210 63 "},"á":{"ha":678,"x_min":0,"x_max":0,"o":"m 321 785 l 276 785 l 376 981 l 482 981 m 643 58 l 643 39 l 468 -17 l 447 -17 l 447 108 b 240 -17 415 51 349 -17 b 49 169 138 -17 49 63 b 326 396 49 281 118 374 l 447 410 l 447 454 b 296 669 447 581 401 669 b 153 506 206 669 150 615 l 54 506 b 328 711 76 653 199 711 b 542 454 475 711 542 610 l 542 110 b 572 72 542 89 551 76 m 288 63 b 447 169 368 63 418 107 l 447 369 l 332 351 b 149 190 186 328 149 265 b 288 63 149 115 210 63 "},"ă":{"ha":678,"x_min":0,"x_max":0,"o":"m 315 779 b 156 967 214 779 157 847 l 193 967 b 315 854 200 886 256 854 b 439 967 375 854 432 886 l 475 967 b 315 779 474 847 417 779 m 643 58 l 643 39 l 468 -17 l 447 -17 l 447 108 b 240 -17 415 51 349 -17 b 49 169 138 -17 49 63 b 326 396 49 281 118 374 l 447 410 l 447 454 b 296 669 447 581 401 669 b 153 506 206 669 150 615 l 54 506 b 328 711 76 653 199 711 b 542 454 475 711 542 610 l 542 110 b 572 72 542 89 551 76 m 288 63 b 447 169 368 63 418 107 l 447 369 l 332 351 b 149 190 186 328 149 265 b 288 63 149 115 210 63 "},"â":{"ha":678,"x_min":0,"x_max":0,"o":"m 192 785 l 133 785 l 264 981 l 367 981 l 497 785 l 439 785 l 315 924 m 643 58 l 643 39 l 468 -17 l 447 -17 l 447 108 b 240 -17 415 51 349 -17 b 49 169 138 -17 49 63 b 326 396 49 281 118 374 l 447 410 l 447 454 b 296 669 447 581 401 669 b 153 506 206 669 150 615 l 54 506 b 328 711 76 653 199 711 b 542 454 475 711 542 610 l 542 110 b 572 72 542 89 551 76 m 288 63 b 447 169 368 63 418 107 l 447 369 l 332 351 b 149 190 186 328 149 265 b 288 63 149 115 210 63 "},"ä":{"ha":678,"x_min":0,"x_max":0,"o":"m 200 824 b 124 900 156 824 124 856 b 200 975 124 943 156 975 b 275 900 243 975 275 943 b 200 824 275 856 243 824 m 431 824 b 354 900 386 824 354 856 b 431 975 354 943 386 975 b 506 900 474 975 506 943 b 431 824 506 856 474 824 m 643 58 l 643 39 l 468 -17 l 447 -17 l 447 108 b 240 -17 415 51 349 -17 b 49 169 138 -17 49 63 b 326 396 49 281 118 374 l 447 410 l 447 454 b 296 669 447 581 401 669 b 153 506 206 669 150 615 l 54 506 b 328 711 76 653 199 711 b 542 454 475 711 542 610 l 542 110 b 572 72 542 89 551 76 m 288 63 b 447 169 368 63 418 107 l 447 369 l 332 351 b 149 190 186 328 149 265 b 288 63 149 115 210 63 "},"à":{"ha":678,"x_min":0,"x_max":0,"o":"m 296 785 l 135 981 l 240 981 l 340 785 m 643 58 l 643 39 l 468 -17 l 447 -17 l 447 108 b 240 -17 415 51 349 -17 b 49 169 138 -17 49 63 b 326 396 49 281 118 374 l 447 410 l 447 454 b 296 669 447 581 401 669 b 153 506 206 669 150 615 l 54 506 b 328 711 76 653 199 711 b 542 454 475 711 542 610 l 542 110 b 572 72 542 89 551 76 m 288 63 b 447 169 368 63 418 107 l 447 369 l 332 351 b 149 190 186 328 149 265 b 288 63 149 115 210 63 "},"ā":{"ha":678,"x_min":0,"x_max":0,"o":"m 485 814 l 146 814 l 146 863 l 485 863 m 643 58 l 643 39 l 468 -17 l 447 -17 l 447 108 b 240 -17 415 51 349 -17 b 49 169 138 -17 49 63 b 326 396 49 281 118 374 l 447 410 l 447 454 b 296 669 447 581 401 669 b 153 506 206 669 150 615 l 54 506 b 328 711 76 653 199 711 b 542 454 475 711 542 610 l 542 110 b 572 72 542 89 551 76 m 288 63 b 447 169 368 63 418 107 l 447 369 l 332 351 b 149 190 186 328 149 265 b 288 63 149 115 210 63 "},"ą":{"ha":678,"x_min":0,"x_max":0,"o":"m 488 -11 b 417 -156 435 -69 417 -101 b 564 -222 417 -229 468 -256 l 571 -240 b 439 -293 529 -278 479 -293 b 310 -196 361 -293 310 -254 b 447 -12 310 -117 368 -71 l 447 108 b 240 -17 415 51 349 -17 b 49 169 138 -17 49 63 b 326 396 49 281 118 374 l 447 410 l 447 454 b 296 669 447 581 401 669 b 153 506 206 669 150 615 l 54 506 b 328 711 76 653 199 711 b 542 454 475 711 542 610 l 542 110 b 572 72 542 89 551 76 l 643 58 l 643 39 m 288 63 b 447 169 368 63 418 107 l 447 369 l 332 351 b 149 190 186 328 149 265 b 288 63 149 115 210 63 "},"å":{"ha":678,"x_min":0,"x_max":0,"o":"m 315 774 b 185 897 240 774 185 826 b 315 1021 185 968 240 1021 b 446 897 390 1021 446 968 b 315 774 446 826 390 774 m 315 982 b 235 899 269 982 235 947 b 315 813 235 850 269 813 b 397 899 363 813 397 850 b 315 982 397 947 363 982 m 643 58 l 643 39 l 468 -17 l 447 -17 l 447 108 b 240 -17 415 51 349 -17 b 49 169 138 -17 49 63 b 326 396 49 281 118 374 l 447 410 l 447 454 b 296 669 447 581 401 669 b 153 506 206 669 150 615 l 54 506 b 328 711 76 653 199 711 b 542 454 475 711 542 610 l 542 110 b 572 72 542 89 551 76 m 288 63 b 447 169 368 63 418 107 l 447 369 l 332 351 b 149 190 186 328 149 265 b 288 63 149 115 210 63 "},"ǻ":{"ha":678,"x_min":0,"x_max":0,"o":"m 315 774 b 185 897 240 774 185 826 b 282 1017 185 957 224 1004 l 381 1211 l 486 1211 l 329 1021 b 446 897 397 1014 446 964 b 315 774 446 826 390 774 m 315 982 b 235 899 269 982 235 947 b 315 813 235 850 269 813 b 397 899 363 813 397 850 b 315 982 397 947 363 982 m 643 58 l 643 39 l 468 -17 l 447 -17 l 447 108 b 240 -17 415 51 349 -17 b 49 169 138 -17 49 63 b 326 396 49 281 118 374 l 447 410 l 447 454 b 296 669 447 581 401 669 b 153 506 206 669 150 615 l 54 506 b 328 711 76 653 199 711 b 542 454 475 711 542 610 l 542 110 b 572 72 542 89 551 76 m 288 63 b 447 169 368 63 418 107 l 447 369 l 332 351 b 149 190 186 328 149 265 b 288 63 149 115 210 63 "},"ã":{"ha":678,"x_min":0,"x_max":0,"o":"m 203 897 b 149 824 181 897 161 874 l 119 826 b 233 967 126 907 175 967 b 426 890 296 967 363 890 b 481 964 449 890 468 914 l 510 961 b 396 821 503 881 454 821 b 203 897 333 821 267 897 m 643 58 l 643 39 l 468 -17 l 447 -17 l 447 108 b 240 -17 415 51 349 -17 b 49 169 138 -17 49 63 b 326 396 49 281 118 374 l 447 410 l 447 454 b 296 669 447 581 401 669 b 153 506 206 669 150 615 l 54 506 b 328 711 76 653 199 711 b 542 454 475 711 542 610 l 542 110 b 572 72 542 89 551 76 m 288 63 b 447 169 368 63 418 107 l 447 369 l 332 351 b 149 190 186 328 149 265 b 288 63 149 115 210 63 "},"æ":{"ha":1083,"x_min":0,"x_max":0,"o":"m 797 69 b 1007 190 899 69 967 128 l 1026 181 b 756 -17 990 71 893 -17 b 489 164 632 -17 536 57 b 231 -17 449 86 356 -17 b 49 169 131 -17 49 63 b 326 396 49 281 118 374 l 451 410 l 451 454 b 296 669 451 581 401 669 b 153 506 206 669 150 615 l 54 506 b 328 711 76 653 199 711 b 524 582 429 711 493 663 b 775 711 581 665 669 711 b 1032 403 946 711 1032 572 l 547 403 b 797 69 551 200 647 69 m 753 667 b 549 444 626 667 557 574 l 926 444 b 753 667 917 576 874 667 m 288 63 b 475 200 368 63 433 122 b 454 328 461 239 454 282 b 456 369 454 342 454 356 l 332 351 b 149 190 186 329 149 265 b 288 63 149 115 210 63 "},"ǽ":{"ha":1083,"x_min":0,"x_max":0,"o":"m 561 785 l 517 785 l 617 981 l 722 981 m 797 69 b 1007 190 899 69 967 128 l 1026 181 b 756 -17 990 71 893 -17 b 489 164 632 -17 536 57 b 231 -17 449 86 356 -17 b 49 169 131 -17 49 63 b 326 396 49 281 118 374 l 451 410 l 451 454 b 296 669 451 581 401 669 b 153 506 206 669 150 615 l 54 506 b 328 711 76 653 199 711 b 524 582 429 711 493 663 b 775 711 581 665 669 711 b 1032 403 946 711 1032 572 l 547 403 b 797 69 551 200 647 69 m 753 667 b 549 444 626 667 557 574 l 926 444 b 753 667 917 576 874 667 m 288 63 b 475 200 368 63 433 122 b 454 328 461 239 454 282 b 456 369 454 342 454 356 l 332 351 b 149 190 186 329 149 265 b 288 63 149 115 210 63 "},"b":{"ha":793,"x_min":0,"x_max":0,"o":"m 463 711 b 742 371 631 711 742 560 b 403 -17 742 124 579 -17 b 218 71 310 -17 258 22 l 178 -17 l 143 -17 l 143 863 b 113 900 143 883 133 896 l 42 914 l 42 933 l 217 989 l 238 989 l 238 586 b 463 711 276 639 356 711 m 438 25 b 642 318 556 25 642 147 b 428 639 642 468 578 639 b 238 558 350 639 269 597 l 238 239 b 438 25 238 168 289 25 "},"c":{"ha":660,"x_min":0,"x_max":0,"o":"m 544 508 b 353 668 515 615 446 668 b 144 383 219 668 144 540 b 378 68 144 207 231 68 b 603 189 476 68 549 110 l 622 181 b 351 -17 572 49 482 -17 b 51 333 169 -17 51 136 b 381 711 51 540 178 711 b 565 650 449 711 526 685 l 565 508 "},"ć":{"ha":660,"x_min":0,"x_max":0,"o":"m 310 785 l 410 981 l 515 981 l 354 785 m 544 508 b 353 668 515 615 446 668 b 144 383 219 668 144 540 b 378 68 144 207 231 68 b 603 189 476 68 549 110 l 622 181 b 351 -17 572 49 482 -17 b 51 333 169 -17 51 136 b 381 711 51 540 178 711 b 565 650 449 711 526 685 l 565 508 "},"č":{"ha":660,"x_min":0,"x_max":0,"o":"m 297 785 l 167 981 l 225 981 l 349 842 l 472 981 l 531 981 l 400 785 m 622 181 b 351 -17 572 49 482 -17 b 51 333 169 -17 51 136 b 381 711 51 540 178 711 b 565 650 449 711 526 685 l 565 508 l 544 508 b 353 668 515 615 446 668 b 144 383 219 668 144 540 b 378 68 144 207 231 68 b 603 189 476 68 549 110 "},"ç":{"ha":660,"x_min":0,"x_max":0,"o":"m 622 181 b 374 -17 575 57 493 -8 l 338 -78 b 426 -181 386 -89 426 -128 b 224 -285 426 -265 351 -311 l 225 -265 b 353 -201 300 -276 353 -253 b 264 -131 353 -168 324 -140 l 340 -17 b 51 333 165 -11 51 140 b 381 711 51 540 178 711 b 565 650 449 711 526 685 l 565 508 l 544 508 b 353 668 515 615 446 668 b 144 383 219 668 144 540 b 378 68 144 207 231 68 b 603 189 476 68 549 110 l 622 181 "},"ĉ":{"ha":660,"x_min":0,"x_max":0,"o":"m 225 785 l 167 785 l 297 981 l 400 981 l 531 785 l 472 785 l 349 924 m 622 181 b 351 -17 572 49 482 -17 b 51 333 169 -17 51 136 b 381 711 51 540 178 711 b 565 650 449 711 526 685 l 565 508 l 544 508 b 353 668 515 615 446 668 b 144 383 219 668 144 540 b 378 68 144 207 231 68 b 603 189 476 68 549 110 "},"ċ":{"ha":660,"x_min":0,"x_max":0,"o":"m 349 824 b 272 900 304 824 272 856 b 349 975 272 943 304 975 b 424 900 392 975 424 943 b 349 824 424 856 392 824 m 544 508 b 353 668 515 615 446 668 b 144 383 219 668 144 540 b 378 68 144 207 231 68 b 603 189 476 68 549 110 l 622 181 b 351 -17 572 49 482 -17 b 51 333 169 -17 51 136 b 381 711 51 540 178 711 b 565 650 449 711 526 685 l 565 508 "},"d":{"ha":786,"x_min":0,"x_max":0,"o":"m 744 58 l 744 39 l 569 -17 l 549 -17 l 549 108 b 324 -17 510 56 431 -17 b 44 324 156 -17 44 135 b 383 711 44 571 207 711 b 549 644 463 711 511 683 l 549 863 b 518 900 549 883 539 896 l 447 914 l 447 933 l 622 989 l 643 989 l 643 110 b 674 72 643 89 653 76 m 358 56 b 549 136 436 56 517 97 l 549 456 b 349 669 549 526 497 669 b 144 376 231 669 144 547 b 358 56 144 226 208 56 "},"ð":{"ha":733,"x_min":0,"x_max":0,"o":"m 678 424 b 682 360 681 403 682 382 b 361 -17 682 131 533 -17 b 51 332 176 -17 51 128 b 369 711 51 563 199 711 b 510 679 421 711 468 700 b 375 861 481 750 435 813 l 201 757 l 181 794 l 339 889 b 189 960 294 919 244 943 l 199 993 b 382 915 265 976 326 950 l 524 1000 l 544 964 l 421 889 b 678 424 564 783 660 618 m 379 32 b 582 319 501 32 582 153 b 354 664 582 449 526 664 b 151 378 233 664 151 544 b 379 32 151 250 207 32 "},"ď":{"ha":786,"x_min":0,"x_max":0,"o":"m 829 1018 l 750 785 l 714 785 l 742 1018 m 643 110 b 674 72 643 89 653 76 l 744 58 l 744 39 l 569 -17 l 549 -17 l 549 108 b 324 -17 510 56 431 -17 b 44 324 156 -17 44 135 b 383 711 44 571 207 711 b 549 644 463 711 511 683 l 549 863 b 518 900 549 883 539 896 l 447 914 l 447 933 l 622 989 l 643 989 l 643 110 m 358 56 b 549 136 436 56 517 97 l 549 456 b 349 669 549 526 497 669 b 144 376 231 669 144 547 b 358 56 144 226 208 56 "},"đ":{"ha":786,"x_min":0,"x_max":0,"o":"m 643 110 b 674 72 643 89 653 76 l 744 58 l 744 39 l 569 -17 l 549 -17 l 549 108 b 324 -17 510 56 431 -17 b 44 324 156 -17 44 135 b 383 711 44 571 207 711 b 549 644 463 711 511 683 l 549 792 l 332 792 l 332 833 l 549 833 l 549 863 b 518 900 549 883 539 896 l 447 914 l 447 933 l 622 989 l 643 989 l 643 833 l 749 833 l 749 792 l 643 792 l 643 110 m 549 456 b 349 669 549 526 497 669 b 144 376 231 669 144 547 b 358 56 144 226 208 56 b 549 136 436 56 517 97 "},"e":{"ha":681,"x_min":0,"x_max":0,"o":"m 394 69 b 604 190 496 69 564 128 l 624 181 b 353 -17 588 71 490 -17 b 51 328 172 -17 51 140 b 372 711 51 571 188 711 b 629 403 543 711 629 572 l 144 403 b 394 69 149 200 244 69 m 350 667 b 146 444 224 667 154 574 l 524 444 b 350 667 514 576 471 667 "},"é":{"ha":681,"x_min":0,"x_max":0,"o":"m 360 785 l 315 785 l 415 981 l 521 981 m 394 69 b 604 190 496 69 564 128 l 624 181 b 353 -17 588 71 490 -17 b 51 328 172 -17 51 140 b 372 711 51 571 188 711 b 629 403 543 711 629 572 l 144 403 b 394 69 149 200 244 69 m 350 667 b 146 444 224 667 154 574 l 524 444 b 350 667 514 576 471 667 "},"ĕ":{"ha":681,"x_min":0,"x_max":0,"o":"m 354 779 b 194 967 253 779 196 847 l 232 967 b 354 854 239 886 294 854 b 478 967 414 854 471 886 l 514 967 b 354 779 513 847 456 779 m 394 69 b 604 190 496 69 564 128 l 624 181 b 353 -17 588 71 490 -17 b 51 328 172 -17 51 140 b 372 711 51 571 188 711 b 629 403 543 711 629 572 l 144 403 b 394 69 149 200 244 69 m 350 667 b 146 444 224 667 154 574 l 524 444 b 350 667 514 576 471 667 "},"ě":{"ha":681,"x_min":0,"x_max":0,"o":"m 303 785 l 172 981 l 231 981 l 354 842 l 478 981 l 536 981 l 406 785 m 394 69 b 604 190 496 69 564 128 l 624 181 b 353 -17 588 71 490 -17 b 51 328 172 -17 51 140 b 372 711 51 571 188 711 b 629 403 543 711 629 572 l 144 403 b 394 69 149 200 244 69 m 350 667 b 146 444 224 667 154 574 l 524 444 b 350 667 514 576 471 667 "},"ê":{"ha":681,"x_min":0,"x_max":0,"o":"m 231 785 l 172 785 l 303 981 l 406 981 l 536 785 l 478 785 l 354 924 m 394 69 b 604 190 496 69 564 128 l 624 181 b 353 -17 588 71 490 -17 b 51 328 172 -17 51 140 b 372 711 51 571 188 711 b 629 403 543 711 629 572 l 144 403 b 394 69 149 200 244 69 m 350 667 b 146 444 224 667 154 574 l 524 444 b 350 667 514 576 471 667 "},"ë":{"ha":681,"x_min":0,"x_max":0,"o":"m 239 824 b 163 900 194 824 163 856 b 239 975 163 943 194 975 b 314 900 282 975 314 943 b 239 824 314 856 282 824 m 469 824 b 393 900 425 824 393 856 b 469 975 393 943 425 975 b 544 900 513 975 544 943 b 469 824 544 856 513 824 m 394 69 b 604 190 496 69 564 128 l 624 181 b 353 -17 588 71 490 -17 b 51 328 172 -17 51 140 b 372 711 51 571 188 711 b 629 403 543 711 629 572 l 144 403 b 394 69 149 200 244 69 m 350 667 b 146 444 224 667 154 574 l 524 444 b 350 667 514 576 471 667 "},"ė":{"ha":681,"x_min":0,"x_max":0,"o":"m 354 824 b 278 900 310 824 278 856 b 354 975 278 943 310 975 b 429 900 397 975 429 943 b 354 824 429 856 397 824 m 394 69 b 604 190 496 69 564 128 l 624 181 b 353 -17 588 71 490 -17 b 51 328 172 -17 51 140 b 372 711 51 571 188 711 b 629 403 543 711 629 572 l 144 403 b 394 69 149 200 244 69 m 350 667 b 146 444 224 667 154 574 l 524 444 b 350 667 514 576 471 667 "},"è":{"ha":681,"x_min":0,"x_max":0,"o":"m 335 785 l 174 981 l 279 981 l 379 785 m 394 69 b 604 190 496 69 564 128 l 624 181 b 353 -17 588 71 490 -17 b 51 328 172 -17 51 140 b 372 711 51 571 188 711 b 629 403 543 711 629 572 l 144 403 b 394 69 149 200 244 69 m 350 667 b 146 444 224 667 154 574 l 524 444 b 350 667 514 576 471 667 "},"ē":{"ha":681,"x_min":0,"x_max":0,"o":"m 524 814 l 185 814 l 185 863 l 524 863 m 394 69 b 604 190 496 69 564 128 l 624 181 b 353 -17 588 71 490 -17 b 51 328 172 -17 51 140 b 372 711 51 571 188 711 b 629 403 543 711 629 572 l 144 403 b 394 69 149 200 244 69 m 350 667 b 146 444 224 667 154 574 l 524 444 b 350 667 514 576 471 667 "},"ę":{"ha":681,"x_min":0,"x_max":0,"o":"m 624 181 b 514 32 604 121 567 68 b 406 -154 432 -54 406 -89 b 553 -221 406 -228 457 -254 l 560 -239 b 428 -292 518 -276 468 -292 b 299 -194 350 -292 299 -253 b 451 0 299 -111 365 -64 b 353 -17 422 -11 389 -17 b 51 328 172 -17 51 140 b 372 711 51 571 188 711 b 629 403 543 711 629 572 l 144 403 b 394 69 149 200 244 69 b 604 190 496 69 564 128 l 624 181 m 350 667 b 146 444 224 667 154 574 l 524 444 b 350 667 514 576 471 667 "},"f":{"ha":479,"x_min":0,"x_max":0,"o":"m 451 936 b 244 725 169 1015 244 894 l 244 694 l 449 694 l 449 653 l 244 653 l 244 82 b 274 43 244 63 254 47 l 386 19 l 386 0 l 49 0 l 49 19 l 121 39 b 150 78 140 44 150 58 l 150 653 l 33 653 l 33 694 l 150 694 l 150 740 b 451 1026 150 933 282 1063 l 451 936 "},"g":{"ha":667,"x_min":0,"x_max":0,"o":"m 425 121 b 628 -47 532 107 628 71 b 300 -264 628 -178 488 -264 b 44 -93 138 -264 44 -200 b 157 72 44 -7 106 42 b 100 171 118 92 100 129 b 149 286 100 210 117 253 b 46 476 83 326 46 393 b 319 711 46 618 153 711 b 483 672 383 711 439 697 l 590 789 l 628 756 l 518 647 b 593 476 567 607 593 547 b 319 243 593 336 488 243 b 176 272 264 243 217 253 b 156 211 163 253 156 231 b 211 149 156 178 172 154 l 425 121 m 310 676 b 144 486 215 676 144 596 b 329 278 144 365 224 278 b 493 468 424 278 493 358 b 310 676 493 589 415 676 m 322 -218 b 553 -76 447 -218 553 -162 b 408 35 553 -12 511 22 l 199 60 b 182 63 193 61 188 61 b 128 -61 158 38 128 -3 b 322 -218 128 -160 215 -218 "},"ğ":{"ha":667,"x_min":0,"x_max":0,"o":"m 333 779 b 174 967 232 779 175 847 l 211 967 b 333 854 218 886 274 854 b 457 967 393 854 450 886 l 493 967 b 333 779 492 847 435 779 m 425 121 b 628 -47 532 107 628 71 b 300 -264 628 -178 488 -264 b 44 -93 138 -264 44 -200 b 157 72 44 -7 106 42 b 100 171 118 92 100 129 b 149 286 100 210 117 253 b 46 476 83 326 46 393 b 319 711 46 618 153 711 b 483 672 383 711 439 697 l 590 789 l 628 756 l 518 647 b 593 476 567 607 593 547 b 319 243 593 336 488 243 b 176 272 264 243 217 253 b 156 211 163 253 156 231 b 211 149 156 178 172 154 l 425 121 m 310 676 b 144 486 215 676 144 596 b 329 278 144 365 224 278 b 493 468 424 278 493 358 b 310 676 493 589 415 676 m 322 -218 b 553 -76 447 -218 553 -162 b 408 35 553 -12 511 22 l 199 60 b 182 63 193 61 188 61 b 128 -61 158 38 128 -3 b 322 -218 128 -160 215 -218 "},"ĝ":{"ha":667,"x_min":0,"x_max":0,"o":"m 210 785 l 151 785 l 282 981 l 385 981 l 515 785 l 457 785 l 333 924 m 425 121 b 628 -47 532 107 628 71 b 300 -264 628 -178 488 -264 b 44 -93 138 -264 44 -200 b 157 72 44 -7 106 42 b 100 171 118 92 100 129 b 149 286 100 210 117 253 b 46 476 83 326 46 393 b 319 711 46 618 153 711 b 483 672 383 711 439 697 l 590 789 l 628 756 l 518 647 b 593 476 567 607 593 547 b 319 243 593 336 488 243 b 176 272 264 243 217 253 b 156 211 163 253 156 231 b 211 149 156 178 172 154 l 425 121 m 310 676 b 144 486 215 676 144 596 b 329 278 144 365 224 278 b 493 468 424 278 493 358 b 310 676 493 589 415 676 m 322 -218 b 553 -76 447 -218 553 -162 b 408 35 553 -12 511 22 l 199 60 b 182 63 193 61 188 61 b 128 -61 158 38 128 -3 b 322 -218 128 -160 215 -218 "},"ģ":{"ha":667,"x_min":0,"x_max":0,"o":"m 307 817 b 397 1051 286 886 319 974 l 418 1038 b 394 825 386 976 374 889 m 425 121 b 628 -47 532 107 628 71 b 300 -264 628 -178 488 -264 b 44 -93 138 -264 44 -200 b 157 72 44 -7 106 42 b 100 171 118 92 100 129 b 149 286 100 210 117 253 b 46 476 83 326 46 393 b 319 711 46 618 153 711 b 483 672 383 711 439 697 l 590 789 l 628 756 l 518 647 b 593 476 567 607 593 547 b 319 243 593 336 488 243 b 176 272 264 243 217 253 b 156 211 163 253 156 231 b 211 149 156 178 172 154 l 425 121 m 310 676 b 144 486 215 676 144 596 b 329 278 144 365 224 278 b 493 468 424 278 493 358 b 310 676 493 589 415 676 m 322 -218 b 553 -76 447 -218 553 -162 b 408 35 553 -12 511 22 l 199 60 b 182 63 193 61 188 61 b 128 -61 158 38 128 -3 b 322 -218 128 -160 215 -218 "},"ġ":{"ha":667,"x_min":0,"x_max":0,"o":"m 333 824 b 257 900 289 824 257 856 b 333 975 257 943 289 975 b 408 900 376 975 408 943 b 333 824 408 856 376 824 m 425 121 b 628 -47 532 107 628 71 b 300 -264 628 -178 488 -264 b 44 -93 138 -264 44 -200 b 157 72 44 -7 106 42 b 100 171 118 92 100 129 b 149 286 100 210 117 253 b 46 476 83 326 46 393 b 319 711 46 618 153 711 b 483 672 383 711 439 697 l 590 789 l 628 756 l 518 647 b 593 476 567 607 593 547 b 319 243 593 336 488 243 b 176 272 264 243 217 253 b 156 211 163 253 156 231 b 211 149 156 178 172 154 l 425 121 m 310 676 b 144 486 215 676 144 596 b 329 278 144 365 224 278 b 493 468 424 278 493 358 b 310 676 493 589 415 676 m 322 -218 b 553 -76 447 -218 553 -162 b 408 35 553 -12 511 22 l 199 60 b 182 63 193 61 188 61 b 128 -61 158 38 128 -3 b 322 -218 128 -160 215 -218 "},"h":{"ha":821,"x_min":0,"x_max":0,"o":"m 779 19 l 779 0 l 482 0 l 482 19 l 554 39 b 583 78 574 44 583 58 l 583 514 b 488 635 583 590 551 635 b 238 547 401 635 342 604 l 238 78 b 267 39 238 58 247 44 l 339 19 l 339 0 l 42 0 l 42 19 l 114 39 b 143 78 133 44 143 58 l 143 863 b 113 900 143 883 133 896 l 42 914 l 42 933 l 217 989 l 238 989 l 238 576 b 550 714 386 676 475 714 b 678 531 635 714 678 654 l 678 78 b 707 39 678 58 688 44 "},"ħ":{"ha":821,"x_min":0,"x_max":0,"o":"m 779 19 l 779 0 l 482 0 l 482 19 l 554 39 b 583 78 574 44 583 58 l 583 514 b 488 635 583 590 551 635 b 238 547 401 635 342 604 l 238 78 b 267 39 238 58 247 44 l 339 19 l 339 0 l 42 0 l 42 19 l 114 39 b 143 78 133 44 143 58 l 143 792 l -3 792 l -3 833 l 143 833 l 143 863 b 113 900 143 883 133 896 l 42 914 l 42 933 l 217 989 l 238 989 l 238 833 l 414 833 l 414 792 l 238 792 l 238 576 b 550 714 386 676 475 714 b 678 531 635 714 678 654 l 678 78 b 707 39 678 58 688 44 "},"ĥ":{"ha":821,"x_min":0,"x_max":0,"o":"m 68 1017 l 10 1017 l 140 1213 l 243 1213 l 374 1017 l 315 1017 l 192 1156 m 779 19 l 779 0 l 482 0 l 482 19 l 554 39 b 583 78 574 44 583 58 l 583 514 b 488 635 583 590 551 635 b 238 547 401 635 342 604 l 238 78 b 267 39 238 58 247 44 l 339 19 l 339 0 l 42 0 l 42 19 l 114 39 b 143 78 133 44 143 58 l 143 863 b 113 900 143 883 133 896 l 42 914 l 42 933 l 217 989 l 238 989 l 238 576 b 550 714 386 676 475 714 b 678 531 635 714 678 654 l 678 78 b 707 39 678 58 688 44 "},"i":{"ha":381,"x_min":0,"x_max":0,"o":"m 190 824 b 114 900 146 824 114 856 b 190 975 114 943 146 975 b 265 900 233 975 265 943 b 190 824 265 856 233 824 m 339 19 l 339 0 l 42 0 l 42 19 l 114 39 b 143 78 133 44 143 58 l 143 585 b 113 622 143 606 133 618 l 42 636 l 42 656 l 217 711 l 238 711 l 238 78 b 267 39 238 58 247 44 "},"ı":{"ha":381,"x_min":0,"x_max":0,"o":"m 339 19 l 339 0 l 42 0 l 42 19 l 114 39 b 143 78 133 44 143 58 l 143 585 b 113 622 143 606 133 618 l 42 636 l 42 656 l 217 711 l 238 711 l 238 78 b 267 39 238 58 247 44 "},"í":{"ha":381,"x_min":0,"x_max":0,"o":"m 169 785 l 125 785 l 225 981 l 331 981 m 339 19 l 339 0 l 42 0 l 42 19 l 114 39 b 143 78 133 44 143 58 l 143 585 b 113 622 143 606 133 618 l 42 636 l 42 656 l 217 711 l 238 711 l 238 78 b 267 39 238 58 247 44 "},"ĭ":{"ha":381,"x_min":0,"x_max":0,"o":"m 172 779 b 13 967 71 779 14 847 l 50 967 b 172 854 57 886 113 854 b 296 967 232 854 289 886 l 332 967 b 172 779 331 847 274 779 m 339 19 l 339 0 l 42 0 l 42 19 l 114 39 b 143 78 133 44 143 58 l 143 585 b 113 622 143 606 133 618 l 42 636 l 42 656 l 217 711 l 238 711 l 238 78 b 267 39 238 58 247 44 "},"î":{"ha":381,"x_min":0,"x_max":0,"o":"m 49 785 l -10 785 l 121 981 l 224 981 l 354 785 l 296 785 l 172 924 m 238 78 b 267 39 238 58 247 44 l 339 19 l 339 0 l 42 0 l 42 19 l 114 39 b 143 78 133 44 143 58 l 143 585 b 113 622 143 606 133 618 l 42 636 l 42 656 l 217 711 l 238 711 l 238 78 "},"ï":{"ha":381,"x_min":0,"x_max":0,"o":"m 132 900 b 57 824 132 856 100 824 b -19 900 13 824 -19 856 b 57 975 -19 943 13 975 b 132 900 100 975 132 943 m 288 975 b 363 900 331 975 363 943 b 288 824 363 856 331 824 b 211 900 243 824 211 856 b 288 975 211 943 243 975 m 238 78 b 267 39 238 58 247 44 l 339 19 l 339 0 l 42 0 l 42 19 l 114 39 b 143 78 133 44 143 58 l 143 585 b 113 622 143 606 133 618 l 42 636 l 42 656 l 217 711 l 238 711 l 238 78 "},"ì":{"ha":381,"x_min":0,"x_max":0,"o":"m 147 785 l -14 981 l 92 981 l 192 785 m 339 19 l 339 0 l 42 0 l 42 19 l 114 39 b 143 78 133 44 143 58 l 143 585 b 113 622 143 606 133 618 l 42 636 l 42 656 l 217 711 l 238 711 l 238 78 b 267 39 238 58 247 44 "},"ĳ":{"ha":707,"x_min":0,"x_max":0,"o":"m 190 824 b 114 900 146 824 114 856 b 190 975 114 943 146 975 b 265 900 233 975 265 943 b 190 824 265 856 233 824 m 531 824 b 454 900 486 824 454 856 b 531 975 454 943 486 975 b 606 900 574 975 606 943 b 531 824 606 856 574 824 m 565 714 l 586 714 l 586 32 b 390 -264 586 -112 547 -211 l 381 -249 b 492 11 467 -194 492 -190 l 492 588 b 461 625 492 608 482 621 l 390 639 l 390 658 m 238 78 b 267 39 238 58 247 44 l 339 19 l 339 0 l 42 0 l 42 19 l 114 39 b 143 78 133 44 143 58 l 143 585 b 113 622 143 606 133 618 l 42 636 l 42 656 l 217 711 l 238 711 l 238 78 "},"ī":{"ha":381,"x_min":0,"x_max":0,"o":"m 342 863 l 342 814 l 3 814 l 3 863 m 238 78 b 267 39 238 58 247 44 l 339 19 l 339 0 l 42 0 l 42 19 l 114 39 b 143 78 133 44 143 58 l 143 585 b 113 622 143 606 133 618 l 42 636 l 42 656 l 217 711 l 238 711 l 238 78 "},"į":{"ha":381,"x_min":0,"x_max":0,"o":"m 172 824 b 96 900 128 824 96 856 b 172 975 96 943 128 975 b 247 900 215 975 247 943 b 172 824 247 856 215 824 m 378 -242 b 246 -294 336 -279 286 -294 b 117 -197 168 -294 117 -256 b 313 0 117 -101 215 -53 l 42 0 l 42 19 l 114 39 b 143 78 133 44 143 58 l 143 585 b 113 622 143 606 133 618 l 42 636 l 42 656 l 217 711 l 238 711 l 238 78 b 267 39 238 58 247 44 l 339 19 l 339 0 b 224 -157 264 -58 224 -90 b 371 -224 224 -231 275 -257 "},"ĩ":{"ha":381,"x_min":0,"x_max":0,"o":"m 254 821 b 61 897 192 821 125 897 b 7 824 39 897 19 874 l -22 826 b 92 967 -15 907 33 967 b 285 890 154 967 221 890 b 339 964 307 890 326 914 l 368 961 b 254 821 361 881 313 821 m 238 78 b 267 39 238 58 247 44 l 339 19 l 339 0 l 42 0 l 42 19 l 114 39 b 143 78 133 44 143 58 l 143 585 b 113 622 143 606 133 618 l 42 636 l 42 656 l 217 711 l 238 711 l 238 78 "},"j":{"ha":354,"x_min":0,"x_max":0,"o":"m 178 824 b 101 900 133 824 101 856 b 178 975 101 943 133 975 b 253 900 221 975 253 943 b 178 824 253 856 221 824 m 213 714 l 233 714 l 233 32 b 38 -264 233 -112 194 -211 l 28 -249 b 139 11 114 -194 139 -190 l 139 588 b 108 625 139 608 129 621 l 38 639 l 38 658 "},"ȷ":{"ha":354,"x_min":0,"x_max":0,"o":"m 233 714 l 233 32 b 38 -264 233 -112 194 -211 l 28 -249 b 139 11 114 -194 139 -190 l 139 588 b 108 625 139 608 129 621 l 38 639 l 38 658 l 213 714 "},"ĵ":{"ha":354,"x_min":0,"x_max":0,"o":"m 360 785 l 301 785 l 178 924 l 54 785 l -4 785 l 126 981 l 229 981 m 213 714 l 233 714 l 233 32 b 38 -264 233 -112 194 -211 l 28 -249 b 139 11 114 -194 139 -190 l 139 588 b 108 625 139 608 129 621 l 38 639 l 38 658 "},"k":{"ha":744,"x_min":0,"x_max":0,"o":"m 721 21 l 721 0 l 542 0 l 294 364 b 253 386 285 379 271 386 l 238 386 l 238 78 b 267 39 238 58 247 44 l 339 19 l 339 0 l 42 0 l 42 19 l 114 39 b 143 78 133 44 143 58 l 143 857 b 113 894 143 878 133 890 l 42 908 l 42 928 l 217 983 l 238 983 l 238 428 l 268 428 b 311 444 285 428 299 432 l 499 625 b 492 658 518 643 517 651 l 439 674 l 439 694 l 685 694 l 685 674 l 608 653 b 569 632 593 649 581 643 l 360 435 l 613 69 b 650 43 622 54 633 49 "},"ķ":{"ha":744,"x_min":0,"x_max":0,"o":"m 721 21 l 721 0 l 542 0 l 294 364 b 253 386 285 379 271 386 l 238 386 l 238 78 b 267 39 238 58 247 44 l 339 19 l 339 0 l 42 0 l 42 19 l 114 39 b 143 78 133 44 143 58 l 143 857 b 113 894 143 878 133 890 l 42 908 l 42 928 l 217 983 l 238 983 l 238 428 l 268 428 b 311 444 285 428 299 432 l 499 625 b 492 658 518 643 517 651 l 439 674 l 439 694 l 685 694 l 685 674 l 608 653 b 569 632 593 649 581 643 l 360 435 l 613 69 b 650 43 622 54 633 49 m 489 -60 b 399 -294 510 -129 476 -217 l 378 -281 b 401 -68 410 -219 422 -132 "},"ĸ":{"ha":753,"x_min":0,"x_max":0,"o":"m 729 21 l 729 0 l 550 0 l 303 364 b 261 386 293 379 279 386 l 238 386 l 238 78 b 267 39 238 58 247 44 l 339 19 l 339 0 l 42 0 l 42 19 l 114 39 b 143 78 133 44 143 58 l 143 617 b 113 654 143 638 133 649 l 42 675 l 42 694 l 238 694 l 238 428 l 276 428 b 319 444 293 428 307 432 l 507 625 b 500 658 526 643 525 651 l 447 674 l 447 694 l 693 694 l 693 674 l 617 653 b 578 632 601 649 589 643 l 368 435 l 621 69 b 658 43 631 54 642 49 "},"l":{"ha":381,"x_min":0,"x_max":0,"o":"m 339 19 l 339 0 l 42 0 l 42 19 l 114 39 b 143 78 133 44 143 58 l 143 857 b 113 894 143 878 133 890 l 42 908 l 42 928 l 217 983 l 238 983 l 238 78 b 267 39 238 58 247 44 "},"ĺ":{"ha":381,"x_min":0,"x_max":0,"o":"m 181 1017 l 136 1017 l 236 1213 l 342 1213 m 238 78 b 267 39 238 58 247 44 l 339 19 l 339 0 l 42 0 l 42 19 l 114 39 b 143 78 133 44 143 58 l 143 857 b 113 894 143 878 133 890 l 42 908 l 42 928 l 217 983 l 238 983 l 238 78 "},"ľ":{"ha":381,"x_min":0,"x_max":0,"o":"m 331 785 l 294 785 l 322 1018 l 410 1018 m 238 78 b 267 39 238 58 247 44 l 339 19 l 339 0 l 42 0 l 42 19 l 114 39 b 143 78 133 44 143 58 l 143 857 b 113 894 143 878 133 890 l 42 908 l 42 928 l 217 983 l 238 983 l 238 78 "},"ļ":{"ha":381,"x_min":0,"x_max":0,"o":"m 339 19 l 339 0 l 42 0 l 42 19 l 114 39 b 143 78 133 44 143 58 l 143 857 b 113 894 143 878 133 890 l 42 908 l 42 928 l 217 983 l 238 983 l 238 78 b 267 39 238 58 247 44 m 221 -60 b 131 -294 242 -129 208 -217 l 110 -281 b 133 -68 142 -219 154 -132 "},"ŀ":{"ha":581,"x_min":0,"x_max":0,"o":"m 238 78 b 267 39 238 58 247 44 l 339 19 l 339 0 l 42 0 l 42 19 l 114 39 b 143 78 133 44 143 58 l 143 857 b 113 894 143 878 133 890 l 42 908 l 42 928 l 217 983 l 238 983 l 238 78 m 401 565 b 486 481 453 565 486 528 b 401 396 486 432 449 396 b 317 481 354 396 317 432 b 401 565 317 528 354 565 "},"ł":{"ha":381,"x_min":0,"x_max":0,"o":"m 238 78 b 267 39 238 58 247 44 l 339 19 l 339 0 l 42 0 l 42 19 l 114 39 b 143 78 133 44 143 58 l 143 368 l 28 311 l 8 349 l 143 415 l 143 857 b 113 894 143 878 133 890 l 42 908 l 42 928 l 217 983 l 238 983 l 238 461 l 335 510 l 354 472 l 238 415 l 238 78 "},"m":{"ha":1233,"x_min":0,"x_max":0,"o":"m 1192 19 l 1192 0 l 894 0 l 894 19 l 967 39 b 996 78 986 44 996 58 l 996 489 b 886 631 996 601 978 631 b 664 544 806 631 740 589 l 664 78 b 693 39 664 58 674 44 l 765 19 l 765 0 l 468 0 l 468 19 l 540 39 b 569 78 560 44 569 58 l 569 489 b 460 631 569 601 551 631 b 238 549 374 631 317 588 l 238 78 b 267 39 238 58 247 44 l 339 19 l 339 0 l 42 0 l 42 19 l 114 39 b 143 78 133 44 143 58 l 143 585 b 113 622 143 606 133 618 l 42 636 l 42 656 l 217 711 l 238 711 l 238 576 b 524 711 332 638 397 711 b 660 574 624 711 647 657 b 950 711 753 640 828 711 b 1090 499 1056 711 1090 663 l 1090 78 b 1119 39 1090 58 1100 44 "},"n":{"ha":821,"x_min":0,"x_max":0,"o":"m 779 19 l 779 0 l 482 0 l 482 19 l 554 39 b 583 78 574 44 583 58 l 583 514 b 488 635 583 590 551 635 b 238 547 401 635 342 604 l 238 78 b 267 39 238 58 247 44 l 339 19 l 339 0 l 42 0 l 42 19 l 114 39 b 143 78 133 44 143 58 l 143 585 b 113 622 143 606 133 618 l 42 636 l 42 656 l 217 711 l 238 711 l 238 576 b 550 714 386 676 475 714 b 678 531 635 714 678 654 l 678 78 b 707 39 678 58 688 44 "},"ń":{"ha":821,"x_min":0,"x_max":0,"o":"m 403 785 l 358 785 l 458 981 l 564 981 m 779 19 l 779 0 l 482 0 l 482 19 l 554 39 b 583 78 574 44 583 58 l 583 514 b 488 635 583 590 551 635 b 238 547 401 635 342 604 l 238 78 b 267 39 238 58 247 44 l 339 19 l 339 0 l 42 0 l 42 19 l 114 39 b 143 78 133 44 143 58 l 143 585 b 113 622 143 606 133 618 l 42 636 l 42 656 l 217 711 l 238 711 l 238 576 b 550 714 386 676 475 714 b 678 531 635 714 678 654 l 678 78 b 707 39 678 58 688 44 "},"ŉ":{"ha":821,"x_min":0,"x_max":0,"o":"m 296 943 b 107 725 296 824 224 738 l 107 753 b 236 897 167 765 233 821 b 107 968 163 868 107 917 b 196 1057 107 1019 147 1057 b 296 943 256 1057 296 1010 m 779 19 l 779 0 l 482 0 l 482 19 l 554 39 b 583 78 574 44 583 58 l 583 514 b 488 635 583 590 551 635 b 238 547 401 635 342 604 l 238 78 b 267 39 238 58 247 44 l 339 19 l 339 0 l 42 0 l 42 19 l 114 39 b 143 78 133 44 143 58 l 143 585 b 113 622 143 606 133 618 l 42 636 l 42 656 l 217 711 l 238 711 l 238 576 b 550 714 386 676 475 714 b 678 531 635 714 678 654 l 678 78 b 707 39 678 58 688 44 "},"ň":{"ha":821,"x_min":0,"x_max":0,"o":"m 357 785 l 226 981 l 285 981 l 408 842 l 532 981 l 590 981 l 460 785 m 779 19 l 779 0 l 482 0 l 482 19 l 554 39 b 583 78 574 44 583 58 l 583 514 b 488 635 583 590 551 635 b 238 547 401 635 342 604 l 238 78 b 267 39 238 58 247 44 l 339 19 l 339 0 l 42 0 l 42 19 l 114 39 b 143 78 133 44 143 58 l 143 585 b 113 622 143 606 133 618 l 42 636 l 42 656 l 217 711 l 238 711 l 238 576 b 550 714 386 676 475 714 b 678 531 635 714 678 654 l 678 78 b 707 39 678 58 688 44 "},"ņ":{"ha":821,"x_min":0,"x_max":0,"o":"m 779 19 l 779 0 l 482 0 l 482 19 l 554 39 b 583 78 574 44 583 58 l 583 514 b 488 635 583 590 551 635 b 238 547 401 635 342 604 l 238 78 b 267 39 238 58 247 44 l 339 19 l 339 0 l 42 0 l 42 19 l 114 39 b 143 78 133 44 143 58 l 143 585 b 113 622 143 606 133 618 l 42 636 l 42 656 l 217 711 l 238 711 l 238 576 b 550 714 386 676 475 714 b 678 531 635 714 678 654 l 678 78 b 707 39 678 58 688 44 m 450 -60 b 360 -294 471 -129 438 -217 l 339 -281 b 363 -68 371 -219 383 -132 "},"ŋ":{"ha":719,"x_min":0,"x_max":0,"o":"m 550 714 b 678 531 635 714 678 654 l 678 115 b 482 -274 678 -29 639 -203 l 471 -258 b 583 94 557 -186 583 -107 l 583 514 b 488 635 583 590 551 635 b 238 547 401 635 342 604 l 238 78 b 267 39 238 58 247 44 l 339 19 l 339 0 l 42 0 l 42 19 l 114 39 b 143 78 133 44 143 58 l 143 585 b 113 622 143 606 133 618 l 42 636 l 42 656 l 217 711 l 238 711 l 238 576 b 550 714 386 676 475 714 "},"ñ":{"ha":821,"x_min":0,"x_max":0,"o":"m 297 897 b 243 824 275 897 256 874 l 214 826 b 328 967 221 907 269 967 b 521 890 390 967 457 890 b 575 964 543 890 563 914 l 604 961 b 490 821 597 881 549 821 b 297 897 428 821 361 897 m 779 19 l 779 0 l 482 0 l 482 19 l 554 39 b 583 78 574 44 583 58 l 583 514 b 488 635 583 590 551 635 b 238 547 401 635 342 604 l 238 78 b 267 39 238 58 247 44 l 339 19 l 339 0 l 42 0 l 42 19 l 114 39 b 143 78 133 44 143 58 l 143 585 b 113 622 143 606 133 618 l 42 636 l 42 656 l 217 711 l 238 711 l 238 576 b 550 714 386 676 475 714 b 678 531 635 714 678 654 l 678 78 b 707 39 678 58 688 44 "},"o":{"ha":733,"x_min":0,"x_max":0,"o":"m 361 -17 b 51 332 176 -17 51 128 b 369 711 51 563 199 711 b 682 360 556 711 682 565 b 361 -17 682 131 533 -17 m 379 32 b 582 319 501 32 582 153 b 354 664 582 449 526 664 b 151 378 233 664 151 544 b 379 32 151 250 207 32 "},"ó":{"ha":733,"x_min":0,"x_max":0,"o":"m 328 785 l 428 981 l 533 981 l 372 785 m 361 -17 b 51 332 176 -17 51 128 b 369 711 51 563 199 711 b 682 360 556 711 682 565 b 361 -17 682 131 533 -17 m 379 32 b 582 319 501 32 582 153 b 354 664 582 449 526 664 b 151 378 233 664 151 544 b 379 32 151 250 207 32 "},"ŏ":{"ha":733,"x_min":0,"x_max":0,"o":"m 367 779 b 207 967 265 779 208 847 l 244 967 b 367 854 251 886 307 854 b 490 967 426 854 483 886 l 526 967 b 367 779 525 847 468 779 m 361 -17 b 51 332 176 -17 51 128 b 369 711 51 563 199 711 b 682 360 556 711 682 565 b 361 -17 682 131 533 -17 m 379 32 b 582 319 501 32 582 153 b 354 664 582 449 526 664 b 151 378 233 664 151 544 b 379 32 151 250 207 32 "},"ô":{"ha":733,"x_min":0,"x_max":0,"o":"m 243 785 l 185 785 l 315 981 l 418 981 l 549 785 l 490 785 l 367 924 m 369 711 b 682 360 556 711 682 565 b 361 -17 682 131 533 -17 b 51 332 176 -17 51 128 b 369 711 51 563 199 711 m 379 32 b 582 319 501 32 582 153 b 354 664 582 449 526 664 b 151 378 233 664 151 544 b 379 32 151 250 207 32 "},"ö":{"ha":733,"x_min":0,"x_max":0,"o":"m 251 824 b 175 900 207 824 175 856 b 251 975 175 943 207 975 b 326 900 294 975 326 943 b 251 824 326 856 294 824 m 482 824 b 406 900 438 824 406 856 b 482 975 406 943 438 975 b 557 900 525 975 557 943 b 482 824 557 856 525 824 m 361 -17 b 51 332 176 -17 51 128 b 369 711 51 563 199 711 b 682 360 556 711 682 565 b 361 -17 682 131 533 -17 m 379 32 b 582 319 501 32 582 153 b 354 664 582 449 526 664 b 151 378 233 664 151 544 b 379 32 151 250 207 32 "},"ò":{"ha":733,"x_min":0,"x_max":0,"o":"m 186 981 l 292 981 l 392 785 l 347 785 m 361 -17 b 51 332 176 -17 51 128 b 369 711 51 563 199 711 b 682 360 556 711 682 565 b 361 -17 682 131 533 -17 m 379 32 b 582 319 501 32 582 153 b 354 664 582 449 526 664 b 151 378 233 664 151 544 b 379 32 151 250 207 32 "},"ő":{"ha":733,"x_min":0,"x_max":0,"o":"m 249 785 l 349 981 l 440 981 l 293 785 m 400 785 l 500 981 l 592 981 l 444 785 m 361 -17 b 51 332 176 -17 51 128 b 369 711 51 563 199 711 b 682 360 556 711 682 565 b 361 -17 682 131 533 -17 m 379 32 b 582 319 501 32 582 153 b 354 664 582 449 526 664 b 151 378 233 664 151 544 b 379 32 151 250 207 32 "},"ō":{"ha":733,"x_min":0,"x_max":0,"o":"m 197 863 l 536 863 l 536 814 l 197 814 m 361 -17 b 51 332 176 -17 51 128 b 369 711 51 563 199 711 b 682 360 556 711 682 565 b 361 -17 682 131 533 -17 m 379 32 b 582 319 501 32 582 153 b 354 664 582 449 526 664 b 151 378 233 664 151 544 b 379 32 151 250 207 32 "},"ø":{"ha":733,"x_min":0,"x_max":0,"o":"m 542 661 b 682 360 629 601 682 493 b 361 -17 682 131 533 -17 b 229 11 313 -17 268 -7 l 172 -108 l 133 -93 l 193 32 b 51 332 104 90 51 199 b 369 711 51 563 199 711 b 507 681 419 711 467 700 l 565 803 l 600 783 l 542 661 m 151 378 b 231 108 151 299 172 183 l 476 617 b 354 664 444 646 404 664 b 151 378 233 664 151 544 m 379 32 b 582 319 501 32 582 153 b 506 585 582 399 561 511 l 261 76 b 379 32 292 49 331 32 "},"õ":{"ha":733,"x_min":0,"x_max":0,"o":"m 171 826 b 285 967 178 907 226 967 b 478 890 347 967 414 890 b 532 964 500 890 519 914 l 561 961 b 447 821 554 881 506 821 b 254 897 385 821 318 897 b 200 824 232 897 213 874 l 171 826 m 361 -17 b 51 332 176 -17 51 128 b 369 711 51 563 199 711 b 682 360 556 711 682 565 b 361 -17 682 131 533 -17 m 379 32 b 582 319 501 32 582 153 b 354 664 582 449 526 664 b 151 378 233 664 151 544 b 379 32 151 250 207 32 "},"œ":{"ha":1219,"x_min":0,"x_max":0,"o":"m 933 69 b 1143 190 1035 69 1103 128 l 1163 181 b 892 -17 1126 71 1029 -17 b 631 149 774 -17 681 50 b 361 -17 574 44 472 -17 b 51 332 176 -17 51 128 b 369 711 51 563 199 711 b 639 549 492 711 588 649 b 911 711 694 654 793 711 b 1168 403 1082 711 1168 572 l 683 403 b 933 69 688 200 783 69 m 889 667 b 685 444 763 667 693 574 l 1063 444 b 889 667 1053 576 1010 667 m 379 32 b 582 319 501 32 582 153 b 354 664 582 449 526 664 b 151 378 233 664 151 544 b 379 32 151 250 207 32 "},"p":{"ha":793,"x_min":0,"x_max":0,"o":"m 463 711 b 742 371 631 711 742 560 b 403 -17 742 124 579 -17 b 238 50 324 -17 275 11 l 238 -183 b 267 -222 238 -203 247 -217 l 339 -242 l 339 -261 l 42 -261 l 42 -242 l 114 -222 b 143 -183 133 -217 143 -203 l 143 586 b 113 624 143 607 133 619 l 42 638 l 42 657 l 217 713 l 238 713 l 238 586 b 463 711 276 639 356 711 m 438 25 b 642 318 556 25 642 147 b 428 639 642 468 578 639 b 238 558 350 639 269 597 l 238 239 b 438 25 238 168 289 25 "},"þ":{"ha":786,"x_min":0,"x_max":0,"o":"m 456 711 b 735 371 624 711 735 560 b 396 -17 735 124 572 -17 b 231 50 317 -17 268 11 l 231 -183 b 260 -222 231 -203 240 -217 l 332 -242 l 332 -261 l 35 -261 l 35 -242 l 107 -222 b 136 -183 126 -217 136 -203 l 136 858 b 106 896 136 879 126 892 l 35 910 l 35 929 l 210 985 l 231 985 l 231 586 b 456 711 269 639 349 711 m 431 25 b 635 318 549 25 635 147 b 421 639 635 468 571 639 b 231 558 343 639 263 597 l 231 239 b 431 25 231 168 282 25 "},"q":{"ha":789,"x_min":0,"x_max":0,"o":"m 744 -228 l 744 -247 l 447 -247 l 447 -228 l 519 -208 b 549 -169 539 -203 549 -189 l 549 108 b 324 -17 510 57 431 -17 b 44 324 156 -17 44 135 b 383 711 44 571 207 711 b 568 625 476 711 528 674 l 608 711 l 643 711 l 643 -169 b 672 -208 643 -189 653 -203 m 358 57 b 549 138 436 57 517 99 l 549 457 b 349 672 549 526 497 672 b 144 376 231 672 144 547 b 358 57 144 228 208 57 "},"r":{"ha":544,"x_min":0,"x_max":0,"o":"m 440 711 b 503 704 465 713 489 708 l 503 607 b 418 624 478 618 447 625 b 238 468 343 621 278 565 l 238 79 b 268 42 238 58 247 46 l 381 19 l 381 0 l 42 0 l 42 19 l 114 39 b 143 78 133 44 143 58 l 143 585 b 113 622 143 606 133 618 l 42 636 l 42 656 l 217 711 l 238 711 l 238 508 b 440 711 289 646 357 708 "},"ŕ":{"ha":544,"x_min":0,"x_max":0,"o":"m 292 785 l 247 785 l 347 981 l 453 981 m 440 711 b 503 704 465 713 489 708 l 503 607 b 418 624 478 618 447 625 b 238 468 343 621 278 565 l 238 79 b 268 42 238 58 247 46 l 381 19 l 381 0 l 42 0 l 42 19 l 114 39 b 143 78 133 44 143 58 l 143 585 b 113 622 143 606 133 618 l 42 636 l 42 656 l 217 711 l 238 711 l 238 508 b 440 711 289 646 357 708 "},"ř":{"ha":544,"x_min":0,"x_max":0,"o":"m 235 785 l 104 981 l 163 981 l 286 842 l 410 981 l 468 981 l 338 785 m 440 711 b 503 704 465 713 489 708 l 503 607 b 418 624 478 618 447 625 b 238 468 343 621 278 565 l 238 79 b 268 42 238 58 247 46 l 381 19 l 381 0 l 42 0 l 42 19 l 114 39 b 143 78 133 44 143 58 l 143 585 b 113 622 143 606 133 618 l 42 636 l 42 656 l 217 711 l 238 711 l 238 508 b 440 711 289 646 357 708 "},"ŗ":{"ha":544,"x_min":0,"x_max":0,"o":"m 440 711 b 503 704 465 713 489 708 l 503 607 b 418 624 478 618 447 625 b 238 468 343 621 278 565 l 238 79 b 268 42 238 58 247 46 l 381 19 l 381 0 l 42 0 l 42 19 l 114 39 b 143 78 133 44 143 58 l 143 585 b 113 622 143 606 133 618 l 42 636 l 42 656 l 217 711 l 238 711 l 238 508 b 440 711 289 646 357 708 m 233 -60 b 143 -294 254 -129 221 -217 l 122 -281 b 146 -68 154 -219 167 -132 "},"s":{"ha":560,"x_min":0,"x_max":0,"o":"m 268 -17 b 54 50 172 -17 96 18 l 54 181 l 75 181 b 278 25 108 88 190 25 b 431 160 374 25 431 92 b 250 329 431 246 350 293 b 50 539 158 363 51 406 b 269 711 49 642 128 711 b 456 671 332 711 407 694 l 456 538 l 436 538 b 264 671 410 621 339 671 b 129 558 175 671 129 628 b 297 415 129 482 206 446 b 515 197 396 382 514 328 b 268 -17 517 82 421 -17 "},"ś":{"ha":560,"x_min":0,"x_max":0,"o":"m 218 785 l 318 981 l 424 981 l 263 785 m 268 -17 b 54 50 172 -17 96 18 l 54 181 l 75 181 b 278 25 108 88 190 25 b 431 160 374 25 431 92 b 250 329 431 246 350 293 b 50 539 158 363 51 406 b 269 711 49 642 128 711 b 456 671 332 711 407 694 l 456 538 l 436 538 b 264 671 410 621 339 671 b 129 558 175 671 129 628 b 297 415 129 482 206 446 b 515 197 396 382 514 328 b 268 -17 517 82 421 -17 "},"š":{"ha":560,"x_min":0,"x_max":0,"o":"m 206 785 l 75 981 l 133 981 l 257 842 l 381 981 l 439 981 l 308 785 m 515 197 b 268 -17 517 82 421 -17 b 54 50 172 -17 96 18 l 54 181 l 75 181 b 278 25 108 88 190 25 b 431 160 374 25 431 92 b 250 329 431 246 350 293 b 50 539 158 363 51 406 b 269 711 49 642 128 711 b 456 671 332 711 407 694 l 456 538 l 436 538 b 264 671 410 621 339 671 b 129 558 175 671 129 628 b 297 415 129 482 206 446 b 515 197 396 382 514 328 "},"ş":{"ha":560,"x_min":0,"x_max":0,"o":"m 515 197 b 283 -17 517 86 428 -10 l 247 -78 b 336 -181 296 -89 336 -128 b 133 -285 336 -265 261 -311 l 135 -265 b 263 -201 210 -276 263 -253 b 174 -131 263 -168 233 -140 l 250 -17 b 54 50 163 -12 93 19 l 54 181 l 75 181 b 278 25 108 88 190 25 b 431 160 374 25 431 92 b 250 329 431 246 350 293 b 50 539 158 363 51 406 b 269 711 49 642 128 711 b 456 671 332 711 407 694 l 456 538 l 436 538 b 264 671 410 621 339 671 b 129 558 175 671 129 628 b 297 415 129 482 206 446 b 515 197 396 382 514 328 "},"ŝ":{"ha":560,"x_min":0,"x_max":0,"o":"m 133 785 l 75 785 l 206 981 l 308 981 l 439 785 l 381 785 l 257 924 m 515 197 b 268 -17 517 82 421 -17 b 54 50 172 -17 96 18 l 54 181 l 75 181 b 278 25 108 88 190 25 b 431 160 374 25 431 92 b 250 329 431 246 350 293 b 50 539 158 363 51 406 b 269 711 49 642 128 711 b 456 671 332 711 407 694 l 456 538 l 436 538 b 264 671 410 621 339 671 b 129 558 175 671 129 628 b 297 415 129 482 206 446 b 515 197 396 382 514 328 "},"ș":{"ha":560,"x_min":0,"x_max":0,"o":"m 268 -17 b 54 50 172 -17 96 18 l 54 181 l 75 181 b 278 25 108 88 190 25 b 431 160 374 25 431 92 b 250 329 431 246 350 293 b 50 539 158 363 51 406 b 269 711 49 642 128 711 b 456 671 332 711 407 694 l 456 538 l 436 538 b 264 671 410 621 339 671 b 129 558 175 671 129 628 b 297 415 129 482 206 446 b 515 197 396 382 514 328 b 268 -17 517 82 421 -17 m 300 -60 b 210 -294 321 -129 288 -217 l 189 -281 b 213 -68 221 -219 233 -132 l 300 -60 "},"ß":{"ha":822,"x_min":0,"x_max":0,"o":"m 772 181 b 550 -17 774 64 686 -17 b 307 164 456 -17 336 26 l 410 164 b 557 25 425 74 479 25 b 693 143 640 25 694 74 b 349 463 689 333 353 246 b 626 785 344 660 626 600 b 443 947 626 878 554 947 b 233 747 351 947 233 896 l 233 0 l 38 0 l 38 19 l 110 39 b 139 78 129 44 139 58 l 139 653 l 33 653 l 33 694 l 139 694 l 139 713 b 446 989 139 893 268 989 b 721 796 597 989 721 921 b 417 479 721 560 417 629 b 772 181 417 325 769 436 "},"ſ":{"ha":474,"x_min":0,"x_max":0,"o":"m 451 936 b 244 725 169 1015 244 894 l 244 82 b 274 43 244 63 254 47 l 386 19 l 386 0 l 49 0 l 49 19 l 121 39 b 150 78 140 44 150 58 l 150 653 l 33 653 l 33 694 l 150 694 b 451 1026 150 965 282 1063 l 451 936 "},"t":{"ha":494,"x_min":0,"x_max":0,"o":"m 294 694 l 453 694 l 453 653 l 294 653 l 294 0 l 200 0 l 200 653 l 42 653 l 42 694 l 203 694 l 203 893 l 274 972 l 294 972 "},"ŧ":{"ha":494,"x_min":0,"x_max":0,"o":"m 456 326 l 294 326 l 294 0 l 200 0 l 200 326 l 39 326 l 39 368 l 200 368 l 200 653 l 42 653 l 42 694 l 203 694 l 203 893 l 274 972 l 294 972 l 294 694 l 453 694 l 453 653 l 294 653 l 294 368 l 456 368 "},"ť":{"ha":494,"x_min":0,"x_max":0,"o":"m 400 785 l 428 1018 l 515 1018 l 436 785 m 294 694 l 453 694 l 453 653 l 294 653 l 294 0 l 200 0 l 200 653 l 42 653 l 42 694 l 203 694 l 203 893 l 274 972 l 294 972 "},"ţ":{"ha":494,"x_min":0,"x_max":0,"o":"m 278 0 l 232 -78 b 321 -181 281 -89 321 -128 b 118 -285 321 -265 246 -311 l 119 -265 b 247 -201 194 -276 247 -253 b 158 -131 247 -168 218 -140 l 246 0 l 200 0 l 200 653 l 42 653 l 42 694 l 203 694 l 203 893 l 274 972 l 294 972 l 294 694 l 453 694 l 453 653 l 294 653 l 294 0 "},"ț":{"ha":494,"x_min":0,"x_max":0,"o":"m 294 694 l 453 694 l 453 653 l 294 653 l 294 0 l 200 0 l 200 653 l 42 653 l 42 694 l 203 694 l 203 893 l 274 972 l 294 972 m 285 -60 b 194 -294 306 -129 272 -217 l 174 -281 b 197 -68 206 -219 218 -132 l 285 -60 "},"u":{"ha":821,"x_min":0,"x_max":0,"o":"m 779 61 l 779 42 l 604 -14 l 583 -14 l 583 121 b 271 -17 435 21 346 -17 b 143 167 186 -17 143 43 l 143 585 b 113 622 143 606 133 618 l 42 636 l 42 656 l 217 711 l 238 711 l 238 183 b 333 63 238 107 269 63 b 583 150 419 63 479 93 l 583 585 b 553 622 583 606 574 618 l 482 636 l 482 656 l 657 711 l 678 711 l 678 113 b 708 75 678 92 688 79 "},"ú":{"ha":821,"x_min":0,"x_max":0,"o":"m 400 785 l 356 785 l 456 981 l 561 981 m 779 61 l 779 42 l 604 -14 l 583 -14 l 583 121 b 271 -17 435 21 346 -17 b 143 167 186 -17 143 43 l 143 585 b 113 622 143 606 133 618 l 42 636 l 42 656 l 217 711 l 238 711 l 238 183 b 333 63 238 107 269 63 b 583 150 419 63 479 93 l 583 585 b 553 622 583 606 574 618 l 482 636 l 482 656 l 657 711 l 678 711 l 678 113 b 708 75 678 92 688 79 "},"ŭ":{"ha":821,"x_min":0,"x_max":0,"o":"m 394 779 b 235 967 293 779 236 847 l 272 967 b 394 854 279 886 335 854 b 518 967 454 854 511 886 l 554 967 b 394 779 553 847 496 779 m 779 61 l 779 42 l 604 -14 l 583 -14 l 583 121 b 271 -17 435 21 346 -17 b 143 167 186 -17 143 43 l 143 585 b 113 622 143 606 133 618 l 42 636 l 42 656 l 217 711 l 238 711 l 238 183 b 333 63 238 107 269 63 b 583 150 419 63 479 93 l 583 585 b 553 622 583 606 574 618 l 482 636 l 482 656 l 657 711 l 678 711 l 678 113 b 708 75 678 92 688 79 "},"û":{"ha":821,"x_min":0,"x_max":0,"o":"m 271 785 l 213 785 l 343 981 l 446 981 l 576 785 l 518 785 l 394 924 m 779 61 l 779 42 l 604 -14 l 583 -14 l 583 121 b 271 -17 435 21 346 -17 b 143 167 186 -17 143 43 l 143 585 b 113 622 143 606 133 618 l 42 636 l 42 656 l 217 711 l 238 711 l 238 183 b 333 63 238 107 269 63 b 583 150 419 63 479 93 l 583 585 b 553 622 583 606 574 618 l 482 636 l 482 656 l 657 711 l 678 711 l 678 113 b 708 75 678 92 688 79 "},"ü":{"ha":821,"x_min":0,"x_max":0,"o":"m 279 824 b 203 900 235 824 203 856 b 279 975 203 943 235 975 b 354 900 322 975 354 943 b 279 824 354 856 322 824 m 510 824 b 433 900 465 824 433 856 b 510 975 433 943 465 975 b 585 900 553 975 585 943 b 510 824 585 856 553 824 m 779 61 l 779 42 l 604 -14 l 583 -14 l 583 121 b 271 -17 435 21 346 -17 b 143 167 186 -17 143 43 l 143 585 b 113 622 143 606 133 618 l 42 636 l 42 656 l 217 711 l 238 711 l 238 183 b 333 63 238 107 269 63 b 583 150 419 63 479 93 l 583 585 b 553 622 583 606 574 618 l 482 636 l 482 656 l 657 711 l 678 711 l 678 113 b 708 75 678 92 688 79 "},"ù":{"ha":821,"x_min":0,"x_max":0,"o":"m 375 785 l 214 981 l 319 981 l 419 785 m 779 61 l 779 42 l 604 -14 l 583 -14 l 583 121 b 271 -17 435 21 346 -17 b 143 167 186 -17 143 43 l 143 585 b 113 622 143 606 133 618 l 42 636 l 42 656 l 217 711 l 238 711 l 238 183 b 333 63 238 107 269 63 b 583 150 419 63 479 93 l 583 585 b 553 622 583 606 574 618 l 482 636 l 482 656 l 657 711 l 678 711 l 678 113 b 708 75 678 92 688 79 "},"ű":{"ha":821,"x_min":0,"x_max":0,"o":"m 321 785 l 276 785 l 376 981 l 468 981 m 428 785 l 528 981 l 619 981 l 472 785 m 779 61 l 779 42 l 604 -14 l 583 -14 l 583 121 b 271 -17 435 21 346 -17 b 143 167 186 -17 143 43 l 143 585 b 113 622 143 606 133 618 l 42 636 l 42 656 l 217 711 l 238 711 l 238 183 b 333 63 238 107 269 63 b 583 150 419 63 479 93 l 583 585 b 553 622 583 606 574 618 l 482 636 l 482 656 l 657 711 l 678 711 l 678 113 b 708 75 678 92 688 79 "},"ū":{"ha":821,"x_min":0,"x_max":0,"o":"m 564 814 l 225 814 l 225 863 l 564 863 m 779 61 l 779 42 l 604 -14 l 583 -14 l 583 121 b 271 -17 435 21 346 -17 b 143 167 186 -17 143 43 l 143 585 b 113 622 143 606 133 618 l 42 636 l 42 656 l 217 711 l 238 711 l 238 183 b 333 63 238 107 269 63 b 583 150 419 63 479 93 l 583 585 b 553 622 583 606 574 618 l 482 636 l 482 656 l 657 711 l 678 711 l 678 113 b 708 75 678 92 688 79 "},"ų":{"ha":821,"x_min":0,"x_max":0,"o":"m 635 -4 b 571 -142 588 -58 571 -90 b 718 -208 571 -215 622 -242 l 725 -226 b 593 -279 683 -264 633 -279 b 464 -182 515 -279 464 -240 b 583 -12 464 -110 514 -65 l 583 121 b 271 -17 435 21 346 -17 b 143 167 186 -17 143 43 l 143 585 b 113 622 143 606 133 618 l 42 636 l 42 656 l 217 711 l 238 711 l 238 183 b 333 63 238 107 269 63 b 583 150 419 63 479 93 l 583 585 b 553 622 583 606 574 618 l 482 636 l 482 656 l 657 711 l 678 711 l 678 113 b 708 75 678 92 688 79 l 779 61 l 779 42 "},"ů":{"ha":821,"x_min":0,"x_max":0,"o":"m 394 774 b 264 897 319 774 264 826 b 394 1021 264 968 319 1021 b 525 897 469 1021 525 968 b 394 774 525 826 469 774 m 394 982 b 314 899 349 982 314 947 b 394 813 314 850 349 813 b 476 899 442 813 476 850 b 394 982 476 947 442 982 m 779 61 l 779 42 l 604 -14 l 583 -14 l 583 121 b 271 -17 435 21 346 -17 b 143 167 186 -17 143 43 l 143 585 b 113 622 143 606 133 618 l 42 636 l 42 656 l 217 711 l 238 711 l 238 183 b 333 63 238 107 269 63 b 583 150 419 63 479 93 l 583 585 b 553 622 583 606 574 618 l 482 636 l 482 656 l 657 711 l 678 711 l 678 113 b 708 75 678 92 688 79 "},"ũ":{"ha":821,"x_min":0,"x_max":0,"o":"m 282 897 b 228 824 260 897 240 874 l 199 826 b 313 967 206 907 254 967 b 506 890 375 967 442 890 b 560 964 528 890 547 914 l 589 961 b 475 821 582 881 533 821 b 282 897 413 821 346 897 m 779 61 l 779 42 l 604 -14 l 583 -14 l 583 121 b 271 -17 435 21 346 -17 b 143 167 186 -17 143 43 l 143 585 b 113 622 143 606 133 618 l 42 636 l 42 656 l 217 711 l 238 711 l 238 183 b 333 63 238 107 269 63 b 583 150 419 63 479 93 l 583 585 b 553 622 583 606 574 618 l 482 636 l 482 656 l 657 711 l 678 711 l 678 113 b 708 75 678 92 688 79 "},"v":{"ha":754,"x_min":0,"x_max":0,"o":"m 733 694 l 733 675 l 681 653 b 647 619 664 646 654 636 l 392 -17 l 369 -17 l 103 619 b 71 653 96 635 86 646 l 21 675 l 21 694 l 313 694 l 313 675 l 233 653 b 211 608 211 646 201 631 l 406 129 l 597 608 b 579 653 606 629 603 646 l 497 675 l 497 694 "},"w":{"ha":1160,"x_min":0,"x_max":0,"o":"m 829 132 l 1007 604 b 986 649 1015 626 1007 642 l 903 675 l 903 694 l 1139 694 l 1139 675 l 1083 649 b 1053 614 1068 642 1060 631 l 813 -17 l 792 -17 l 581 511 l 376 -17 l 356 -17 l 107 614 b 75 649 101 629 90 642 l 21 675 l 21 694 l 313 694 l 313 675 l 235 649 b 214 604 214 642 206 626 l 393 132 l 583 632 l 635 632 "},"ẃ":{"ha":1160,"x_min":0,"x_max":0,"o":"m 539 785 l 639 981 l 744 981 l 583 785 m 829 132 l 1007 604 b 986 649 1015 626 1007 642 l 903 675 l 903 694 l 1139 694 l 1139 675 l 1083 649 b 1053 614 1068 642 1060 631 l 813 -17 l 792 -17 l 581 511 l 376 -17 l 356 -17 l 107 614 b 75 649 101 629 90 642 l 21 675 l 21 694 l 313 694 l 313 675 l 235 649 b 214 604 214 642 206 626 l 393 132 l 583 632 l 635 632 "},"ŵ":{"ha":1160,"x_min":0,"x_max":0,"o":"m 454 785 l 396 785 l 526 981 l 629 981 l 760 785 l 701 785 l 578 924 m 1139 694 l 1139 675 l 1083 649 b 1053 614 1068 642 1060 631 l 813 -17 l 792 -17 l 581 511 l 376 -17 l 356 -17 l 107 614 b 75 649 101 629 90 642 l 21 675 l 21 694 l 313 694 l 313 675 l 235 649 b 214 604 214 642 206 626 l 393 132 l 583 632 l 635 632 l 829 132 l 1007 604 b 986 649 1015 626 1007 642 l 903 675 l 903 694 "},"ẅ":{"ha":1160,"x_min":0,"x_max":0,"o":"m 463 824 b 386 900 418 824 386 856 b 463 975 386 943 418 975 b 538 900 506 975 538 943 b 463 824 538 856 506 824 m 693 824 b 617 900 649 824 617 856 b 693 975 617 943 649 975 b 768 900 736 975 768 943 b 693 824 768 856 736 824 m 829 132 l 1007 604 b 986 649 1015 626 1007 642 l 903 675 l 903 694 l 1139 694 l 1139 675 l 1083 649 b 1053 614 1068 642 1060 631 l 813 -17 l 792 -17 l 581 511 l 376 -17 l 356 -17 l 107 614 b 75 649 101 629 90 642 l 21 675 l 21 694 l 313 694 l 313 675 l 235 649 b 214 604 214 642 206 626 l 393 132 l 583 632 l 635 632 "},"ẁ":{"ha":1160,"x_min":0,"x_max":0,"o":"m 397 981 l 503 981 l 603 785 l 558 785 m 829 132 l 1007 604 b 986 649 1015 626 1007 642 l 903 675 l 903 694 l 1139 694 l 1139 675 l 1083 649 b 1053 614 1068 642 1060 631 l 813 -17 l 792 -17 l 581 511 l 376 -17 l 356 -17 l 107 614 b 75 649 101 629 90 642 l 21 675 l 21 694 l 313 694 l 313 675 l 235 649 b 214 604 214 642 206 626 l 393 132 l 583 632 l 635 632 "},"x":{"ha":733,"x_min":0,"x_max":0,"o":"m 713 19 l 713 0 l 440 0 l 440 19 l 483 32 b 489 99 522 43 510 71 l 335 315 l 192 107 b 190 38 169 75 161 47 l 242 19 l 242 0 l 22 0 l 22 19 l 74 39 b 132 92 101 49 110 60 l 310 350 l 119 617 b 68 661 113 626 94 653 l 21 675 l 21 694 l 293 694 l 293 675 l 250 663 b 247 596 211 651 226 624 l 379 414 l 500 585 b 493 658 525 619 524 649 l 440 675 l 440 694 l 660 694 l 660 675 l 626 661 b 572 617 600 650 589 639 l 404 381 l 621 81 b 676 31 639 56 653 38 "},"y":{"ha":754,"x_min":0,"x_max":0,"o":"m 733 694 l 733 675 l 681 653 b 647 619 664 646 654 636 l 361 -74 b 179 -261 304 -210 261 -261 b 136 -258 164 -261 156 -261 l 136 -139 b 200 -144 156 -143 179 -144 b 333 -39 264 -143 301 -118 l 360 26 l 103 619 b 71 653 96 635 86 646 l 21 675 l 21 694 l 313 694 l 313 675 l 233 653 b 211 608 211 646 201 631 l 407 147 l 597 608 b 579 653 606 629 603 646 l 497 675 l 497 694 "},"ý":{"ha":754,"x_min":0,"x_max":0,"o":"m 367 785 l 467 981 l 572 981 l 411 785 m 733 694 l 733 675 l 681 653 b 647 619 664 646 654 636 l 361 -74 b 179 -261 304 -210 261 -261 b 136 -258 164 -261 156 -261 l 136 -139 b 200 -144 156 -143 179 -144 b 333 -39 264 -143 301 -118 l 360 26 l 103 619 b 71 653 96 635 86 646 l 21 675 l 21 694 l 313 694 l 313 675 l 233 653 b 211 608 211 646 201 631 l 407 147 l 597 608 b 579 653 606 629 603 646 l 497 675 l 497 694 "},"ŷ":{"ha":754,"x_min":0,"x_max":0,"o":"m 282 785 l 224 785 l 354 981 l 457 981 l 588 785 l 529 785 l 406 924 m 733 694 l 733 675 l 681 653 b 647 619 664 646 654 636 l 361 -74 b 179 -261 304 -210 261 -261 b 136 -258 164 -261 156 -261 l 136 -139 b 200 -144 156 -143 179 -144 b 333 -39 264 -143 301 -118 l 360 26 l 103 619 b 71 653 96 635 86 646 l 21 675 l 21 694 l 313 694 l 313 675 l 233 653 b 211 608 211 646 201 631 l 407 147 l 597 608 b 579 653 606 629 603 646 l 497 675 l 497 694 "},"ÿ":{"ha":754,"x_min":0,"x_max":0,"o":"m 290 824 b 214 900 246 824 214 856 b 290 975 214 943 246 975 b 365 900 333 975 365 943 b 290 824 365 856 333 824 m 521 824 b 444 900 476 824 444 856 b 521 975 444 943 476 975 b 596 900 564 975 596 943 b 521 824 596 856 564 824 m 733 694 l 733 675 l 681 653 b 647 619 664 646 654 636 l 361 -74 b 179 -261 304 -210 261 -261 b 136 -258 164 -261 156 -261 l 136 -139 b 200 -144 156 -143 179 -144 b 333 -39 264 -143 301 -118 l 360 26 l 103 619 b 71 653 96 635 86 646 l 21 675 l 21 694 l 313 694 l 313 675 l 233 653 b 211 608 211 646 201 631 l 407 147 l 597 608 b 579 653 606 629 603 646 l 497 675 l 497 694 "},"ỳ":{"ha":754,"x_min":0,"x_max":0,"o":"m 225 981 l 331 981 l 431 785 l 386 785 m 733 694 l 733 675 l 681 653 b 647 619 664 646 654 636 l 361 -74 b 179 -261 304 -210 261 -261 b 136 -258 164 -261 156 -261 l 136 -139 b 200 -144 156 -143 179 -144 b 333 -39 264 -143 301 -118 l 360 26 l 103 619 b 71 653 96 635 86 646 l 21 675 l 21 694 l 313 694 l 313 675 l 233 653 b 211 608 211 646 201 631 l 407 147 l 597 608 b 579 653 606 629 603 646 l 497 675 l 497 694 "},"z":{"ha":638,"x_min":0,"x_max":0,"o":"m 582 667 l 157 42 l 407 42 b 508 106 451 42 493 60 l 549 226 l 568 226 l 554 0 l 31 0 l 31 32 l 458 653 l 219 653 b 126 597 181 653 146 646 l 83 492 l 64 492 l 78 694 l 582 694 "},"ź":{"ha":638,"x_min":0,"x_max":0,"o":"m 260 785 l 360 981 l 465 981 l 304 785 m 582 667 l 157 42 l 407 42 b 508 106 451 42 493 60 l 549 226 l 568 226 l 554 0 l 31 0 l 31 32 l 458 653 l 219 653 b 126 597 181 653 146 646 l 83 492 l 64 492 l 78 694 l 582 694 "},"ž":{"ha":638,"x_min":0,"x_max":0,"o":"m 247 785 l 117 981 l 175 981 l 299 842 l 422 981 l 481 981 l 350 785 m 582 667 l 157 42 l 407 42 b 508 106 451 42 493 60 l 549 226 l 568 226 l 554 0 l 31 0 l 31 32 l 458 653 l 219 653 b 126 597 181 653 146 646 l 83 492 l 64 492 l 78 694 l 582 694 "},"ż":{"ha":638,"x_min":0,"x_max":0,"o":"m 299 824 b 222 900 254 824 222 856 b 299 975 222 943 254 975 b 374 900 342 975 374 943 b 299 824 374 856 342 824 m 582 667 l 157 42 l 407 42 b 508 106 451 42 493 60 l 549 226 l 568 226 l 554 0 l 31 0 l 31 32 l 458 653 l 219 653 b 126 597 181 653 146 646 l 83 492 l 64 492 l 78 694 l 582 694 "},"ª":{"ha":428,"x_min":0,"x_max":0,"o":"m 410 592 l 410 579 l 286 550 l 269 550 l 269 628 b 143 550 247 589 208 550 b 26 663 78 550 26 597 b 204 801 26 736 82 789 l 269 808 l 269 839 b 189 964 269 914 243 964 b 110 861 136 964 107 922 l 29 861 b 206 989 40 950 121 989 b 350 831 303 989 350 928 l 350 628 b 369 601 350 615 354 606 m 185 606 b 269 661 225 606 251 626 l 269 785 l 211 775 b 111 678 138 763 111 728 b 185 606 111 635 144 606 "},"º":{"ha":457,"x_min":0,"x_max":0,"o":"m 225 550 b 28 763 107 550 28 638 b 231 989 28 900 122 989 b 429 775 349 989 429 901 b 225 550 429 639 335 550 m 238 578 b 344 749 301 578 344 650 b 221 963 344 831 313 963 b 113 792 157 963 113 892 b 238 578 113 711 144 578 "},"π":{"ha":842,"x_min":0,"x_max":0,"o":"m 739 33 b 819 49 761 33 801 39 l 819 28 b 686 -17 781 7 719 -17 b 558 144 601 -17 558 17 l 558 653 l 297 653 l 297 0 l 203 0 l 203 653 l 38 653 l 61 694 l 761 694 l 761 653 l 653 653 l 653 133 b 739 33 653 49 699 33 "},"⁄":{"ha":257,"x_min":0,"x_max":0,"o":"m -167 0 l 369 972 l 424 972 l -112 0 "},"½":{"ha":1046,"x_min":0,"x_max":0,"o":"m 197 507 b 275 440 197 457 225 446 l 275 415 l 18 415 l 18 440 b 106 507 74 444 106 458 l 106 882 b 18 858 83 868 54 860 l 18 894 b 165 983 78 901 129 929 l 197 983 l 197 507 m 197 0 l 733 972 l 788 972 l 251 0 m 825 568 b 994 407 932 568 994 504 b 719 75 994 289 858 203 l 890 75 b 996 168 953 75 969 92 l 1021 168 l 1013 0 l 635 0 l 635 38 l 753 156 b 899 394 854 257 899 325 b 793 506 899 467 860 506 b 668 426 729 506 690 472 l 643 435 b 825 568 661 497 722 568 "},"¼":{"ha":1006,"x_min":0,"x_max":0,"o":"m 197 507 b 275 440 197 457 225 446 l 275 415 l 18 415 l 18 440 b 106 507 74 444 106 458 l 106 882 b 18 858 83 868 54 860 l 18 894 b 165 983 78 901 129 929 l 197 983 l 197 507 m 197 0 l 733 972 l 788 972 l 251 0 m 886 182 l 981 182 l 981 147 l 886 147 l 886 88 b 958 26 886 46 906 31 l 958 0 l 703 0 l 703 26 b 797 88 760 31 797 46 l 797 147 l 535 147 l 535 179 l 825 568 l 886 568 m 585 182 l 797 182 l 797 469 "},"¾":{"ha":1082,"x_min":0,"x_max":0,"o":"m 207 733 b 415 572 333 733 415 672 b 206 404 415 482 340 404 b 11 561 115 404 24 454 l 96 561 b 215 442 101 492 154 442 b 321 557 276 442 321 489 b 175 689 321 638 265 689 l 144 689 l 142 718 l 294 886 l 144 886 b 56 832 108 886 69 881 l 35 832 l 72 972 l 401 972 l 401 943 l 207 733 m 274 0 l 810 972 l 864 972 l 328 0 m 963 182 l 1057 182 l 1057 147 l 963 147 l 963 88 b 1035 26 963 46 982 31 l 1035 0 l 779 0 l 779 26 b 874 88 836 31 874 46 l 874 147 l 611 147 l 611 179 l 901 568 l 963 568 m 661 182 l 874 182 l 874 469 "},"⅛":{"ha":1064,"x_min":0,"x_max":0,"o":"m 197 507 b 275 440 197 457 225 446 l 275 415 l 18 415 l 18 440 b 106 507 74 444 106 458 l 106 882 b 18 858 83 868 54 860 l 18 894 b 165 983 78 901 129 929 l 197 983 l 197 507 m 197 0 l 733 972 l 788 972 l 251 0 m 843 568 b 1018 433 951 568 1018 513 b 896 301 1018 374 961 322 b 1039 146 981 268 1039 213 b 843 -11 1039 63 982 -11 b 646 140 725 -11 646 50 b 771 283 646 208 692 250 b 668 419 711 313 668 354 b 843 568 668 501 726 568 m 843 532 b 751 442 785 532 751 499 b 876 314 751 381 772 363 b 938 433 922 342 938 383 b 843 532 938 494 901 532 m 796 271 b 732 140 747 243 732 190 b 843 25 732 72 778 25 b 957 128 911 25 957 67 b 796 271 957 193 919 211 "},"⅜":{"ha":1140,"x_min":0,"x_max":0,"o":"m 207 733 b 415 572 333 733 415 672 b 206 404 415 482 340 404 b 11 561 115 404 24 454 l 96 561 b 215 442 101 492 154 442 b 321 557 276 442 321 489 b 175 689 321 638 265 689 l 144 689 l 142 718 l 294 886 l 144 886 b 56 832 108 886 69 881 l 35 832 l 72 972 l 401 972 l 401 943 l 207 733 m 274 0 l 810 972 l 864 972 l 328 0 m 919 568 b 1094 433 1028 568 1094 513 b 972 301 1094 374 1038 322 b 1115 146 1057 268 1115 213 b 919 -11 1115 63 1058 -11 b 722 140 801 -11 722 50 b 847 283 722 208 768 250 b 744 419 788 313 744 354 b 919 568 744 501 803 568 m 919 532 b 828 442 861 532 828 499 b 953 314 828 381 849 363 b 1014 433 999 342 1014 383 b 919 532 1014 494 978 532 m 872 271 b 808 140 824 243 808 190 b 919 25 808 72 854 25 b 1033 128 988 25 1033 67 b 872 271 1033 193 996 211 "},"⅝":{"ha":1149,"x_min":0,"x_max":0,"o":"m 235 774 b 424 601 340 774 424 701 b 214 404 424 481 347 404 b 29 561 113 404 47 463 l 118 561 b 222 438 121 494 156 438 b 332 569 285 438 332 488 b 196 713 332 653 282 713 b 85 672 157 713 111 692 l 57 682 l 100 972 l 311 972 b 369 1014 338 974 358 979 l 390 1014 l 367 886 l 124 886 l 99 713 b 235 774 129 749 182 774 m 282 0 l 818 972 l 872 972 l 336 0 m 928 568 b 1103 433 1036 568 1103 513 b 981 301 1103 374 1046 322 b 1124 146 1065 268 1124 213 b 928 -11 1124 63 1067 -11 b 731 140 810 -11 731 50 b 856 283 731 208 776 250 b 753 419 796 313 753 354 b 928 568 753 501 811 568 m 928 532 b 836 442 869 532 836 499 b 961 314 836 381 857 363 b 1022 433 1007 342 1022 383 b 928 532 1022 494 986 532 m 881 271 b 817 140 832 243 817 190 b 928 25 817 72 863 25 b 1042 128 996 25 1042 67 b 881 271 1042 193 1004 211 "},"⅞":{"ha":1076,"x_min":0,"x_max":0,"o":"m 404 947 b 201 415 301 792 201 606 l 107 415 b 335 890 107 596 229 768 l 128 890 b 50 817 83 890 60 872 l 25 817 l 29 972 l 404 972 m 210 0 l 746 972 l 800 972 l 264 0 m 856 568 b 1031 433 964 568 1031 513 b 908 301 1031 374 974 322 b 1051 146 993 268 1051 213 b 856 -11 1051 63 994 -11 b 658 140 738 -11 658 50 b 783 283 658 208 704 250 b 681 419 724 313 681 354 b 856 568 681 501 739 568 m 856 532 b 764 442 797 532 764 499 b 889 314 764 381 785 363 b 950 433 935 342 950 383 b 856 532 950 494 914 532 m 808 271 b 744 140 760 243 744 190 b 856 25 744 72 790 25 b 969 128 924 25 969 67 b 808 271 969 193 932 211 "},".":{"ha":336,"x_min":0,"x_max":0,"o":"m 168 -19 b 83 65 121 -19 83 17 b 168 150 83 113 121 150 b 253 65 219 150 253 113 b 168 -19 253 17 215 -19 "},",":{"ha":356,"x_min":0,"x_max":0,"o":"m 172 150 b 272 36 232 150 272 103 b 83 -182 272 -83 200 -169 l 83 -154 b 213 -10 143 -142 210 -86 b 83 61 139 -39 83 10 b 172 150 83 113 124 150 "},":":{"ha":336,"x_min":0,"x_max":0,"o":"m 168 544 b 83 629 121 544 83 581 b 168 714 83 676 121 714 b 253 629 219 714 253 676 b 168 544 253 581 215 544 m 168 -19 b 83 65 121 -19 83 17 b 168 150 83 113 121 150 b 253 65 219 150 253 113 b 168 -19 253 17 215 -19 "},";":{"ha":356,"x_min":0,"x_max":0,"o":"m 168 419 b 83 504 121 419 83 456 b 168 589 83 551 121 589 b 253 504 219 589 253 551 b 168 419 253 456 215 419 m 172 150 b 272 36 232 150 272 103 b 83 -182 272 -83 200 -169 l 83 -154 b 213 -10 143 -142 210 -86 b 83 61 139 -39 83 10 b 172 150 83 113 124 150 "},"…":{"ha":846,"x_min":0,"x_max":0,"o":"m 168 -19 b 83 65 121 -19 83 17 b 168 150 83 113 121 150 b 253 65 219 150 253 113 b 168 -19 253 17 215 -19 m 422 -19 b 338 65 375 -19 338 17 b 422 150 338 113 375 150 b 507 65 474 150 507 113 b 422 -19 507 17 469 -19 m 678 -19 b 593 65 631 -19 593 17 b 678 150 593 113 631 150 b 763 65 729 150 763 113 b 678 -19 763 17 725 -19 "},"!":{"ha":419,"x_min":0,"x_max":0,"o":"m 229 275 l 190 275 l 143 972 l 276 972 m 210 -19 b 125 65 163 -19 125 17 b 210 150 125 113 163 150 b 294 65 261 150 294 113 b 210 -19 294 17 257 -19 "},"¡":{"ha":419,"x_min":0,"x_max":0,"o":"m 210 708 b 294 624 257 708 294 672 b 210 539 294 576 261 539 b 125 624 163 539 125 576 b 210 708 125 672 163 708 m 143 -283 l 190 414 l 229 414 l 276 -283 "},"?":{"ha":653,"x_min":0,"x_max":0,"o":"m 268 275 b 464 790 131 594 464 589 b 321 951 464 885 413 951 b 169 738 233 951 160 890 l 44 738 b 321 988 57 921 183 988 b 569 761 468 988 569 897 b 304 275 569 515 244 538 l 268 275 m 285 -19 b 200 65 238 -19 200 17 b 285 150 200 113 238 150 b 369 65 336 150 369 113 b 285 -19 369 17 332 -19 "},"¿":{"ha":653,"x_min":0,"x_max":0,"o":"m 368 711 b 453 626 415 711 453 675 b 368 542 453 579 415 542 b 283 626 317 542 283 579 b 368 711 283 675 321 711 m 385 417 b 189 -99 522 97 189 103 b 332 -260 189 -193 240 -260 b 483 -46 419 -260 493 -199 l 608 -46 b 332 -296 596 -229 469 -296 b 83 -69 185 -296 83 -206 b 349 417 83 176 408 154 l 385 417 "},"·":{"ha":308,"x_min":0,"x_max":0,"o":"m 154 396 b 69 481 107 396 69 432 b 154 565 69 528 107 565 b 239 481 206 565 239 528 b 154 396 239 432 201 396 "},"•":{"ha":661,"x_min":0,"x_max":0,"o":"m 333 100 b 53 378 176 100 53 224 b 333 656 53 531 176 656 b 608 378 485 656 608 531 b 333 100 608 224 485 100 "},"*":{"ha":633,"x_min":0,"x_max":0,"o":"m 107 867 l 299 779 l 274 988 l 358 988 l 333 781 l 526 867 l 550 797 l 349 746 l 497 599 l 435 540 l 315 724 l 203 542 l 140 586 l 285 746 l 83 797 "},"#":{"ha":860,"x_min":0,"x_max":0,"o":"m 619 610 l 549 358 l 760 358 l 760 310 l 535 310 l 433 -51 l 375 -51 l 476 310 l 246 310 l 144 -51 l 86 -51 l 188 310 l 44 310 l 44 358 l 201 358 l 272 610 l 100 610 l 100 658 l 286 658 l 385 1011 l 443 1011 l 344 658 l 575 658 l 674 1011 l 732 1011 l 633 658 l 815 658 l 815 610 m 561 610 l 331 610 l 260 358 l 490 358 "},"/":{"ha":583,"x_min":0,"x_max":0,"o":"m 450 972 l 500 972 l 133 0 l 83 0 "},"\\":{"ha":604,"x_min":0,"x_max":0,"o":"m 471 0 l 104 972 l 154 972 l 521 0 "},"₍":{"ha":299,"x_min":0,"x_max":0,"o":"m 272 414 b 124 32 194 335 124 204 b 272 -349 124 -136 197 -269 l 253 -361 b 33 32 138 -287 33 -146 b 253 426 33 208 139 357 "},"₎":{"ha":292,"x_min":0,"x_max":0,"o":"m 46 426 b 265 32 158 357 265 208 b 46 -361 265 -146 163 -287 l 26 -349 b 175 32 101 -269 175 -136 b 26 414 175 204 104 335 l 46 426 "},"(":{"ha":419,"x_min":0,"x_max":0,"o":"m 399 1050 b 154 383 281 893 154 688 b 399 -286 154 86 289 -126 l 369 -294 b 44 382 218 -156 44 74 b 369 1058 44 683 225 932 "},")":{"ha":419,"x_min":0,"x_max":0,"o":"m 50 1058 b 375 382 194 932 375 683 b 50 -294 375 74 201 -156 l 21 -286 b 265 383 131 -126 265 86 b 21 1050 265 688 139 893 l 50 1058 "},"{":{"ha":429,"x_min":0,"x_max":0,"o":"m 44 403 b 169 563 131 422 169 474 l 169 871 b 408 1064 169 988 263 1061 l 408 1033 b 267 876 318 1019 267 965 l 267 569 b 114 396 267 458 233 426 b 267 222 233 365 267 335 l 267 -85 b 408 -242 267 -174 318 -228 l 408 -272 b 169 -79 263 -269 169 -196 l 169 229 b 44 389 169 318 131 369 "},"}":{"ha":429,"x_min":0,"x_max":0,"o":"m 385 389 b 260 229 299 369 260 318 l 260 -79 b 21 -272 260 -196 167 -269 l 21 -242 b 163 -85 111 -228 163 -174 l 163 222 b 315 396 163 335 196 365 b 163 569 196 426 163 458 l 163 876 b 21 1033 163 965 111 1019 l 21 1064 b 260 871 167 1061 260 988 l 260 563 b 385 403 260 474 299 422 l 385 389 "},"[":{"ha":329,"x_min":0,"x_max":0,"o":"m 83 1049 l 308 1049 l 308 1019 l 168 1019 l 168 -228 l 308 -228 l 308 -257 l 83 -257 "},"]":{"ha":329,"x_min":0,"x_max":0,"o":"m 21 -257 l 21 -228 l 161 -228 l 161 1019 l 21 1019 l 21 1049 l 246 1049 l 246 -257 "},"⁽":{"ha":299,"x_min":0,"x_max":0,"o":"m 272 1132 b 124 750 194 1053 124 922 b 272 369 124 582 197 449 l 253 357 b 33 750 138 431 33 572 b 253 1144 33 926 139 1075 "},"⁾":{"ha":292,"x_min":0,"x_max":0,"o":"m 46 1144 b 265 750 158 1075 265 926 b 46 357 265 572 163 431 l 26 369 b 175 750 101 449 175 582 b 26 1132 175 922 104 1053 l 46 1144 "},"-":{"ha":436,"x_min":0,"x_max":0,"o":"m 392 371 l 44 371 l 44 433 l 392 433 "},"–":{"ha":547,"x_min":0,"x_max":0,"o":"m 503 369 l 44 369 l 44 417 l 503 417 "},"—":{"ha":1061,"x_min":0,"x_max":0,"o":"m 1017 369 l 44 369 l 44 417 l 1017 417 "},"_":{"ha":547,"x_min":0,"x_max":0,"o":"m 503 -58 l 44 -58 l 44 -11 l 503 -11 "},"‚":{"ha":356,"x_min":0,"x_max":0,"o":"m 172 150 b 272 36 232 150 272 103 b 83 -182 272 -83 200 -169 l 83 -154 b 213 -10 143 -142 210 -86 b 83 61 139 -39 83 10 b 172 150 83 113 124 150 "},"„":{"ha":603,"x_min":0,"x_max":0,"o":"m 172 150 b 272 36 232 150 272 103 b 83 -182 272 -83 200 -169 l 83 -154 b 213 -10 143 -142 210 -86 b 83 61 139 -39 83 10 b 172 150 83 113 124 150 m 419 150 b 519 36 479 150 519 103 b 331 -182 519 -83 447 -169 l 331 -154 b 460 -10 390 -142 457 -86 b 331 61 386 -39 331 10 b 419 150 331 113 371 150 "},"“":{"ha":603,"x_min":0,"x_max":0,"o":"m 183 724 b 83 838 124 724 83 771 b 272 1056 83 957 156 1043 l 272 1028 b 143 883 213 1015 146 960 b 272 813 217 913 272 864 b 183 724 272 761 232 724 m 431 724 b 331 838 371 724 331 771 b 519 1056 331 957 403 1043 l 519 1028 b 390 883 460 1015 393 960 b 519 813 464 913 519 864 b 431 724 519 761 479 724 "},"”":{"ha":603,"x_min":0,"x_max":0,"o":"m 172 1057 b 272 943 232 1057 272 1010 b 83 725 272 824 200 738 l 83 753 b 213 897 143 765 210 821 b 83 968 139 868 83 917 b 172 1057 83 1019 124 1057 m 419 1057 b 519 943 479 1057 519 1010 b 331 725 519 824 447 738 l 331 753 b 460 897 390 765 457 821 b 331 968 386 868 331 917 b 419 1057 331 1019 371 1057 "},"‘":{"ha":356,"x_min":0,"x_max":0,"o":"m 183 724 b 83 838 124 724 83 771 b 272 1056 83 957 156 1043 l 272 1028 b 143 883 213 1015 146 960 b 272 813 217 913 272 864 b 183 724 272 761 232 724 "},"’":{"ha":356,"x_min":0,"x_max":0,"o":"m 172 1057 b 272 943 232 1057 272 1010 b 83 725 272 824 200 738 l 83 753 b 213 897 143 765 210 821 b 83 968 139 868 83 917 b 172 1057 83 1019 124 1057 "},"«":{"ha":686,"x_min":0,"x_max":0,"o":"m 28 374 l 335 635 l 351 619 l 140 361 l 351 100 l 335 85 l 28 347 m 314 374 l 621 635 l 638 619 l 426 361 l 638 100 l 621 85 l 314 347 "},"»":{"ha":707,"x_min":0,"x_max":0,"o":"m 65 85 l 49 100 l 260 361 l 49 619 l 65 635 l 372 374 l 372 347 m 351 85 l 335 100 l 546 361 l 335 619 l 351 635 l 658 374 l 658 347 "},"‹":{"ha":421,"x_min":0,"x_max":0,"o":"m 49 374 l 356 635 l 372 619 l 161 361 l 372 100 l 356 85 l 49 347 "},"›":{"ha":421,"x_min":0,"x_max":0,"o":"m 65 85 l 49 100 l 260 361 l 49 619 l 65 635 l 372 374 l 372 347 "},"\"":{"ha":426,"x_min":0,"x_max":0,"o":"m 83 928 l 178 928 l 149 581 l 111 581 m 249 928 l 343 928 l 314 581 l 276 581 "},"'":{"ha":261,"x_min":0,"x_max":0,"o":"m 83 928 l 178 928 l 149 581 l 111 581 "}," ":{"ha":319,"x_min":0,"x_max":0,"o":""}," ":{"ha":319,"x_min":0,"x_max":0,"o":""},"\r":{"ha":833,"x_min":0,"x_max":0,"o":""},"¢":{"ha":660,"x_min":0,"x_max":0,"o":"m 622 181 b 374 -17 575 56 492 -8 l 374 -207 l 328 -207 l 328 -15 b 51 333 160 -3 51 144 b 328 707 51 522 156 681 l 328 896 l 374 896 l 374 711 l 381 711 b 565 650 449 711 526 685 l 565 508 l 544 508 b 353 668 515 615 446 668 b 144 383 219 668 144 540 b 378 68 144 207 231 68 b 603 189 476 68 549 110 l 622 181 "},"¤":{"ha":729,"x_min":0,"x_max":0,"o":"m 694 146 l 576 267 b 365 183 519 215 444 183 b 151 267 285 183 208 215 l 32 147 l 7 174 l 126 293 b 46 506 76 349 46 424 b 124 717 46 586 75 660 l 6 836 l 35 865 l 154 746 b 365 828 211 797 285 828 b 578 743 446 828 521 796 l 697 864 l 722 838 l 603 718 b 682 506 651 661 682 588 b 604 296 682 425 653 351 l 724 175 m 365 225 b 638 506 513 225 638 347 b 365 786 638 661 514 786 b 90 506 214 786 90 661 b 365 225 90 349 214 225 "},"$":{"ha":682,"x_min":0,"x_max":0,"o":"m 636 269 b 360 -15 636 108 514 -3 l 360 -165 l 318 -165 l 318 -17 b 49 58 200 -14 108 19 l 49 221 l 69 221 b 318 31 119 96 222 36 l 318 478 b 314 479 317 478 315 479 b 47 764 126 547 47 636 b 318 989 47 886 142 981 l 318 1129 l 360 1129 l 360 989 b 579 924 442 986 514 965 l 579 778 l 558 778 b 360 942 514 881 449 933 l 360 576 b 636 269 558 511 636 411 m 136 783 b 318 590 136 696 181 640 l 318 943 b 136 783 206 938 136 869 m 360 32 b 538 226 478 43 538 129 b 360 461 538 336 486 406 l 360 32 "},"€":{"ha":788,"x_min":0,"x_max":0,"o":"m 863 236 b 492 -17 811 126 719 -17 b 53 390 267 -17 92 153 l -96 390 l -96 436 l 49 436 b 46 488 47 453 46 469 b 51 564 46 514 47 539 l -96 564 l -96 610 l 60 610 b 536 989 111 833 304 989 b 842 908 660 989 767 956 l 842 729 l 821 729 b 507 940 789 853 654 940 b 174 610 329 940 206 821 l 610 610 l 610 564 l 169 564 b 167 501 168 544 167 524 b 169 436 167 479 168 457 l 610 436 l 610 390 l 176 390 b 511 74 213 193 347 74 b 840 249 682 74 792 157 "},"ƒ":{"ha":650,"x_min":0,"x_max":0,"o":"m 626 936 b 419 725 344 1015 419 894 l 419 694 l 586 694 l 586 653 l 419 653 l 419 36 b 118 -250 419 -157 288 -286 l 118 -160 b 325 51 400 -239 325 -118 l 325 653 l 158 653 l 158 694 l 325 694 l 325 740 b 626 1026 325 933 457 1063 l 626 936 "},"£":{"ha":808,"x_min":0,"x_max":0,"o":"m 767 201 b 536 -17 744 46 632 -17 b 44 -14 339 -17 274 174 l 24 11 b 193 474 236 240 229 358 l 44 474 l 44 519 l 178 519 b 138 707 158 575 138 633 b 432 989 138 888 272 989 b 663 928 521 989 593 969 l 663 761 l 642 761 b 432 944 603 883 549 944 b 257 767 332 944 257 878 b 324 519 257 683 306 610 l 653 519 l 653 474 l 329 474 b 146 100 335 379 299 264 b 599 100 383 243 471 100 b 743 208 657 100 715 133 "},"¥":{"ha":881,"x_min":0,"x_max":0,"o":"m 860 972 l 860 953 l 801 921 b 769 890 788 913 778 906 l 500 424 l 756 424 l 756 378 l 488 378 l 488 89 b 517 50 488 69 497 56 l 613 19 l 613 0 l 260 0 l 260 19 l 356 50 b 385 89 375 56 385 69 l 385 378 l 125 378 l 125 424 l 371 424 l 110 893 b 78 925 101 907 93 917 l 21 953 l 21 972 l 329 972 l 329 953 l 246 924 b 226 879 221 915 215 900 l 461 451 l 703 875 b 683 921 715 897 707 911 l 608 953 l 608 972 "},"₌":{"ha":408,"x_min":0,"x_max":0,"o":"m 25 153 l 383 153 l 383 121 l 25 121 m 25 18 l 383 18 l 383 -15 l 25 -15 "},"⁼":{"ha":408,"x_min":0,"x_max":0,"o":"m 25 871 l 383 871 l 383 839 l 25 839 m 25 736 l 383 736 l 383 703 l 25 703 "},"₋":{"ha":407,"x_min":0,"x_max":0,"o":"m 25 81 l 382 81 l 382 50 l 25 50 "},"⁻":{"ha":407,"x_min":0,"x_max":0,"o":"m 25 799 l 382 799 l 382 768 l 25 768 "},"+":{"ha":725,"x_min":0,"x_max":0,"o":"m 656 429 l 383 429 l 383 157 l 342 157 l 342 429 l 69 429 l 69 471 l 342 471 l 342 743 l 383 743 l 383 471 l 656 471 "},"−":{"ha":725,"x_min":0,"x_max":0,"o":"m 69 471 l 656 471 l 656 429 l 69 429 "},"×":{"ha":607,"x_min":0,"x_max":0,"o":"m 335 465 l 536 264 l 503 231 l 301 432 l 103 233 l 69 267 l 268 465 l 69 665 l 103 699 l 303 499 l 504 700 l 538 667 "},"÷":{"ha":725,"x_min":0,"x_max":0,"o":"m 363 593 b 293 663 324 593 293 622 b 363 732 293 700 324 732 b 432 663 406 732 432 700 b 363 593 432 622 401 593 m 69 471 l 656 471 l 656 429 l 69 429 m 363 167 b 293 236 324 167 293 196 b 363 306 293 274 324 306 b 432 236 406 306 432 274 b 363 167 432 196 401 167 "},"=":{"ha":725,"x_min":0,"x_max":0,"o":"m 69 586 l 656 586 l 656 544 l 69 544 m 69 363 l 656 363 l 656 321 l 69 321 "},"≠":{"ha":725,"x_min":0,"x_max":0,"o":"m 422 544 l 353 363 l 656 363 l 656 321 l 338 321 l 268 139 l 219 139 l 289 321 l 69 321 l 69 363 l 304 363 l 374 544 l 69 544 l 69 586 l 389 586 l 458 768 l 507 768 l 438 586 l 656 586 l 656 544 "},">":{"ha":688,"x_min":0,"x_max":0,"o":"m 69 706 l 86 744 l 618 472 l 618 421 l 86 149 l 69 189 l 575 447 "},"<":{"ha":688,"x_min":0,"x_max":0,"o":"m 618 189 l 601 149 l 69 421 l 69 472 l 601 744 l 618 706 l 113 447 "},"≥":{"ha":725,"x_min":0,"x_max":0,"o":"m 69 706 l 86 744 l 618 472 l 618 421 l 86 149 l 69 189 l 575 447 m 69 42 l 656 42 l 656 0 l 69 0 "},"≤":{"ha":725,"x_min":0,"x_max":0,"o":"m 618 189 l 601 149 l 69 421 l 69 472 l 601 744 l 618 706 l 113 447 m 69 0 l 69 42 l 656 42 l 656 0 "},"±":{"ha":725,"x_min":0,"x_max":0,"o":"m 656 529 l 656 488 l 383 488 l 383 215 l 342 215 l 342 488 l 69 488 l 69 529 l 342 529 l 342 801 l 383 801 l 383 529 m 69 42 l 656 42 l 656 0 l 69 0 "},"≈":{"ha":778,"x_min":0,"x_max":0,"o":"m 69 613 b 242 696 133 676 190 696 b 533 607 347 696 431 607 b 708 697 586 607 646 633 l 708 649 b 533 563 644 582 585 563 b 243 653 429 563 346 653 b 71 564 192 653 133 625 l 69 613 m 69 353 b 242 436 133 415 190 436 b 533 346 347 436 431 346 b 708 438 586 346 646 374 l 708 389 b 533 303 644 321 585 303 b 243 393 431 303 347 393 b 71 303 192 393 133 365 l 69 353 "},"~":{"ha":685,"x_min":0,"x_max":0,"o":"m 83 388 b 235 574 93 494 157 574 b 490 472 318 574 406 472 b 563 569 519 472 546 503 l 601 565 b 450 381 592 460 528 381 b 194 481 367 381 279 481 b 122 383 165 481 139 450 l 83 388 "},"¬":{"ha":753,"x_min":0,"x_max":0,"o":"m 669 56 l 624 56 l 624 426 l 83 426 l 83 472 l 669 472 "},"^":{"ha":681,"x_min":0,"x_max":0,"o":"m 317 958 l 365 958 l 597 610 l 538 610 l 340 915 l 143 610 l 83 610 "},"∞":{"ha":1228,"x_min":0,"x_max":0,"o":"m 892 699 b 1144 449 1043 699 1144 596 b 892 200 1144 301 1043 200 b 631 378 785 200 686 272 b 335 199 564 251 440 199 b 83 449 185 199 83 301 b 335 697 83 596 185 697 b 594 521 440 697 539 632 b 892 699 665 649 785 699 m 326 253 b 569 481 433 253 499 340 b 335 647 522 585 433 647 b 135 449 214 647 135 571 b 326 253 135 340 214 253 m 892 251 b 1093 449 1014 251 1093 326 b 899 643 1093 563 1014 643 b 653 422 796 643 724 554 b 892 251 706 318 796 251 "},"∫":{"ha":643,"x_min":0,"x_max":0,"o":"m 547 911 b 411 715 469 919 432 913 l 338 32 b 83 -186 324 -112 243 -218 l 97 -160 b 242 11 203 -174 228 -114 l 314 694 b 560 942 329 839 379 963 "},"Ω":{"ha":1021,"x_min":0,"x_max":0,"o":"m 949 181 l 969 181 l 928 0 l 611 0 l 611 186 b 850 575 769 218 876 378 b 443 943 825 765 686 963 b 161 525 229 925 132 740 b 408 188 179 385 278 235 l 408 0 l 94 0 l 53 181 l 74 181 l 135 106 b 175 81 147 90 156 81 l 361 81 l 361 135 b 31 532 178 192 31 346 b 511 989 31 814 263 989 b 981 568 796 989 981 799 b 658 144 981 353 821 194 l 658 81 l 847 81 b 888 106 867 81 875 90 "},"∆":{"ha":833,"x_min":0,"x_max":0,"o":"m 853 0 l -19 0 l 399 972 l 435 972 m 722 47 l 392 838 l 53 47 "},"∏":{"ha":982,"x_min":0,"x_max":0,"o":"m 856 924 b 826 885 836 917 826 904 l 826 88 b 856 49 826 68 836 56 l 938 19 l 938 0 l 613 0 l 613 19 l 694 49 b 724 88 714 56 724 68 l 724 925 l 258 925 l 258 88 b 288 49 258 68 268 56 l 369 19 l 369 0 l 44 0 l 44 19 l 126 49 b 156 88 146 56 156 68 l 156 885 b 126 924 156 904 146 917 l 44 953 l 44 972 l 938 972 l 938 953 l 856 924 "},"∑":{"ha":826,"x_min":0,"x_max":0,"o":"m 815 193 l 778 0 l 44 0 l 44 19 l 426 465 l 44 953 l 44 972 l 747 972 l 785 779 l 764 779 l 668 900 b 628 925 657 914 647 925 l 240 925 l 549 524 l 153 68 l 672 68 b 713 93 692 68 700 79 l 794 193 "},"√":{"ha":867,"x_min":0,"x_max":0,"o":"m 226 483 l 83 483 l 83 526 l 260 526 l 422 40 l 738 972 l 783 972 l 458 0 l 389 0 "},"µ":{"ha":728,"x_min":0,"x_max":0,"o":"m 779 61 l 779 42 l 604 -14 l 583 -14 l 583 121 b 271 -17 435 21 346 -17 b 238 -12 258 -17 247 -15 l 238 -137 b 268 -175 238 -158 247 -171 l 339 -189 l 339 -208 l 164 -264 l 143 -264 l 143 585 b 113 622 143 606 133 618 l 42 636 l 42 656 l 217 711 l 238 711 l 238 183 b 333 63 238 107 269 63 b 583 150 419 63 479 93 l 583 585 b 553 622 583 606 574 618 l 482 636 l 482 656 l 657 711 l 678 711 l 678 113 b 708 75 678 92 688 79 "},"∂":{"ha":792,"x_min":0,"x_max":0,"o":"m 394 989 b 747 558 617 989 747 803 b 365 -12 747 290 610 -12 b 44 307 186 -12 44 126 b 351 621 44 475 179 621 b 622 419 488 621 574 529 b 640 607 635 483 640 547 b 378 949 640 807 558 949 b 226 913 324 949 282 942 l 226 947 b 394 989 268 969 321 989 m 346 38 b 615 381 486 38 575 200 b 379 536 564 479 478 536 b 150 267 219 536 150 406 b 346 38 150 147 224 38 "},"%":{"ha":890,"x_min":0,"x_max":0,"o":"m 169 0 l 706 972 l 760 972 l 224 0 m 217 518 b 43 733 117 518 43 610 b 217 947 43 856 117 947 b 389 733 314 947 389 856 b 217 518 389 610 314 518 m 222 560 b 299 733 264 560 303 617 b 211 907 294 850 253 907 b 132 733 168 907 128 850 b 222 560 136 617 179 560 m 675 -19 b 501 196 575 -19 501 72 b 675 410 501 318 575 410 b 847 196 772 410 847 318 b 675 -19 847 72 772 -19 m 681 22 b 757 196 722 22 761 79 b 669 369 753 313 711 369 b 590 196 626 369 586 313 b 681 22 594 79 638 22 "},"‰":{"ha":1276,"x_min":0,"x_max":0,"o":"m 169 0 l 706 972 l 760 972 l 224 0 m 217 518 b 43 733 117 518 43 610 b 217 947 43 856 117 947 b 389 733 314 947 389 856 b 217 518 389 610 314 518 m 222 560 b 299 733 264 560 303 617 b 211 907 294 850 253 907 b 132 733 168 907 128 850 b 222 560 136 617 179 560 m 675 -19 b 501 196 575 -19 501 72 b 675 410 501 318 575 410 b 847 196 772 410 847 318 b 675 -19 847 72 772 -19 m 1061 -19 b 888 196 961 -19 888 72 b 1061 410 888 318 961 410 b 1233 196 1158 410 1233 318 b 1061 -19 1233 72 1158 -19 m 681 22 b 757 196 722 22 761 79 b 669 369 753 313 711 369 b 590 196 626 369 586 313 b 681 22 594 79 638 22 m 1067 22 b 1143 196 1108 22 1147 79 b 1056 369 1139 313 1097 369 b 976 196 1013 369 972 313 b 1067 22 981 79 1024 22 "},"₊":{"ha":408,"x_min":0,"x_max":0,"o":"m 383 50 l 219 50 l 219 -111 l 188 -111 l 188 50 l 25 50 l 25 83 l 188 83 l 188 246 l 219 246 l 219 83 l 383 83 "},"⁺":{"ha":408,"x_min":0,"x_max":0,"o":"m 383 768 l 219 768 l 219 607 l 188 607 l 188 768 l 25 768 l 25 801 l 188 801 l 188 964 l 219 964 l 219 801 l 383 801 "},"↑":{"ha":857,"x_min":0,"x_max":0,"o":"m 760 488 l 456 804 l 456 25 l 414 25 l 414 804 l 111 486 l 79 517 l 435 874 l 790 518 "},"↗":{"ha":789,"x_min":0,"x_max":0,"o":"m 681 661 l 681 158 l 636 158 l 647 600 l 94 47 l 65 76 l 615 626 l 178 617 l 176 661 "},"→":{"ha":969,"x_min":0,"x_max":0,"o":"m 908 351 l 553 -4 l 522 26 l 839 331 l 60 331 l 60 372 l 839 372 l 521 675 l 551 707 "},"↘":{"ha":800,"x_min":0,"x_max":0,"o":"m 682 521 l 682 17 l 179 17 l 179 61 l 621 50 l 68 603 l 97 632 l 647 82 l 638 519 "},"↓":{"ha":857,"x_min":0,"x_max":0,"o":"m 778 375 l 422 18 l 67 374 l 97 404 l 401 88 l 401 867 l 443 867 l 443 88 l 746 406 "},"↙":{"ha":800,"x_min":0,"x_max":0,"o":"m 178 50 l 619 61 l 619 17 l 117 17 l 117 521 l 161 519 l 151 82 l 701 632 l 731 603 "},"←":{"ha":969,"x_min":0,"x_max":0,"o":"m 910 331 l 131 331 l 447 26 l 417 -4 l 61 351 l 418 707 l 449 675 l 131 372 l 910 372 "},"↖":{"ha":799,"x_min":0,"x_max":0,"o":"m 694 47 l 142 600 l 153 158 l 108 158 l 108 661 l 613 661 l 611 617 l 174 626 l 724 76 "},"↔":{"ha":1417,"x_min":0,"x_max":0,"o":"m 1344 351 l 989 -4 l 958 26 l 1275 331 l 131 331 l 447 26 l 417 -4 l 61 351 l 418 707 l 449 675 l 131 372 l 1275 372 l 957 675 l 988 707 "},"↕":{"ha":857,"x_min":0,"x_max":0,"o":"m 746 176 l 778 146 l 422 -211 l 67 144 l 97 175 l 401 -142 l 401 1003 l 97 686 l 67 717 l 422 1072 l 778 715 l 746 685 l 443 1003 l 443 -142 "},"●":{"ha":1072,"x_min":0,"x_max":0,"o":"m 535 -19 b 1019 464 801 -19 1019 199 b 535 947 1019 729 801 947 b 53 464 269 947 53 729 b 535 -19 53 199 269 -19 "},"○":{"ha":1072,"x_min":0,"x_max":0,"o":"m 535 -19 b 53 464 269 -19 53 199 b 535 947 53 729 269 947 b 1019 464 801 947 1019 729 b 535 -19 1019 199 801 -19 m 536 26 b 974 463 776 26 974 222 b 536 901 974 704 776 901 b 100 463 296 901 100 704 b 536 26 100 222 296 26 "},"◊":{"ha":676,"x_min":0,"x_max":0,"o":"m 44 464 l 310 928 l 367 928 l 632 464 l 367 0 l 310 0 m 581 464 l 339 890 l 96 464 l 339 38 "},"":{"ha":1056,"x_min":0,"x_max":0,"o":"m 836 332 b 1011 154 931 332 1011 251 b 836 -19 1011 60 932 -19 b 658 154 739 -19 658 60 l 658 289 l 396 289 l 396 154 b 218 -19 396 60 315 -19 b 44 154 122 -19 44 58 b 218 332 44 251 124 332 l 353 332 l 353 594 l 218 594 b 44 772 124 594 44 675 b 218 947 44 868 124 947 b 396 772 315 947 396 867 l 396 638 l 658 638 l 658 772 b 836 947 658 867 739 947 b 1011 772 932 947 1011 868 b 836 594 1011 675 931 594 l 701 594 l 701 332 l 836 332 m 88 772 b 218 638 88 697 146 638 l 353 638 l 353 772 b 218 904 353 844 293 904 b 88 772 146 904 88 844 m 836 904 b 701 772 761 904 701 844 l 701 638 l 836 638 b 968 772 908 638 968 697 b 836 904 968 844 908 904 m 658 332 l 658 594 l 396 594 l 396 332 m 218 24 b 353 154 293 24 353 82 l 353 289 l 218 289 b 88 154 146 289 88 229 b 218 24 88 82 146 24 m 836 24 b 968 154 908 24 968 82 b 836 289 968 229 908 289 l 701 289 l 701 154 b 836 24 701 82 761 24 "},"@":{"ha":1224,"x_min":0,"x_max":0,"o":"m 858 90 b 694 296 733 90 664 176 b 474 92 632 147 563 92 b 314 292 375 92 314 175 b 668 714 314 536 482 714 b 806 625 743 714 786 678 l 875 694 l 913 694 l 801 306 b 875 144 774 207 801 144 b 1071 483 985 144 1071 278 b 654 906 1071 721 928 906 b 153 329 368 906 153 638 b 638 -153 153 51 353 -153 b 1001 -51 772 -153 882 -122 l 1021 -79 b 624 -204 932 -156 781 -204 b 53 331 292 -204 53 7 b 654 947 53 669 315 947 b 1171 483 965 947 1171 754 b 858 90 1171 240 1022 90 m 756 515 b 660 682 792 613 753 682 b 415 294 543 682 415 506 b 679 315 415 111 586 142 "},"&":{"ha":932,"x_min":0,"x_max":0,"o":"m 911 19 l 911 0 l 736 0 l 649 99 b 342 -17 565 24 461 -17 b 44 247 182 -17 44 86 b 268 529 44 369 119 464 b 143 771 218 583 143 656 b 385 989 143 903 233 989 b 619 807 532 989 617 913 b 582 668 621 754 606 704 l 483 668 b 531 806 503 693 531 749 b 374 950 531 893 472 950 b 222 807 292 950 222 901 b 376 554 222 704 296 643 l 678 225 b 725 510 711 300 726 396 l 833 510 b 719 181 819 376 779 265 l 839 50 b 876 28 849 40 863 32 m 388 31 b 621 131 483 31 563 65 l 292 503 b 156 272 200 457 156 379 b 388 31 156 122 250 31 "},"¶":{"ha":776,"x_min":0,"x_max":0,"o":"m 307 519 b 83 724 182 519 83 610 b 307 928 83 838 182 928 l 732 928 l 732 882 l 638 882 l 638 -294 l 583 -294 l 583 882 l 361 882 l 361 -294 l 307 -294 "},"§":{"ha":760,"x_min":0,"x_max":0,"o":"m 543 157 b 660 -40 642 97 660 25 b 360 -262 660 -169 557 -262 b 83 -189 250 -262 158 -228 l 83 -56 l 106 -56 b 371 -219 158 -158 247 -219 b 571 -53 490 -219 571 -153 b 378 121 571 13 546 75 b 85 379 153 181 85 264 b 214 576 85 467 138 532 b 90 774 124 631 90 699 b 386 989 90 900 193 989 b 629 929 475 989 560 965 l 629 797 l 608 797 b 375 947 560 900 478 947 b 179 803 254 947 179 885 b 383 608 179 721 217 658 b 676 342 608 549 676 458 b 543 157 676 271 613 196 m 188 424 b 418 211 188 322 242 267 b 493 183 446 203 471 193 b 574 319 535 211 574 253 b 343 519 574 410 521 467 b 265 550 314 529 289 539 b 188 424 218 519 188 479 "},"©":{"ha":1072,"x_min":0,"x_max":0,"o":"m 535 -19 b 53 464 269 -19 53 199 b 535 947 53 729 269 947 b 1019 464 801 947 1019 729 b 535 -19 1019 199 801 -19 m 536 26 b 974 463 776 26 974 222 b 536 901 974 704 776 901 b 100 463 296 901 100 704 b 536 26 100 222 296 26 m 538 200 b 279 474 383 200 279 310 b 538 749 279 638 383 749 b 758 585 649 749 732 686 l 708 574 b 538 704 690 657 628 704 b 331 474 410 704 331 617 b 538 244 331 332 410 244 b 708 372 626 244 686 289 l 757 363 b 538 200 728 261 646 200 "},"®":{"ha":686,"x_min":0,"x_max":0,"o":"m 342 471 b 53 760 183 471 53 601 b 342 1050 53 919 183 1050 b 633 760 501 1050 633 919 b 342 471 633 601 501 471 m 343 507 b 596 760 482 507 596 621 b 343 1014 596 900 483 1014 b 90 760 203 1014 90 900 b 343 507 90 621 204 507 m 442 615 l 353 760 l 276 760 l 276 615 l 243 615 l 243 929 l 351 929 b 450 844 411 929 450 894 b 389 764 450 806 428 775 l 483 615 m 276 793 l 350 793 b 414 844 392 793 414 811 b 350 896 414 878 392 896 l 276 896 "},"℗":{"ha":1072,"x_min":0,"x_max":0,"o":"m 535 -19 b 53 464 269 -19 53 199 b 535 947 53 729 269 947 b 1019 464 801 947 1019 729 b 535 -19 1019 199 801 -19 m 536 26 b 974 463 776 26 974 222 b 536 901 974 704 776 901 b 100 463 296 901 100 704 b 536 26 100 222 296 26 m 431 439 l 431 204 l 382 204 l 382 742 l 565 742 b 735 590 667 742 735 681 b 565 439 735 500 667 439 m 431 485 l 567 485 b 685 590 640 485 685 525 b 567 696 685 656 640 696 l 431 696 "},"™":{"ha":1099,"x_min":0,"x_max":0,"o":"m 176 586 l 210 597 b 231 621 224 601 231 608 l 231 947 l 167 947 b 146 933 157 947 150 940 l 99 865 l 83 865 l 101 972 l 447 972 l 465 865 l 451 865 l 404 933 b 382 947 399 940 392 947 l 318 947 l 318 621 b 335 597 318 608 325 600 l 372 586 l 372 572 l 176 572 m 433 586 l 468 597 b 488 619 479 601 485 607 l 536 917 b 522 940 538 928 533 936 l 481 957 l 481 972 l 618 972 l 722 718 l 835 972 l 974 972 l 974 957 l 939 942 b 925 918 928 938 924 928 l 965 619 b 982 597 967 607 971 601 l 1015 586 l 1015 572 l 821 572 l 821 586 l 854 596 b 871 621 867 600 872 608 l 836 894 l 713 618 l 675 618 l 564 885 l 524 621 b 539 596 521 608 528 599 l 578 586 l 578 572 l 433 572 "},"°":{"ha":449,"x_min":0,"x_max":0,"o":"m 222 638 b 69 793 139 639 69 708 b 222 947 69 879 138 946 b 379 793 308 949 379 879 b 222 638 379 708 308 636 m 222 686 b 329 793 283 686 329 732 b 222 899 329 853 283 899 b 119 793 163 899 119 853 b 222 686 119 732 163 686 "},"|":{"ha":385,"x_min":0,"x_max":0,"o":"m 169 1094 l 215 1094 l 215 -294 l 169 -294 "},"¦":{"ha":385,"x_min":0,"x_max":0,"o":"m 169 1094 l 215 1094 l 215 553 l 169 553 m 215 -294 l 169 -294 l 169 247 l 215 247 "},"†":{"ha":568,"x_min":0,"x_max":0,"o":"m 260 718 l 83 718 l 83 760 l 260 760 l 260 954 l 308 954 l 308 760 l 485 760 l 485 718 l 308 718 l 308 317 l 260 317 "},"‡":{"ha":568,"x_min":0,"x_max":0,"o":"m 308 461 l 485 461 l 485 419 l 308 419 l 308 18 l 260 18 l 260 419 l 83 419 l 83 461 l 260 461 l 260 718 l 83 718 l 83 760 l 260 760 l 260 954 l 308 954 l 308 760 l 485 760 l 485 718 l 308 718 "},"№":{"ha":1432,"x_min":0,"x_max":0,"o":"m 1174 547 b 965 763 1049 547 965 635 b 1178 986 965 897 1065 986 b 1388 769 1303 986 1388 899 b 1174 547 1388 636 1288 547 m 642 972 l 935 972 l 935 953 l 856 921 b 829 881 838 914 829 900 l 829 0 l 767 0 l 217 842 l 217 93 b 246 53 217 74 226 58 l 357 19 l 357 0 l 64 0 l 64 19 l 143 51 b 169 92 161 58 169 72 l 169 896 b 83 939 146 915 117 928 l 44 953 l 44 972 l 253 972 l 782 165 l 782 879 b 753 919 782 899 772 914 l 642 953 m 1169 954 b 1047 792 1096 954 1047 886 b 1185 581 1047 708 1086 581 b 1306 744 1258 581 1306 649 b 1169 954 1306 828 1269 954 m 975 429 l 1386 429 l 1386 388 l 975 388 "},"℮":{"ha":1056,"x_min":0,"x_max":0,"o":"m 540 -19 b 44 464 261 -19 44 190 b 528 947 44 738 256 947 b 1011 460 803 947 1014 735 l 221 460 l 221 168 b 540 29 285 99 396 29 b 886 213 682 29 801 92 l 925 185 b 540 -19 840 56 700 -19 m 836 763 b 528 899 781 825 667 899 b 221 761 389 899 275 826 l 221 517 l 836 517 "},"̈":{"ha":0,"x_min":0,"x_max":0,"o":"m -375 824 b -451 900 -419 824 -451 856 b -375 975 -451 943 -419 975 b -300 900 -332 975 -300 943 b -375 824 -300 856 -332 824 m -144 824 b -221 900 -189 824 -221 856 b -144 975 -221 943 -189 975 b -69 900 -101 975 -69 943 b -144 824 -69 856 -101 824 "},"̇":{"ha":0,"x_min":0,"x_max":0,"o":"m -144 824 b -221 900 -189 824 -221 856 b -144 975 -221 943 -189 975 b -69 900 -101 975 -69 943 b -144 824 -69 856 -101 824 "},"̀":{"ha":0,"x_min":0,"x_max":0,"o":"m -275 981 l -169 981 l -69 785 l -114 785 "},"́":{"ha":0,"x_min":0,"x_max":0,"o":"m -275 785 l -175 981 l -69 981 l -231 785 "},"̋":{"ha":0,"x_min":0,"x_max":0,"o":"m -412 785 l -312 981 l -221 981 l -368 785 m -261 785 l -161 981 l -69 981 l -217 785 "},"̂":{"ha":0,"x_min":0,"x_max":0,"o":"m -128 785 l -251 924 l -375 785 l -433 785 l -303 981 l -200 981 l -69 785 "},"̌":{"ha":0,"x_min":0,"x_max":0,"o":"m -69 981 l -200 785 l -303 785 l -433 981 l -375 981 l -251 842 l -128 981 "},"̆":{"ha":0,"x_min":0,"x_max":0,"o":"m -229 779 b -389 967 -331 779 -387 847 l -351 967 b -229 854 -344 886 -289 854 b -106 967 -169 854 -112 886 l -69 967 b -229 779 -71 847 -128 779 "},"̊":{"ha":0,"x_min":0,"x_max":0,"o":"m -200 774 b -331 897 -275 774 -331 826 b -200 1021 -331 968 -275 1021 b -69 897 -125 1021 -69 968 b -200 774 -69 826 -125 774 m -200 813 b -118 899 -153 813 -118 850 b -200 982 -118 947 -153 982 b -281 899 -246 982 -281 947 b -200 813 -281 850 -246 813 "},"̃":{"ha":0,"x_min":0,"x_max":0,"o":"m -460 826 b -346 967 -453 907 -404 967 b -153 890 -283 967 -217 890 b -99 964 -131 890 -111 914 l -69 961 b -183 821 -76 881 -125 821 b -376 897 -246 821 -312 897 b -431 824 -399 897 -418 874 l -460 826 "},"̄":{"ha":0,"x_min":0,"x_max":0,"o":"m -408 863 l -69 863 l -69 814 l -408 814 "},"̒":{"ha":0,"x_min":0,"x_max":0,"o":"m -167 1032 b -76 1267 -187 1101 -154 1189 l -56 1253 b -79 1040 -87 1192 -100 1104 l -167 1032 "},"̦":{"ha":0,"x_min":0,"x_max":0,"o":"m -89 -60 b -179 -294 -68 -129 -101 -217 l -200 -281 b -176 -68 -168 -219 -156 -132 l -89 -60 "},"̧":{"ha":0,"x_min":0,"x_max":0,"o":"m -271 -265 b -143 -201 -196 -276 -143 -253 b -232 -131 -143 -168 -172 -140 l -144 0 l -112 0 l -158 -78 b -69 -181 -110 -89 -69 -128 b -272 -285 -69 -265 -144 -311 "},"̨":{"ha":0,"x_min":0,"x_max":0,"o":"m -201 -294 b -331 -197 -279 -294 -331 -256 b -115 44 -331 -94 -231 -47 l -108 36 b -224 -157 -196 -56 -224 -90 b -76 -224 -224 -231 -172 -257 l -69 -242 b -201 -294 -111 -279 -161 -294 "},"´":{"ha":344,"x_min":0,"x_max":0,"o":"m 69 785 l 169 981 l 275 981 l 114 785 "},"˘":{"ha":458,"x_min":0,"x_max":0,"o":"m 229 779 b 69 967 128 779 71 847 l 107 967 b 229 854 114 886 169 854 b 353 967 289 854 346 886 l 389 967 b 229 779 388 847 331 779 "},"ˇ":{"ha":503,"x_min":0,"x_max":0,"o":"m 433 981 l 303 785 l 200 785 l 69 981 l 128 981 l 251 842 l 375 981 "},"¸":{"ha":342,"x_min":0,"x_max":0,"o":"m 71 -265 b 199 -201 146 -276 199 -253 b 110 -131 199 -168 169 -140 l 197 0 l 229 0 l 183 -78 b 272 -181 232 -89 272 -128 b 69 -285 272 -265 197 -311 "},"ˆ":{"ha":503,"x_min":0,"x_max":0,"o":"m 375 785 l 251 924 l 128 785 l 69 785 l 200 981 l 303 981 l 433 785 "},"¨":{"ha":521,"x_min":0,"x_max":0,"o":"m 146 824 b 69 900 101 824 69 856 b 146 975 69 943 101 975 b 221 900 189 975 221 943 b 146 824 221 856 189 824 m 376 824 b 300 900 332 824 300 856 b 376 975 300 943 332 975 b 451 900 419 975 451 943 b 376 824 451 856 419 824 "},"˙":{"ha":290,"x_min":0,"x_max":0,"o":"m 146 824 b 69 900 101 824 69 856 b 146 975 69 943 101 975 b 221 900 189 975 221 943 b 146 824 221 856 189 824 "},"`":{"ha":344,"x_min":0,"x_max":0,"o":"m 69 981 l 175 981 l 275 785 l 231 785 "},"˝":{"ha":482,"x_min":0,"x_max":0,"o":"m 69 785 l 169 981 l 261 981 l 114 785 m 221 785 l 321 981 l 413 981 l 265 785 "},"¯":{"ha":478,"x_min":0,"x_max":0,"o":"m 69 863 l 408 863 l 408 814 l 69 814 "},"˛":{"ha":400,"x_min":0,"x_max":0,"o":"m 199 -294 b 69 -197 121 -294 69 -256 b 285 44 69 -94 169 -47 l 292 36 b 176 -157 204 -56 176 -90 b 324 -224 176 -231 228 -257 l 331 -242 b 199 -294 289 -279 239 -294 "},"˚":{"ha":400,"x_min":0,"x_max":0,"o":"m 200 774 b 69 897 125 774 69 826 b 200 1021 69 968 125 1021 b 331 897 275 1021 331 968 b 200 774 331 826 275 774 m 200 813 b 282 899 247 813 282 850 b 200 982 282 947 247 982 b 119 899 154 982 119 947 b 200 813 119 850 154 813 "},"˜":{"ha":529,"x_min":0,"x_max":0,"o":"m 69 826 b 183 967 76 907 125 967 b 376 890 246 967 313 890 b 431 964 399 890 418 914 l 460 961 b 346 821 453 881 404 821 b 153 897 283 821 217 897 b 99 824 131 897 111 874 l 69 826 "}}}
